<?xml version="1.0" encoding="UTF-8"?> <svg xmlns="http://www.w3.org/2000/svg" width="513" height="513" viewBox="0 0 513 513" fill="none"><g clip-path="url(#clip0_3331_2)"><path d="M54.143 66.2057C55.807 67.8787 57.992 68.7057 60.176 68.7057C62.361 68.7057 64.545 67.8777 66.209 66.2057C69.546 62.8777 69.546 57.4677 66.209 54.1397L42.068 30.0067C38.731 26.6697 33.33 26.6697 30.002 30.0067C26.666 33.3347 26.666 38.7447 30.002 42.0727L54.143 66.2057Z" fill="#AE0000"></path><path d="M144.649 68.7137C146.834 68.7137 149.018 67.8777 150.682 66.2137L174.814 42.0727C178.15 38.7357 178.15 33.3347 174.814 30.0067C171.486 26.6697 166.084 26.6697 162.748 30.0067L138.616 54.1477C135.279 57.4757 135.279 62.8857 138.616 66.2137C140.279 67.8777 142.464 68.7137 144.649 68.7137Z" fill="#AE0000"></path><path d="M102.408 51.2127C107.118 51.2127 110.941 47.3897 110.941 42.6797V8.5457C110.941 3.8357 107.118 0.0126953 102.408 0.0126953C97.698 0.0126953 93.875 3.8357 93.875 8.5457V42.6787C93.874 47.3897 97.697 51.2127 102.408 51.2127Z" fill="#AE0000"></path><path d="M51.209 102.413C51.209 97.7029 47.386 93.8799 42.676 93.8799H8.533C3.823 93.8799 0 97.7029 0 102.413C0 107.123 3.823 110.946 8.533 110.946H42.675C47.386 110.946 51.209 107.123 51.209 102.413Z" fill="#AE0000"></path><path d="M54.1349 138.62L29.9949 162.76C26.6579 166.097 26.6579 171.498 29.9949 174.826C31.6589 176.498 33.8439 177.326 36.0279 177.326C38.2129 177.326 40.3969 176.498 42.0609 174.826L66.2019 150.685C69.5299 147.357 69.5299 141.955 66.2019 138.619C62.8649 135.283 57.4639 135.283 54.1349 138.62Z" fill="#AE0000"></path><path d="M511.411 397.896C502.11 374.728 500.019 357.806 497.988 341.448C495.249 319.389 492.424 296.571 472.183 261.508L416.716 165.431C407.782 149.969 385.569 143.995 370.081 152.938C364.901 155.933 360.583 160.422 357.614 165.789C351.871 157.52 343.491 151.615 333.661 148.978C322.653 146.025 311.159 147.553 301.286 153.236C291.899 158.655 285.354 167.128 282.171 176.677C268.825 165.652 249.471 163.433 233.625 172.598C224.4 177.923 217.625 186.311 214.382 196.38L140.945 93.1028C119.339 63.6539 98.0906 69.6449 87.3296 75.8649C77.4226 81.5819 70.8856 90.6869 68.9066 101.516C67.0886 111.474 69.2306 122.397 75.0676 132.483L193.152 324.338C195.618 328.349 200.875 329.603 204.885 327.137C208.904 324.662 210.159 319.414 207.684 315.404L89.7186 123.746C86.0406 117.363 84.6076 110.562 85.6996 104.572C86.7746 98.6749 90.2906 93.8629 95.8626 90.6459C99.7026 88.4269 111.377 81.6689 127.112 103.096L218.453 231.565C221.09 235.268 226.176 236.258 230.024 233.801C233.855 231.335 235.076 226.292 232.797 222.349C229.375 216.427 228.471 209.532 230.237 202.919C232.003 196.314 236.244 190.793 242.158 187.38C254.386 180.331 270.088 184.521 277.136 196.75L285.635 211.479C285.652 211.496 285.661 211.513 285.669 211.53C288.024 215.617 293.247 217 297.326 214.653C301.405 212.298 302.804 207.084 300.449 202.997C293.392 190.769 297.59 175.084 309.819 168.027C315.733 164.605 322.67 163.701 329.241 165.467C335.854 167.242 341.367 171.474 344.78 177.397L357.554 199.515C357.563 199.532 357.571 199.549 357.58 199.566C359.944 203.645 365.158 205.036 369.245 202.689C373.324 200.334 374.723 195.12 372.368 191.032C370.209 187.303 369.671 182.584 370.9 178.095C372.129 173.624 374.936 169.843 378.614 167.718C386.089 163.4 397.635 166.506 401.936 173.964L457.403 270.041C475.92 302.101 478.412 322.239 481.049 343.547C483.012 359.351 485.026 375.641 492.919 397.324L327.833 492.641C299.076 461.674 255.12 429.179 197.043 395.975C190.762 392.382 184.533 388.909 178.415 385.573C162.731 377.023 151.654 360.024 151.458 344.246C151.373 337.078 153.625 327.171 164.855 320.694C168.942 318.33 170.342 313.108 167.987 309.029C165.623 304.95 160.392 303.551 156.322 305.906C141.986 314.192 134.195 327.879 134.4 344.451C134.656 366.459 149.069 389.004 170.249 400.566C176.265 403.843 182.392 407.256 188.57 410.789C248.269 444.922 292.395 478.006 319.719 509.11C321.383 511.004 323.738 512.011 326.128 512.011C327.587 512.011 329.063 511.636 330.395 510.868L507.76 408.468C511.437 406.344 512.99 401.839 511.411 397.896Z" fill="#AE0000"></path></g><defs><clipPath id="clip0_3331_2"><rect width="512.025" height="512.025" fill="white"></rect></clipPath></defs></svg> 