<?xml version="1.0" encoding="UTF-8"?> <svg xmlns="http://www.w3.org/2000/svg" width="512" height="512" viewBox="0 0 512 512" fill="none"><g clip-path="url(#clip0_513_7938)"><path fill-rule="evenodd" clip-rule="evenodd" d="M256 0C397.39 0 512 114.61 512 256C512 397.39 397.39 512 256 512C114.61 512 0 397.39 0 256C0 114.61 114.61 0 256 0ZM157.39 136.61L141.82 178.14V344.23H198.89V375.39H230.05L261.18 344.23H307.89L370.18 281.97V136.61H157.39ZM178.14 157.36H349.42V271.56L313.08 307.9H256L224.88 339.02V307.9H178.14V157.36ZM235.24 261.19H256V198.91H235.24V261.19ZM292.32 261.19H313.08V198.91H292.32V261.19Z" fill="white"></path></g><defs><clipPath id="clip0_513_7938"><rect width="512" height="512" fill="white"></rect></clipPath></defs></svg> 