<?xml version="1.0" encoding="UTF-8"?> <svg xmlns="http://www.w3.org/2000/svg" width="28" height="29" viewBox="0 0 28 29" fill="none"><g clip-path="url(#clip0_3275_2606)"><path d="M14.25 0.833008C6.65608 0.833008 0.5 6.98909 0.5 14.583C0.5 22.1769 6.65608 28.333 14.25 28.333C21.8439 28.333 28 22.1769 28 14.583C28 6.98909 21.8439 0.833008 14.25 0.833008ZM21.3967 9.53074L18.9546 21.1895C18.925 21.3305 18.8605 21.4618 18.767 21.5714C18.6734 21.6809 18.5539 21.7653 18.4192 21.8166C18.2846 21.8678 18.1392 21.8845 17.9965 21.8649C17.8537 21.8454 17.7182 21.7903 17.6023 21.7047L14.0501 19.0803L11.898 21.1106C11.8698 21.1372 11.8366 21.1579 11.8004 21.1715C11.7641 21.1851 11.7255 21.1914 11.6868 21.1899C11.6481 21.1884 11.6101 21.1793 11.575 21.1629C11.5399 21.1466 11.5083 21.1235 11.4823 21.0948L11.436 21.044L11.81 17.4252L18.5498 11.2672C18.5832 11.2368 18.6039 11.195 18.6079 11.1501C18.612 11.1052 18.599 11.0603 18.5716 11.0245C18.5442 10.9886 18.5044 10.9643 18.46 10.9564C18.4156 10.9485 18.3698 10.9575 18.3317 10.9816L9.71223 16.4371L6 15.1903C5.90129 15.1572 5.81527 15.0943 5.75372 15.0103C5.69217 14.9263 5.65812 14.8253 5.65624 14.7212C5.65435 14.6171 5.68473 14.5149 5.7432 14.4288C5.80167 14.3426 5.88537 14.2767 5.98281 14.24L20.5073 8.76848C20.6194 8.72631 20.7407 8.71502 20.8586 8.73579C20.9765 8.75655 21.0866 8.8086 21.1775 8.88651C21.2684 8.96441 21.3367 9.0653 21.3753 9.17863C21.4138 9.29196 21.4212 9.41357 21.3967 9.53074Z" fill="black"></path></g><defs><clipPath id="clip0_3275_2606"><rect width="27.5" height="27.5" fill="white" transform="translate(0.5 0.833008)"></rect></clipPath></defs></svg> 