<?xml version="1.0" encoding="UTF-8"?> <svg xmlns="http://www.w3.org/2000/svg" width="29" height="29" viewBox="0 0 29 29" fill="none"><g clip-path="url(#clip0_3275_2608)"><path d="M14.583 0.833008C6.98909 0.833008 0.833008 6.98909 0.833008 14.583C0.833008 22.1769 6.98909 28.333 14.583 28.333C22.1769 28.333 28.333 22.1769 28.333 14.583C28.333 6.98909 22.1769 0.833008 14.583 0.833008ZM21.9072 19.2505H20.1624C19.9734 19.2507 19.7868 19.2083 19.6165 19.1265C19.4462 19.0447 19.2965 18.9255 19.1785 18.7778C18.6553 18.1209 17.6244 16.9561 16.5421 16.4557C16.4794 16.4264 16.4104 16.4133 16.3413 16.4178C16.2722 16.4222 16.2054 16.4439 16.1469 16.481C16.0885 16.5181 16.0403 16.5693 16.0069 16.63C15.9735 16.6906 15.9559 16.7586 15.9558 16.8279V18.5535C15.9558 18.645 15.9378 18.7356 15.9028 18.8202C15.8678 18.9048 15.8165 18.9816 15.7518 19.0463C15.6871 19.1111 15.6102 19.1624 15.5257 19.1974C15.4411 19.2325 15.3505 19.2505 15.259 19.2505H14.4522C13.403 19.2505 11.1436 18.6118 9.34324 15.9892C7.80925 13.7548 7.12546 12.0232 6.72671 10.6192C6.70353 10.5369 6.69973 10.4504 6.71562 10.3664C6.73151 10.2824 6.76665 10.2032 6.81828 10.135C6.86992 10.0669 6.93664 10.0117 7.01322 9.97365C7.08979 9.93564 7.17414 9.91589 7.25963 9.91596H9.02468C9.20077 9.91581 9.37221 9.9725 9.5135 10.0776C9.65479 10.1827 9.75837 10.3306 9.80886 10.4993C10.1371 11.5971 10.9872 13.9653 12.4899 15.1446C12.5358 15.1807 12.5908 15.2032 12.6488 15.2095C12.7068 15.2158 12.7654 15.2056 12.8179 15.1802C12.8704 15.1547 12.9147 15.115 12.9457 15.0656C12.9767 15.0162 12.9932 14.9591 12.9933 14.9007V12.1364C12.9933 11.5901 12.7565 11.0436 12.387 10.6164C12.3337 10.5551 12.2992 10.4798 12.2876 10.3995C12.2759 10.3192 12.2877 10.2372 12.3213 10.1633C12.355 10.0895 12.4092 10.0269 12.4774 9.98295C12.5457 9.93904 12.6252 9.91569 12.7063 9.91569H15.4277C15.5678 9.91569 15.7022 9.97135 15.8013 10.0704C15.9004 10.1695 15.9561 10.3039 15.9561 10.444V14.1676C15.9561 14.2215 15.9709 14.2743 15.999 14.3203C16.027 14.3664 16.0672 14.4038 16.1151 14.4285C16.163 14.4532 16.2168 14.4643 16.2705 14.4605C16.3243 14.4567 16.376 14.4381 16.4199 14.4069C16.9194 14.0513 17.3472 13.526 17.7407 12.9356C18.2359 12.1929 18.8402 10.9651 19.1434 10.328C19.2021 10.2045 19.2946 10.1003 19.4101 10.0273C19.5256 9.95427 19.6595 9.91552 19.7962 9.91553H21.7212C21.8016 9.91549 21.8806 9.93599 21.9509 9.97507C22.0211 10.0141 22.0802 10.0705 22.1226 10.1388C22.1649 10.2072 22.1891 10.2852 22.1929 10.3655C22.1966 10.4458 22.1798 10.5257 22.1441 10.5977C21.6583 11.572 20.7122 13.3594 19.8219 14.408C19.6944 14.5588 19.632 14.754 19.6484 14.9508C19.6647 15.1476 19.7585 15.3298 19.909 15.4575C20.4894 15.9534 21.3954 16.8701 22.3722 18.3971C22.4261 18.4807 22.4564 18.5772 22.4601 18.6766C22.4638 18.776 22.4406 18.8745 22.393 18.9618C22.3454 19.0491 22.2752 19.122 22.1897 19.1728C22.1042 19.2236 22.0066 19.2504 21.9072 19.2505Z" fill="black"></path></g><defs><clipPath id="clip0_3275_2608"><rect width="27.5" height="27.5" fill="white" transform="translate(0.833008 0.833008)"></rect></clipPath></defs></svg> 