<?xml version="1.0" encoding="UTF-8"?> <svg xmlns="http://www.w3.org/2000/svg" width="15" height="12" viewBox="0 0 15 12" fill="none"><path d="M1.13835 1.11882C0.800253 1.39043 0.800253 1.91768 1.13835 1.70997C1.20275 1.66204 1.52474 1.98158 1.84673 2.42894C2.16873 2.86033 2.36192 3.2278 2.29752 3.2278C2.21703 3.2278 2.00773 3.35562 1.81453 3.49941C1.62134 3.65918 1.31544 3.91482 1.10615 4.07459L0.735855 4.36218L1.21885 5.22494C1.47644 5.70426 1.75013 6.10369 1.81453 6.10369C1.89503 6.10369 1.70184 6.48714 1.37984 6.9345C1.07395 7.39783 0.816353 7.86117 0.816353 7.95703C0.816353 8.11681 1.47644 8.69198 2.15263 9.15532C2.36192 9.29911 1.26714 10.7211 0.945151 10.7211C0.494359 10.7371 0.607057 11.0087 1.17055 11.2803C1.57304 11.488 1.70184 11.504 1.79843 11.3442C1.87893 11.2323 1.86283 11.1045 1.78233 11.0566C1.70184 11.0087 1.92723 10.6092 2.26532 10.1779C2.61952 9.7305 2.90931 9.29911 2.90931 9.20325C2.90931 9.10739 2.58732 8.80382 2.16873 8.51623C1.76623 8.22865 1.46034 7.94106 1.49254 7.89313C1.52474 7.82922 1.65354 7.58956 1.76623 7.33393C2.05603 6.7907 2.23313 6.7907 2.87711 7.31795C3.4889 7.82922 3.3923 8.16474 2.76441 7.7014C2.34582 7.41381 2.10433 7.41381 2.10433 7.7014C2.10433 7.76531 2.34582 8.00497 2.65172 8.24462C3.19911 8.64405 3.21521 8.64405 3.5694 8.35646C3.89139 8.10083 3.97189 8.10083 4.16509 8.27658C4.27779 8.40439 4.43878 8.50026 4.51928 8.50026C4.71248 8.50026 5.64626 7.58956 5.64626 7.39783C5.64626 7.11025 5.29207 7.19013 4.88957 7.57358C4.29388 8.13278 4.24559 7.74933 4.84127 7.1422L5.38866 6.583L5.87165 7.06231L6.35464 7.54163L5.67846 8.22865C5.30816 8.59612 5.00227 8.96359 5.00227 9.04348C5.00227 9.10739 5.40476 9.5867 5.88775 10.098C6.38684 10.6092 6.75714 11.1045 6.74104 11.2164C6.66054 11.5838 7.03083 11.5519 7.48162 11.1365C7.72312 10.9128 7.98071 10.7371 8.06121 10.7371C8.33491 10.7371 9.51018 9.26716 9.38139 9.07543C9.18819 8.73991 7.94851 7.7014 7.75532 7.7014C7.52992 7.7014 6.70884 8.4683 6.46734 8.93164C6.30635 9.25118 6.35464 9.379 6.95033 10.0181C7.86801 11.0087 7.56212 10.9288 6.46734 9.87429L5.54966 9.0275L6.24195 8.40439C6.61224 8.0529 6.91813 7.7014 6.91813 7.62151C6.93423 7.52565 6.72494 7.20611 6.45124 6.90254C6.19365 6.59898 5.98435 6.26346 5.98435 6.18357C5.98435 6.08771 6.19365 5.76817 6.45124 5.4646C6.72494 5.16104 6.93423 4.84149 6.93423 4.72965C6.93423 4.63379 6.61224 4.25034 6.22585 3.89884L5.51746 3.25976L6.38684 2.41297C7.32063 1.50227 7.56212 1.47032 6.77324 2.38101C6.51564 2.6686 6.29025 3.0201 6.29025 3.13194C6.29025 3.3716 7.64262 4.66574 7.90021 4.66574C8.17391 4.66574 9.34919 3.53137 9.34919 3.25976C9.34919 3.13194 9.07549 2.68458 8.7535 2.28515C8.09341 1.47032 8.31881 1.61411 9.38139 2.6686L10.0737 3.35562L9.47798 3.96275C9.13989 4.29827 8.86619 4.6977 8.86619 4.84149C8.86619 4.98529 9.07549 5.33678 9.33309 5.64035L9.79998 6.16759L9.25259 6.80668C8.94669 7.15818 8.7052 7.50967 8.7052 7.60554C8.7052 7.7014 9.04329 8.06887 9.42968 8.42037L10.1542 9.05946L9.15599 10.05C8.19001 11.0087 8.17391 11.0566 8.4637 11.2963C8.88229 11.5998 9.02719 11.5998 9.02719 11.2803C9.02719 11.1365 9.39749 10.6252 9.83218 10.1459C10.5406 9.379 10.8626 8.67601 10.5245 8.66003C10.444 8.66003 10.1542 8.43635 9.86438 8.18071L9.33309 7.7014L9.76778 7.12622L10.2025 6.56702L10.7821 7.12622C11.4099 7.74933 11.3455 8.13278 10.7177 7.54163C10.3957 7.25404 10.2669 7.20611 10.122 7.3499C9.97707 7.4937 10.0576 7.65347 10.4762 8.02094C11.1363 8.56417 11.3616 8.6121 11.587 8.21267C11.7319 7.95703 11.7641 7.95703 11.9734 8.24462C12.1827 8.51623 12.2632 8.53221 12.6979 8.35646C13.3258 8.10083 13.7766 7.62151 13.5351 7.46174C13.4385 7.39783 13.1809 7.47772 12.9555 7.62151C12.2632 8.06887 12.2149 7.7014 12.9072 7.19013C13.2614 6.9345 13.5834 6.74277 13.5995 6.77473C13.9859 7.3499 14.1791 7.71738 14.1791 7.82922C14.1791 7.89313 13.8571 8.18071 13.4546 8.4683C13.0521 8.73991 12.7301 9.04348 12.7301 9.13934C12.7301 9.23521 12.9877 9.69854 13.3097 10.1779C13.6317 10.6412 13.841 11.1045 13.7927 11.2004C13.5995 11.488 14.002 11.5519 14.4206 11.2803C14.8553 10.9927 14.9519 10.7371 14.6299 10.7211C14.5172 10.7211 14.163 10.3856 13.841 9.97015L13.2614 9.21923L13.9859 8.75589C14.3723 8.50026 14.7265 8.19669 14.7748 8.0529C14.8875 7.79726 14.4206 6.83863 14.002 6.40725C13.7444 6.15162 13.7605 6.10369 14.1791 5.59242C14.968 4.64977 14.9519 4.31425 14.1469 3.69114C13.7605 3.40355 13.4224 3.14792 13.3902 3.13194C13.2775 3.05205 14.4206 1.78986 14.6138 1.78986C14.9841 1.78986 15.0002 1.45434 14.646 1.1348C14.1791 0.735368 13.8088 0.735368 13.9376 1.1348C14.002 1.32652 13.841 1.64606 13.4546 2.1094C12.7462 2.95619 12.7784 3.30769 13.6317 3.94677C14.2757 4.44206 14.2918 4.45804 14.002 4.79356C13.8571 4.98529 13.6961 5.24092 13.6478 5.35276C13.6156 5.48058 13.3741 5.40069 12.9072 5.09713C12.5369 4.85747 12.2793 4.58586 12.3276 4.49C12.4403 4.33022 12.6335 4.41011 13.0521 4.76161C13.2131 4.88942 13.3902 4.92138 13.5351 4.82552C13.7122 4.71368 13.68 4.63379 13.358 4.36218C12.6174 3.72309 12.4403 3.67516 12.1022 4.01068C11.8285 4.28229 11.7641 4.29827 11.587 4.09057C11.2972 3.75505 11.0719 3.81896 10.4923 4.41011C9.88048 5.03322 10.0898 5.41667 10.7177 4.82552C10.927 4.63379 11.1845 4.52195 11.2811 4.58586C11.3938 4.66574 11.2489 4.88942 10.8465 5.24092L10.2347 5.78414L9.79998 5.27288L9.36529 4.74563L10.0093 4.1385C10.3474 3.80298 10.6372 3.45148 10.6372 3.33964C10.6372 3.2278 10.2347 2.74849 9.75168 2.26917C9.12379 1.66204 8.89839 1.31054 8.96279 1.11882C9.09159 0.703413 8.7535 0.767322 8.28661 1.23066C8.06121 1.45434 7.85191 1.63009 7.78752 1.63009C7.73922 1.63009 7.56212 1.45434 7.38502 1.23066C6.99863 0.735368 6.80544 0.71939 6.61224 1.18273C6.53174 1.39043 6.12925 1.9017 5.72676 2.33308C5.32426 2.78044 5.00227 3.21182 5.00227 3.32366C5.00227 3.41953 5.29207 3.77102 5.64626 4.09057C6.00045 4.41011 6.29025 4.71368 6.29025 4.77758C6.29025 4.85747 6.09705 5.1131 5.88775 5.35276L5.48526 5.80012L4.88957 5.24092C4.19729 4.60184 4.26169 4.29827 4.98617 4.80954C5.54966 5.20897 5.83945 4.98529 5.38866 4.47402C4.85737 3.91482 4.51928 3.80298 4.18119 4.12252C3.89139 4.39413 3.85919 4.39413 3.6499 4.09057C3.4245 3.787 3.4084 3.787 2.82881 4.10654C2.23313 4.41011 1.97553 4.74563 2.16873 4.93736C2.23313 5.00126 2.49072 4.92138 2.73222 4.77758C3.2635 4.47402 3.3923 4.44206 3.3923 4.64977C3.3923 4.71368 3.10251 4.96931 2.76441 5.19299L2.13653 5.6084L1.78233 5.03322C1.58914 4.71368 1.50864 4.41011 1.58914 4.36218C2.50682 3.77102 2.90931 3.41953 2.90931 3.21182C2.90931 3.08401 2.66782 2.62067 2.36192 2.20526C2.02383 1.74193 1.84673 1.32652 1.89503 1.1348C2.00773 0.735368 1.62134 0.735368 1.13835 1.11882ZM12.714 6.69484C12.2471 6.98243 11.8124 7.22209 11.7641 7.22209C11.7158 7.22209 11.426 7.01438 11.1202 6.74277L10.5567 6.27943L11.1845 5.64035L11.8124 5.01724L12.6818 5.59242L13.5512 6.16759L12.714 6.69484ZM4.51928 5.6084L5.08277 6.08771L4.50318 6.66289C3.84309 7.33393 3.6338 7.31795 2.74832 6.59898L2.20093 6.13564L2.98981 5.64035C3.4245 5.36874 3.82699 5.14506 3.87529 5.14506C3.92359 5.14506 4.21339 5.35276 4.51928 5.6084Z" fill="#D92038"></path></svg> 