<?xml version="1.0" encoding="UTF-8"?> <svg xmlns="http://www.w3.org/2000/svg" width="346" height="132" viewBox="0 0 346 132" fill="none"><path d="M52.9725 1.90795L8.35377 20.3888C4.30555 22.0656 1.66602 26.0158 1.66602 30.3976V120.25C1.66602 126.233 6.51626 131.083 12.4993 131.083H221.786C222.739 131.083 223.687 130.958 224.607 130.709L270.794 118.25C271.714 118.002 272.663 117.876 273.616 117.876H331.351C337.222 117.876 342.025 113.199 342.181 107.33L344.704 12.204C344.866 6.11056 339.97 1.08337 333.875 1.08337H57.118C55.6954 1.08337 54.2868 1.36356 52.9725 1.90795Z" fill="black" stroke="url(#paint0_linear_3225_973)" stroke-width="1.66667"></path><defs><linearGradient id="paint0_linear_3225_973" x1="179.53" y1="-10.4261" x2="179.53" y2="134.48" gradientUnits="userSpaceOnUse"><stop stop-color="#D3D3D3"></stop><stop offset="0.28125" stop-color="#2B2B2B"></stop><stop offset="0.619792" stop-color="#4E4D4D"></stop><stop offset="1" stop-color="#848282"></stop></linearGradient></defs></svg> 