<?xml version="1.0" encoding="UTF-8"?> <svg xmlns="http://www.w3.org/2000/svg" width="65" height="81" viewBox="0 0 65 81" fill="none"><path d="M2.38099 78.1566C4.01152 80.0765 7.17667 80.0765 5.92979 78.1566C5.64205 77.791 7.56032 75.9625 10.2459 74.134C12.8356 72.3056 15.0416 71.2085 15.0416 71.5742C15.0416 72.0313 15.8089 73.2198 16.6721 74.3169C17.6313 75.414 19.1659 77.151 20.125 78.3395L21.8515 80.4422L27.0308 77.6995C29.9082 76.2368 32.3061 74.6826 32.3061 74.3169C32.3061 73.8598 34.608 74.9568 37.2936 76.7853C40.0751 78.5223 42.8566 79.9851 43.432 79.9851C44.3912 79.9851 47.8441 76.2368 50.6256 72.397C51.4888 71.2085 60.0251 77.4253 60.0251 79.2537C60.121 81.8136 61.7516 81.1736 63.3821 77.9738C64.629 75.6882 64.7249 74.9568 63.7657 74.4083C63.0943 73.9512 62.327 74.0426 62.0393 74.4997C61.7516 74.9568 59.3537 73.6769 56.764 71.7571C54.0785 69.7458 51.4888 68.1001 50.9133 68.1001C50.3378 68.1001 48.5155 69.9286 46.789 72.3056C45.0626 74.5912 43.3361 76.3282 43.0484 76.1453C42.6647 75.9625 41.226 75.2311 39.6914 74.5912C36.4303 72.9455 36.4303 71.9399 39.5955 68.283C42.6647 64.8089 44.6789 65.3575 41.8974 68.9229C40.171 71.2999 40.171 72.6713 41.8974 72.6713C42.2811 72.6713 43.7198 71.2999 45.1585 69.5629C47.5563 66.4545 47.5563 66.3631 45.8299 64.3518C44.2953 62.5234 44.2953 62.0662 45.3503 60.9692C46.1176 60.3292 46.6931 59.415 46.6931 58.9579C46.6931 57.8608 41.226 52.5583 40.0751 52.5583C38.3486 52.5583 38.8282 54.5696 41.1301 56.8551C44.4871 60.2378 42.1852 60.5121 38.5404 57.1294L35.1835 54.021L38.0609 51.2784L40.9383 48.5357L45.0626 52.3754C47.2686 54.4782 49.4746 56.2152 49.9542 56.2152C50.3378 56.2152 53.2152 53.9296 56.2845 51.1869C59.3537 48.3528 62.327 46.2501 62.9984 46.3415C65.2044 46.7986 65.0126 44.6959 62.5189 42.1361C61.1761 40.7647 60.121 39.302 60.121 38.8449C60.121 37.2907 51.297 30.6168 50.146 31.3482C48.1318 32.4453 41.8974 39.4848 41.8974 40.5819C41.8974 41.8618 46.5013 46.5244 49.2828 47.8957C51.201 48.8099 51.9684 48.5357 55.8049 45.153C61.7516 39.9419 61.272 41.679 54.9417 47.8957L49.8583 53.1068L46.1176 49.1756C44.0075 47.0729 41.8974 45.3359 41.4178 45.3359C40.8424 45.2445 38.9241 46.433 37.1017 47.9871C35.2794 49.4499 33.2652 50.6384 32.7856 50.6384C32.2101 50.6384 30.2919 49.4499 28.4695 47.9871C26.6471 46.433 24.7289 45.2445 24.0575 45.2445C23.482 45.2445 21.1801 47.0729 19.07 49.2671L15.2334 53.2897L10.15 48.3528C4.68291 43.0503 4.49109 41.679 9.95817 46.1587C11.6846 47.6215 13.7947 48.9014 14.4661 48.9014C15.9048 48.9014 23.6738 41.2219 23.6738 39.7591C23.6738 38.2049 16.864 31.531 15.2334 31.531C14.4661 31.531 11.7805 33.0852 9.38268 34.9137C4.49109 38.662 5.35431 37.3821 11.6846 31.3482L15.8089 27.417L19.4536 30.7997C21.4678 32.7195 23.8656 34.2737 24.7289 34.2737C25.5921 34.2737 27.7022 33.0852 29.5246 31.6225L32.6897 28.9712L36.5263 32.0796C38.6364 33.8166 40.7465 35.188 41.3219 35.188C41.8974 35.188 44.1034 33.2681 46.2135 31.0739L50.0501 26.9599L55.9967 32.6281C61.7516 38.1135 62.0393 38.2049 63.478 36.5593C65.3004 34.1823 65.3004 33.3595 63.3821 33.3595C62.5189 33.3595 59.4496 31.2568 56.5722 28.7884C51.9684 24.7658 47.7482 22.9373 47.6522 24.8572C47.6522 25.3143 46.3094 26.9599 44.7748 28.6055L41.8974 31.6225L38.4445 29.1541L35.0875 26.6856L38.4445 23.3944C42.1852 19.8289 44.4871 20.1946 40.9383 23.7601C39.2118 25.5886 38.9241 26.32 39.7873 27.1428C40.6505 27.9656 41.6097 27.5084 43.8157 25.1315C47.0768 21.3831 47.3645 20.1032 44.9667 18.8233C43.432 18.0005 43.432 17.8176 45.1585 16.6291C46.789 15.4406 46.8849 14.9835 45.8299 12.5151C44.2953 8.94963 41.4178 6.38979 40.4587 7.76114C40.0751 8.30967 40.5546 9.77244 41.4178 11.0524C44.1034 14.9835 41.8974 15.2578 38.8282 11.3266C37.2936 9.31532 36.1426 7.48687 36.3344 7.39544C39.7873 5.2013 41.9933 4.10423 42.6647 4.10423C43.0484 4.10423 44.7748 5.93268 46.5013 8.21825C48.1318 10.5038 49.9542 12.3323 50.5296 12.3323C51.1051 12.3323 53.8866 10.8695 56.764 9.04105C59.5455 7.2126 62.327 6.0241 62.9025 6.29837C64.629 7.39544 65.0126 5.10988 63.3821 2.73288C61.6556 0.264471 60.121 -0.284065 60.0251 1.54439C60.0251 2.18435 58.0109 4.19565 55.5172 6.0241L51.0092 9.31532L48.2277 5.2013C46.6931 3.00715 44.8707 0.995853 44.0075 0.721585C42.4729 0.0816256 36.7181 2.73288 34.1284 5.10988C32.5938 6.57264 32.3061 6.48122 29.2368 4.10423C23.5779 -0.375488 21.5637 -0.284065 17.8231 4.28707C16.0966 6.48122 14.562 8.40109 14.4661 8.58394C13.9865 9.2239 6.40936 2.73288 6.40936 1.63581C6.40936 -0.466911 4.39517 -0.558334 2.4769 1.45297C0.0790574 4.10423 0.0790574 6.20695 2.4769 5.47557C3.62786 5.10988 5.54614 6.0241 8.32763 8.21825C13.4111 12.2408 15.5212 12.058 19.3577 7.2126C22.331 3.55569 22.4269 3.46427 24.4411 5.10988C25.5921 5.93268 27.1267 6.84691 27.7981 7.12118C28.5654 7.30402 28.0858 8.67536 26.2635 11.3266C24.8248 13.4293 23.1943 14.8921 22.6188 14.6178C21.6596 13.9779 22.1392 12.8808 24.2493 10.5038C25.0166 9.58959 25.2084 8.58394 24.633 7.76114C23.9616 6.75549 23.482 6.93833 21.8515 8.76679C18.0149 12.9722 17.7272 13.9779 19.7414 15.8978C21.3719 17.4519 21.4678 17.8176 20.2209 18.8233C18.2067 20.4689 18.5904 21.7488 22.1392 25.04C25.8798 28.5141 28.1818 27.3256 24.633 23.7601C23.482 22.5716 22.8106 21.1089 23.1943 20.5603C23.6738 19.9204 25.0166 20.7432 27.1267 23.0287L30.3878 26.5028L27.3185 28.9712L24.1534 31.4396L20.5087 27.7827C18.4945 25.8628 16.3844 24.2172 15.713 24.2172C15.0416 24.2172 12.1642 26.5028 9.28677 29.2455C5.64205 32.811 3.53195 34.0909 2.38099 33.7252C-0.11277 32.9938 0.270885 34.9137 3.05238 37.565C4.39517 38.8449 5.45022 40.0334 5.45022 40.3991C5.45022 40.6733 4.39517 41.679 3.05238 42.6846C0.0790574 44.8788 -0.0168563 45.9758 2.76464 47.0729C4.01152 47.53 7.08076 49.8156 9.67043 52.1012C12.356 54.3867 14.9457 56.2152 15.6171 56.2152C16.1926 56.2152 18.3027 54.5696 20.2209 52.5583C22.1392 50.547 23.9616 48.9014 24.3452 48.9014C24.8248 48.9014 26.3594 49.9984 27.7981 51.1869L30.4837 53.4725L27.1267 56.8551C23.2902 60.7863 21.4678 60.4206 24.537 56.3066C26.9349 53.1068 25.5921 51.4612 22.5229 54.021C19.1659 57.038 18.4945 58.9579 20.4128 60.8777C22.0433 62.5234 22.0433 62.7062 20.2209 63.8947C18.3986 65.1746 18.3986 65.266 20.3168 68.5573C22.1392 71.9399 24.1534 73.4027 25.3044 72.3056C25.688 71.9399 25.2084 70.4771 24.3452 69.1058C22.5229 66.0888 22.331 65.3575 23.5779 65.3575C23.9616 65.3575 25.4962 67.0031 26.839 68.9229L29.3327 72.4884L25.8798 74.4997C23.9616 75.5968 22.1392 76.0539 21.8515 75.5968C18.3027 70.3857 16.1926 68.1001 14.9457 68.1001C14.1784 68.1001 11.3969 69.4715 8.90312 71.2085C6.12162 73.1284 3.62786 74.134 2.4769 73.8598C0.0790574 73.2198 0.0790574 75.414 2.38099 78.1566ZM35.8549 12.4237C37.5813 15.075 39.02 17.5434 39.02 17.8176C39.02 18.0919 37.7731 19.7375 36.1426 21.4745L33.3611 24.6743L29.5246 21.1089L25.7839 17.5434L29.2368 12.6065L32.6897 7.66971L35.8549 12.4237ZM29.3327 58.9579L32.2101 55.7581L35.663 59.0493C39.6914 62.7976 39.5955 63.9861 35.2794 69.0144L32.4979 72.1227L29.5246 67.643C27.894 65.1746 26.5512 62.889 26.5512 62.6148C26.5512 62.3405 27.7981 60.6949 29.3327 58.9579Z" fill="#D92038"></path></svg> 