<?xml version="1.0" encoding="UTF-8"?> <svg xmlns="http://www.w3.org/2000/svg" width="167" height="22" viewBox="0 0 167 22" fill="none"><path d="M7.95475 11.5018C8.54275 12.2938 8.83675 13.0738 8.83675 13.8418C8.83675 14.2018 8.75275 14.5798 8.58475 14.9758C8.22475 15.7918 7.62475 16.4518 6.78475 16.9558C5.95675 17.4478 4.97875 17.8618 3.85075 18.1978C3.70675 18.2338 3.59275 18.2518 3.50875 18.2518C3.42475 18.2518 3.34075 18.2278 3.25675 18.1798C2.65675 17.8318 2.08075 17.3518 1.52875 16.7398C0.98875 16.1278 0.71875 15.5338 0.71875 14.9578C0.71875 14.6338 0.80875 14.3518 0.98875 14.1118C1.10875 13.9438 1.26475 13.8118 1.45675 13.7158C1.66075 13.6198 1.94275 13.4998 2.30275 13.3558C2.32675 13.3558 2.49475 13.3138 2.80675 13.2298C3.13075 13.1338 3.25675 13.1458 3.18475 13.2658C3.02875 13.4938 2.95075 13.7518 2.95075 14.0398C2.95075 14.4238 3.07675 14.8678 3.32875 15.3718C3.52075 15.7438 3.76675 16.0738 4.06675 16.3618C4.36675 16.6378 4.65475 16.8358 4.93075 16.9558C5.31475 16.7878 5.67475 16.5298 6.01075 16.1818C6.34675 15.8338 6.51475 15.4258 6.51475 14.9578C6.51475 14.2618 6.30475 13.6018 5.88475 12.9778C5.46475 12.3418 4.90075 11.6518 4.19275 10.9078C4.01275 10.7278 3.92275 10.4758 3.92275 10.1518C3.92275 10.0318 3.93475 9.86382 3.95875 9.64782C4.10275 8.68782 4.42075 7.74582 4.91275 6.82182C5.40475 5.89782 5.98675 5.17782 6.65875 4.66182H3.50875C2.96875 5.60982 2.66875 6.62982 2.60875 7.72182C2.59675 7.86582 2.56075 7.97382 2.50075 8.04582C2.45275 8.11782 2.39275 8.15382 2.32075 8.15382C2.20075 8.15382 2.10475 8.06382 2.03275 7.88382C2.00875 7.82382 1.84075 7.42182 1.52875 6.67782C1.22875 5.92182 1.07875 5.24382 1.07875 4.64382C1.07875 4.61982 1.09675 4.58982 1.13275 4.55382C1.20475 4.48182 1.31275 4.39182 1.45675 4.28382C1.61275 4.17582 1.72075 4.10382 1.78075 4.06782C2.08075 3.91182 2.33875 3.79782 2.55475 3.72582C2.77075 3.64182 2.98675 3.59982 3.20275 3.59982H8.44075C8.60875 3.59982 8.69275 3.64182 8.69275 3.72582C8.69275 3.82182 8.55475 3.98982 8.27875 4.22982L8.24275 4.28382C7.69075 4.91982 7.25875 5.53782 6.94675 6.13782C6.63475 6.72582 6.40075 7.42182 6.24475 8.22582C6.23275 8.30982 6.20275 8.44782 6.15475 8.63982C6.11875 8.81982 6.10075 8.97582 6.10075 9.10782C6.10075 9.34782 6.16075 9.53382 6.28075 9.66582C6.29275 9.67782 6.52075 9.92382 6.96475 10.4038C7.44475 10.8838 7.77475 11.2498 7.95475 11.5018Z" fill="white"></path><path d="M17.2833 12.1318C18.2553 13.5838 18.7413 15.1978 18.7413 16.9738C18.7413 17.1178 18.6033 17.2678 18.3273 17.4238C18.0633 17.5798 17.7573 17.7178 17.4093 17.8378C17.0613 17.9458 16.7853 17.9998 16.5813 17.9998L10.5873 17.9818C10.3713 17.9938 10.2633 17.4958 10.2633 16.4878C10.2633 16.2238 10.2813 15.6238 10.3173 14.6878L10.3533 13.8418C10.3653 13.4098 10.3953 12.3958 10.4433 10.7998C10.5033 9.20382 10.5333 8.08782 10.5333 7.45182C10.5333 6.61182 10.4853 5.93982 10.3893 5.43582C10.3053 4.91982 10.1373 4.48782 9.88525 4.13982C9.78925 4.00782 10.0233 3.88182 10.5873 3.76182C11.1513 3.64182 11.6973 3.58182 12.2253 3.58182H12.8193L18.0213 3.56382L18.0753 3.61782C18.0633 4.42182 17.9073 5.19582 17.6073 5.93982C17.3192 6.68382 16.9053 7.36782 16.3653 7.99182L16.1133 8.24382C15.8613 8.47182 15.6573 8.68182 15.5013 8.87382C15.3573 9.06582 15.2853 9.25782 15.2853 9.44982C15.2853 9.54582 15.3153 9.65382 15.3753 9.77382C15.5553 10.0738 15.8853 10.4878 16.3653 11.0158C16.7973 11.4958 17.1033 11.8678 17.2833 12.1318ZM16.4553 16.9378C16.4433 16.2658 16.2573 15.5098 15.8973 14.6698C15.5493 13.8178 15.0393 12.9958 14.3673 12.2038L14.0073 11.8258C13.7193 11.5378 13.4913 11.2798 13.3233 11.0518C13.1673 10.8238 13.0893 10.5958 13.0893 10.3678C13.0893 10.1638 13.1613 9.97182 13.3053 9.79182C13.3653 9.71982 13.5633 9.49782 13.8993 9.12582C14.2833 8.71782 14.5353 8.42382 14.6553 8.24382C15.2913 7.31982 15.6093 6.16782 15.6093 4.78782C15.6093 4.70382 15.5853 4.65582 15.5373 4.64382C15.4893 4.61982 15.4293 4.61382 15.3573 4.62582C15.2973 4.62582 15.2553 4.62582 15.2313 4.62582H12.7833C12.7953 4.76982 12.8013 4.99182 12.8013 5.29182C12.8013 5.71182 12.7833 6.24582 12.7473 6.89382C12.7353 7.26582 12.7173 8.24382 12.6933 9.82782C12.6693 11.4118 12.6573 12.7258 12.6573 13.7698C12.6573 14.5498 12.6693 15.1858 12.6933 15.6778C12.7293 16.1698 12.8073 16.5898 12.9273 16.9378H16.4553Z" fill="white"></path><path d="M25.4416 2.75382C25.0216 2.40582 24.7036 2.06382 24.4876 1.72782C24.4636 1.69182 24.4516 1.63782 24.4516 1.56582C24.4516 1.33782 24.6616 1.06182 25.0816 0.73782C25.3216 0.53382 25.5676 0.38382 25.8196 0.28782C25.9636 0.23982 26.0776 0.21582 26.1616 0.21582C26.2336 0.21582 26.2876 0.22782 26.3236 0.25182C26.5276 0.37182 26.6956 0.50982 26.8276 0.66582C26.9716 0.82182 27.1216 1.01982 27.2776 1.25982C27.3496 1.41582 27.3196 1.57782 27.1876 1.74582C27.0556 1.91382 26.8876 2.08782 26.6836 2.26782C26.3836 2.48382 26.1376 2.63382 25.9456 2.71782C25.8016 2.76582 25.6876 2.78982 25.6036 2.78982C25.5196 2.78982 25.4656 2.77782 25.4416 2.75382ZM21.9136 2.84382C21.4936 2.49582 21.1756 2.15382 20.9596 1.81782C20.9236 1.75782 20.9056 1.70382 20.9056 1.65582C20.9056 1.43982 21.1216 1.16382 21.5536 0.82782C21.7936 0.62382 22.0396 0.47382 22.2916 0.37782C22.4356 0.32982 22.5496 0.30582 22.6336 0.30582C22.7056 0.30582 22.7536 0.31782 22.7776 0.34182C23.1376 0.55782 23.4616 0.89382 23.7496 1.34982C23.8456 1.60182 23.6416 1.93782 23.1376 2.35782C22.8856 2.56182 22.6396 2.71182 22.3996 2.80782C22.2556 2.85582 22.1476 2.87982 22.0756 2.87982C21.9916 2.87982 21.9376 2.86782 21.9136 2.84382ZM27.4756 12.4378C27.9196 12.5218 28.1416 12.8518 28.1416 13.4278C28.1416 13.6798 28.0876 13.9978 27.9796 14.3818C27.7516 15.1498 27.3496 15.7858 26.7736 16.2898C26.1976 16.7938 25.5256 17.2258 24.7576 17.5858C24.0016 17.9458 23.2816 18.1318 22.5976 18.1438C22.5496 18.1438 22.5136 18.1378 22.4896 18.1258C22.4296 18.1258 22.3996 18.1198 22.3996 18.1078C22.3156 17.7238 22.1836 17.3398 22.0036 16.9558C21.8236 16.5718 21.5896 16.1338 21.3016 15.6418C20.8576 14.8858 20.5576 14.2918 20.4016 13.8598C19.9816 12.6958 19.7716 11.5678 19.7716 10.4758C19.7716 9.99582 19.8196 9.49782 19.9156 8.98182C20.0356 8.28582 20.2636 7.61982 20.5996 6.98382C20.9356 6.34782 21.3616 5.81382 21.8776 5.38182C22.6096 4.80582 23.4196 4.36182 24.3076 4.04982C25.2076 3.72582 26.1016 3.58182 26.9896 3.61782C27.0256 3.61782 27.0436 3.66582 27.0436 3.76182H27.0616V3.77982L27.0436 3.85182C27.0316 4.30782 26.8996 5.00982 26.6476 5.95782C26.3956 6.90582 26.2096 7.52982 26.0896 7.82982C26.0176 8.00982 25.9216 8.09982 25.8016 8.09982C25.7296 8.09982 25.6636 8.06382 25.6036 7.99182C25.5556 7.91982 25.5256 7.81182 25.5136 7.66782C25.4536 6.56382 25.1656 5.57382 24.6496 4.69782C24.3256 4.79382 24.0016 4.95582 23.6776 5.18382C23.3536 5.41182 23.0716 5.72382 22.8316 6.11982C22.2796 7.04382 22.0036 8.16582 22.0036 9.48582V9.89982C22.0516 9.87582 22.0876 9.85182 22.1116 9.82782C22.5196 9.58782 22.9996 9.41382 23.5516 9.30582C24.1036 9.19782 24.6616 9.14382 25.2256 9.14382C25.6816 9.14382 26.0716 9.17982 26.3956 9.25182C26.7316 9.31182 26.8996 9.38982 26.8996 9.48582C26.8996 10.2298 26.5096 10.9738 25.7296 11.7178C25.5856 11.8858 25.4596 11.9698 25.3516 11.9698C25.2436 11.9698 25.1716 11.8378 25.1356 11.5738C25.0156 10.6978 24.4276 10.2598 23.3716 10.2598C22.9516 10.2598 22.5076 10.3258 22.0396 10.4578C22.1596 11.5618 22.4836 12.6778 23.0116 13.8058C23.0956 13.9858 23.2996 14.3578 23.6236 14.9218C23.8876 15.3658 24.0916 15.7378 24.2356 16.0378C24.3916 16.3378 24.5116 16.6498 24.5956 16.9738C24.7876 16.8538 24.9916 16.6798 25.2076 16.4518C25.5556 16.0798 25.7836 15.5338 25.8916 14.8138C25.9036 14.7418 25.9096 14.6218 25.9096 14.4538C25.9096 13.8778 25.7356 13.5598 25.3876 13.4998C25.2676 13.4758 25.3276 13.3798 25.5676 13.2118C25.8196 13.0318 25.9816 12.9298 26.0536 12.9058C26.0896 12.8818 26.2096 12.8218 26.4136 12.7258C26.6176 12.6178 26.8096 12.5398 26.9896 12.4918C27.1816 12.4318 27.3436 12.4138 27.4756 12.4378Z" fill="white"></path><path d="M36.4022 11.5018C36.9902 12.2938 37.2842 13.0738 37.2842 13.8418C37.2842 14.2018 37.2002 14.5798 37.0322 14.9758C36.6722 15.7918 36.0722 16.4518 35.2322 16.9558C34.4042 17.4478 33.4262 17.8618 32.2982 18.1978C32.1542 18.2338 32.0402 18.2518 31.9562 18.2518C31.8722 18.2518 31.7882 18.2278 31.7042 18.1798C31.1042 17.8318 30.5282 17.3518 29.9762 16.7398C29.4362 16.1278 29.1662 15.5338 29.1662 14.9578C29.1662 14.6338 29.2562 14.3518 29.4362 14.1118C29.5562 13.9438 29.7122 13.8118 29.9042 13.7158C30.1082 13.6198 30.3902 13.4998 30.7502 13.3558C30.7742 13.3558 30.9422 13.3138 31.2542 13.2298C31.5782 13.1338 31.7042 13.1458 31.6322 13.2658C31.4762 13.4938 31.3982 13.7518 31.3982 14.0398C31.3982 14.4238 31.5242 14.8678 31.7762 15.3718C31.9682 15.7438 32.2142 16.0738 32.5142 16.3618C32.8142 16.6378 33.1022 16.8358 33.3782 16.9558C33.7622 16.7878 34.1222 16.5298 34.4582 16.1818C34.7942 15.8338 34.9622 15.4258 34.9622 14.9578C34.9622 14.2618 34.7522 13.6018 34.3322 12.9778C33.9122 12.3418 33.3482 11.6518 32.6402 10.9078C32.4602 10.7278 32.3702 10.4758 32.3702 10.1518C32.3702 10.0318 32.3822 9.86382 32.4062 9.64782C32.5502 8.68782 32.8682 7.74582 33.3602 6.82182C33.8522 5.89782 34.4342 5.17782 35.1062 4.66182H31.9562C31.4162 5.60982 31.1162 6.62982 31.0562 7.72182C31.0442 7.86582 31.0082 7.97382 30.9482 8.04582C30.9002 8.11782 30.8402 8.15382 30.7682 8.15382C30.6482 8.15382 30.5522 8.06382 30.4802 7.88382C30.4562 7.82382 30.2882 7.42182 29.9762 6.67782C29.6762 5.92182 29.5262 5.24382 29.5262 4.64382C29.5262 4.61982 29.5442 4.58982 29.5802 4.55382C29.6522 4.48182 29.7602 4.39182 29.9042 4.28382C30.0602 4.17582 30.1682 4.10382 30.2282 4.06782C30.5282 3.91182 30.7862 3.79782 31.0022 3.72582C31.2182 3.64182 31.4342 3.59982 31.6502 3.59982H36.8882C37.0562 3.59982 37.1402 3.64182 37.1402 3.72582C37.1402 3.82182 37.0022 3.98982 36.7262 4.22982L36.6902 4.28382C36.1382 4.91982 35.7062 5.53782 35.3942 6.13782C35.0822 6.72582 34.8482 7.42182 34.6922 8.22582C34.6802 8.30982 34.6502 8.44782 34.6022 8.63982C34.5662 8.81982 34.5482 8.97582 34.5482 9.10782C34.5482 9.34782 34.6082 9.53382 34.7282 9.66582C34.7402 9.67782 34.9682 9.92382 35.4122 10.4038C35.8922 10.8838 36.2222 11.2498 36.4022 11.5018Z" fill="white"></path><path d="M49.4387 16.9198C49.7147 16.9198 49.8527 17.0098 49.8527 17.1898V17.2078C49.8527 17.6518 49.7207 18.3778 49.4567 19.3858C49.2047 20.3938 49.0127 21.0658 48.8807 21.4018C48.8087 21.5818 48.7127 21.6718 48.5927 21.6718C48.5207 21.6718 48.4547 21.6358 48.3947 21.5638C48.3467 21.4918 48.3167 21.3838 48.3047 21.2398C48.2447 20.0398 47.8907 18.9598 47.2427 17.9998H40.9427C40.6787 18.3598 40.4387 18.8158 40.2227 19.3678C40.0187 19.9198 39.8987 20.5438 39.8627 21.2398C39.8507 21.5278 39.7607 21.6718 39.5927 21.6718C39.4727 21.6718 39.3767 21.5818 39.3047 21.4018C39.1367 21.0178 38.9327 20.4418 38.6927 19.6738C38.4527 18.9058 38.3267 18.3058 38.3147 17.8738C38.3147 17.8618 38.3147 17.8498 38.3147 17.8378C38.3267 17.8258 38.3327 17.8198 38.3327 17.8198C38.3927 17.7118 38.5487 17.5918 38.8007 17.4598C39.0527 17.3158 39.3527 17.1958 39.7007 17.0998C39.6887 16.9798 39.6827 16.7878 39.6827 16.5238C39.6827 15.8278 39.7247 15.2098 39.8087 14.6698C39.9047 13.9738 40.0367 13.2718 40.2047 12.5638C40.3847 11.8558 40.7387 11.0218 41.2667 10.0618C41.7947 9.08982 42.5267 8.20782 43.4627 7.41582C43.1867 6.77982 42.9827 6.26982 42.8507 5.88582C42.7307 5.50182 42.6767 5.15982 42.6887 4.85982C42.7007 4.57182 42.8447 4.33182 43.1207 4.13982C43.3967 3.93582 43.6847 3.77982 43.9847 3.67182C44.4047 3.51582 44.6987 3.43782 44.8667 3.43782C44.9507 3.43782 44.9987 3.45582 45.0107 3.49182C45.0227 3.51582 45.0167 3.59982 44.9927 3.74382C44.9807 3.87582 44.9807 4.03182 44.9927 4.21182C44.9927 4.76382 45.4127 5.99382 46.2527 7.90182C46.7207 8.98182 47.1767 10.3318 47.6207 11.9518C48.0647 13.5718 48.3407 14.6998 48.4487 15.3358C48.5687 15.9958 48.7127 16.5238 48.8807 16.9198H49.4387ZM42.0227 13.5718C41.9987 13.9318 41.9867 14.2138 41.9867 14.4178C41.9867 15.4378 42.1127 16.2718 42.3647 16.9198H46.2167C46.1327 16.2358 46.0427 15.6418 45.9467 15.1378C45.6827 13.8538 45.3647 12.5938 44.9927 11.3578C44.6207 10.1098 44.2367 9.06582 43.8407 8.22582C42.8567 9.25782 42.2507 11.0398 42.0227 13.5718Z" fill="white"></path><path d="M59.5674 17.6218C59.6634 17.7538 59.4354 17.8798 58.8834 17.9998C58.3434 18.1078 57.8094 18.1618 57.2814 18.1618L56.9754 18.1438C56.7594 18.1318 56.6514 17.6278 56.6514 16.6318C56.6514 16.3438 56.6694 15.7138 56.7054 14.7418C56.7654 13.1578 56.8014 12.0058 56.8134 11.2858H53.5734C53.5614 12.1498 53.5554 13.0858 53.5554 14.0938C53.5554 14.9938 53.5854 15.7318 53.6454 16.3078C53.7054 16.8838 53.8494 17.3218 54.0774 17.6218C54.1734 17.7538 53.9454 17.8798 53.3934 17.9998C52.8534 18.1078 52.3194 18.1618 51.7914 18.1618L51.4854 18.1438C51.2694 18.1318 51.1614 17.6098 51.1614 16.5778C51.1614 16.2898 51.1794 15.6778 51.2154 14.7418L51.2514 13.9138C51.2634 13.4698 51.2934 12.4498 51.3414 10.8538C51.4014 9.25782 51.4314 8.13582 51.4314 7.48782C51.4314 6.63582 51.4014 6.04182 51.3414 5.70582C51.2934 5.35782 51.1434 5.01582 50.8914 4.67982C50.8194 4.57182 50.9334 4.42182 51.2334 4.22982C51.5334 4.03782 51.8934 3.86982 52.3134 3.72582C52.7454 3.56982 53.0994 3.50382 53.3754 3.52782C53.5914 3.53982 53.6994 4.07382 53.6994 5.12982C53.6994 5.38182 53.6754 5.98782 53.6274 6.94782L53.5914 10.2238H56.8494L56.9034 7.21782C56.9034 6.48582 56.8734 5.95782 56.8134 5.63382C56.7654 5.30982 56.6214 4.99182 56.3814 4.67982C56.3094 4.57182 56.4174 4.42182 56.7054 4.22982C57.0054 4.03782 57.3654 3.86982 57.7854 3.72582C58.2174 3.56982 58.5714 3.50382 58.8474 3.52782C59.0634 3.53982 59.1714 4.10382 59.1714 5.21982C59.1714 5.68782 59.1534 6.26382 59.1174 6.94782L59.0274 13.8238C59.0274 14.8078 59.0574 15.6058 59.1174 16.2178C59.1774 16.8298 59.3274 17.2978 59.5674 17.6218Z" fill="white"></path><path d="M68.7915 7.72182C69.1995 8.71782 69.4035 9.75582 69.4035 10.8358C69.4035 11.0158 69.3915 11.2738 69.3675 11.6098C69.2475 13.0138 68.8695 14.1598 68.2335 15.0478C67.5135 16.0558 66.4515 16.8838 65.0475 17.5318C64.7475 17.7118 64.3695 17.8678 63.9135 17.9998C63.4695 18.1438 63.2415 18.1798 63.2295 18.1078C63.1215 17.7118 62.9775 17.3338 62.7975 16.9738C62.6175 16.6018 62.3835 16.1638 62.0955 15.6598C61.6275 14.8438 61.2975 14.1778 61.1055 13.6618C60.7815 12.8218 60.6195 11.9098 60.6195 10.9258C60.6195 10.5058 60.6435 10.1278 60.6915 9.79182C60.8835 8.25582 61.3155 7.05582 61.9875 6.19182C62.4915 5.54382 63.1275 5.00382 63.8955 4.57182C64.6635 4.13982 65.5035 3.80982 66.4155 3.58182C66.5115 3.55782 66.5835 3.54582 66.6315 3.54582C66.7395 3.54582 66.7995 3.55782 66.8115 3.58182C66.9075 3.96582 67.0395 4.33782 67.2075 4.69782C67.3755 5.04582 67.6155 5.48982 67.9275 6.02982C67.9875 6.13782 68.1135 6.36582 68.3055 6.71382C68.4975 7.06182 68.6595 7.39782 68.7915 7.72182ZM66.6675 14.7238C67.0155 13.8238 67.1895 12.8578 67.1895 11.8258C67.1895 10.5418 66.8955 9.29982 66.3075 8.09982C66.1155 7.71582 65.9175 7.36182 65.7135 7.03782C65.6655 6.95382 65.5575 6.76182 65.3895 6.46182C65.2215 6.14982 65.0715 5.86182 64.9395 5.59782C64.8195 5.32182 64.7235 5.06382 64.6515 4.82382C64.4955 4.95582 64.3635 5.09382 64.2555 5.23782C63.9075 5.69382 63.6375 6.17382 63.4455 6.67782C63.0495 7.69782 62.8515 8.81382 62.8515 10.0258C62.8515 11.2138 63.1155 12.3538 63.6435 13.4458C63.7395 13.6378 63.9615 14.0458 64.3095 14.6698C64.5015 15.0058 64.6935 15.3598 64.8855 15.7318C65.0775 16.1038 65.2275 16.4518 65.3355 16.7758C65.8755 16.2838 66.3195 15.5998 66.6675 14.7238Z" fill="white"></path><path d="M78.122 12.3838C78.566 12.4678 78.788 12.8038 78.788 13.3918C78.788 13.7158 78.734 14.0278 78.626 14.3278C78.398 15.1078 78.002 15.7438 77.438 16.2358C76.862 16.7398 76.19 17.1718 75.422 17.5318C74.666 17.8918 73.946 18.0778 73.262 18.0898C73.214 18.0898 73.178 18.0838 73.154 18.0718C73.094 18.0718 73.064 18.0658 73.064 18.0538C72.98 17.6698 72.848 17.2858 72.668 16.9018C72.488 16.5178 72.254 16.0798 71.966 15.5878C71.522 14.8318 71.222 14.2378 71.066 13.8058C70.646 12.6418 70.436 11.5078 70.436 10.4038C70.436 9.87582 70.478 9.38382 70.562 8.92782C70.694 8.21982 70.928 7.55382 71.264 6.92982C71.6 6.29382 72.026 5.75982 72.542 5.32782C73.262 4.75182 74.066 4.30782 74.954 3.99582C75.854 3.67182 76.748 3.52782 77.636 3.56382C77.684 3.56382 77.708 3.61782 77.708 3.72582V3.79782C77.696 4.25382 77.564 4.95582 77.312 5.90382C77.06 6.83982 76.868 7.46382 76.736 7.77582C76.664 7.95582 76.568 8.04582 76.448 8.04582C76.376 8.04582 76.316 8.00982 76.268 7.93782C76.22 7.85382 76.19 7.74582 76.178 7.61382C76.106 6.46182 75.812 5.47182 75.296 4.64382C74.984 4.73982 74.666 4.90782 74.342 5.14782C74.018 5.37582 73.736 5.68182 73.496 6.06582C73.208 6.54582 72.992 7.07982 72.848 7.66782C72.716 8.24382 72.65 8.83182 72.65 9.43182C72.65 9.62382 72.656 9.76182 72.668 9.84582L72.776 9.77382C73.184 9.53382 73.664 9.35982 74.216 9.25182C74.768 9.14382 75.32 9.08982 75.872 9.08982C76.34 9.08982 76.736 9.12582 77.06 9.19782C77.396 9.25782 77.564 9.33582 77.564 9.43182C77.564 10.1758 77.174 10.9198 76.394 11.6638C76.226 11.8318 76.1 11.9158 76.016 11.9158C75.896 11.9158 75.818 11.7778 75.782 11.5018C75.674 10.6378 75.098 10.2058 74.054 10.2058C73.622 10.2058 73.172 10.2718 72.704 10.4038C72.824 11.4838 73.142 12.5998 73.658 13.7518L74.234 14.7958C74.762 15.6598 75.098 16.3678 75.242 16.9198C75.398 16.8358 75.608 16.6618 75.872 16.3978C76.208 16.0138 76.43 15.4678 76.538 14.7598C76.55 14.6878 76.556 14.5678 76.556 14.3998C76.556 13.8238 76.382 13.5058 76.034 13.4458C75.926 13.4218 75.98 13.3318 76.196 13.1758C76.424 13.0078 76.592 12.8998 76.7 12.8518C76.76 12.8278 76.886 12.7678 77.078 12.6718C77.282 12.5638 77.474 12.4858 77.654 12.4378C77.834 12.3778 77.99 12.3598 78.122 12.3838Z" fill="white"></path><path d="M96.8873 12.1318C97.8593 13.5838 98.3453 15.1978 98.3453 16.9738C98.3453 17.1178 98.2073 17.2678 97.9313 17.4238C97.6673 17.5798 97.3613 17.7178 97.0133 17.8378C96.6653 17.9458 96.3893 17.9998 96.1853 17.9998L90.1913 17.9818C89.9753 17.9938 89.8673 17.4958 89.8673 16.4878C89.8673 16.2238 89.8853 15.6238 89.9213 14.6878L89.9573 13.8418C89.9693 13.4098 89.9993 12.3958 90.0473 10.7998C90.1073 9.20382 90.1373 8.08782 90.1373 7.45182C90.1373 6.61182 90.0893 5.93982 89.9933 5.43582C89.9093 4.91982 89.7413 4.48782 89.4893 4.13982C89.3933 4.00782 89.6273 3.88182 90.1913 3.76182C90.7553 3.64182 91.3013 3.58182 91.8293 3.58182H92.4233L97.6253 3.56382L97.6793 3.61782C97.6673 4.42182 97.5113 5.19582 97.2113 5.93982C96.9233 6.68382 96.5093 7.36782 95.9693 7.99182L95.7173 8.24382C95.4653 8.47182 95.2613 8.68182 95.1053 8.87382C94.9613 9.06582 94.8893 9.25782 94.8893 9.44982C94.8893 9.54582 94.9193 9.65382 94.9793 9.77382C95.1593 10.0738 95.4893 10.4878 95.9693 11.0158C96.4013 11.4958 96.7073 11.8678 96.8873 12.1318ZM96.0593 16.9378C96.0473 16.2658 95.8613 15.5098 95.5013 14.6698C95.1533 13.8178 94.6433 12.9958 93.9713 12.2038L93.6113 11.8258C93.3233 11.5378 93.0953 11.2798 92.9273 11.0518C92.7713 10.8238 92.6933 10.5958 92.6933 10.3678C92.6933 10.1638 92.7653 9.97182 92.9093 9.79182C92.9693 9.71982 93.1673 9.49782 93.5033 9.12582C93.8873 8.71782 94.1393 8.42382 94.2593 8.24382C94.8953 7.31982 95.2133 6.16782 95.2133 4.78782C95.2133 4.70382 95.1893 4.65582 95.1413 4.64382C95.0933 4.61982 95.0333 4.61382 94.9613 4.62582C94.9013 4.62582 94.8593 4.62582 94.8353 4.62582H92.3873C92.3993 4.76982 92.4053 4.99182 92.4053 5.29182C92.4053 5.71182 92.3873 6.24582 92.3513 6.89382C92.3393 7.26582 92.3213 8.24382 92.2973 9.82782C92.2733 11.4118 92.2613 12.7258 92.2613 13.7698C92.2613 14.5498 92.2733 15.1858 92.2973 15.6778C92.3333 16.1698 92.4113 16.5898 92.5313 16.9378H96.0593Z" fill="white"></path><path d="M107.062 12.3838C107.506 12.4678 107.728 12.8038 107.728 13.3918C107.728 13.7158 107.674 14.0278 107.566 14.3278C107.338 15.1078 106.942 15.7438 106.378 16.2358C105.802 16.7398 105.13 17.1718 104.362 17.5318C103.606 17.8918 102.886 18.0778 102.202 18.0898C102.154 18.0898 102.118 18.0838 102.094 18.0718C102.034 18.0718 102.004 18.0658 102.004 18.0538C101.92 17.6698 101.788 17.2858 101.608 16.9018C101.428 16.5178 101.194 16.0798 100.906 15.5878C100.462 14.8318 100.162 14.2378 100.006 13.8058C99.5856 12.6418 99.3756 11.5078 99.3756 10.4038C99.3756 9.87582 99.4176 9.38382 99.5016 8.92782C99.6336 8.21982 99.8676 7.55382 100.204 6.92982C100.54 6.29382 100.966 5.75982 101.482 5.32782C102.202 4.75182 103.006 4.30782 103.894 3.99582C104.794 3.67182 105.688 3.52782 106.576 3.56382C106.624 3.56382 106.648 3.61782 106.648 3.72582V3.79782C106.636 4.25382 106.504 4.95582 106.252 5.90382C106 6.83982 105.808 7.46382 105.676 7.77582C105.604 7.95582 105.508 8.04582 105.388 8.04582C105.316 8.04582 105.256 8.00982 105.208 7.93782C105.16 7.85382 105.13 7.74582 105.118 7.61382C105.046 6.46182 104.752 5.47182 104.236 4.64382C103.924 4.73982 103.606 4.90782 103.282 5.14782C102.958 5.37582 102.676 5.68182 102.436 6.06582C102.148 6.54582 101.932 7.07982 101.788 7.66782C101.656 8.24382 101.59 8.83182 101.59 9.43182C101.59 9.62382 101.596 9.76182 101.608 9.84582L101.716 9.77382C102.124 9.53382 102.604 9.35982 103.156 9.25182C103.708 9.14382 104.26 9.08982 104.812 9.08982C105.28 9.08982 105.676 9.12582 106 9.19782C106.336 9.25782 106.504 9.33582 106.504 9.43182C106.504 10.1758 106.114 10.9198 105.334 11.6638C105.166 11.8318 105.04 11.9158 104.956 11.9158C104.836 11.9158 104.758 11.7778 104.722 11.5018C104.614 10.6378 104.038 10.2058 102.994 10.2058C102.562 10.2058 102.112 10.2718 101.644 10.4038C101.764 11.4838 102.082 12.5998 102.598 13.7518L103.174 14.7958C103.702 15.6598 104.038 16.3678 104.182 16.9198C104.338 16.8358 104.548 16.6618 104.812 16.3978C105.148 16.0138 105.37 15.4678 105.478 14.7598C105.49 14.6878 105.496 14.5678 105.496 14.3998C105.496 13.8238 105.322 13.5058 104.974 13.4458C104.866 13.4218 104.92 13.3318 105.136 13.1758C105.364 13.0078 105.532 12.8998 105.64 12.8518C105.7 12.8278 105.826 12.7678 106.018 12.6718C106.222 12.5638 106.414 12.4858 106.594 12.4378C106.774 12.3778 106.93 12.3598 107.062 12.3838Z" fill="white"></path><path d="M115.197 12.1678C115.305 12.1798 115.239 12.2698 114.999 12.4378C114.771 12.6058 114.615 12.7138 114.531 12.7618C113.955 13.0738 113.499 13.2298 113.163 13.2298C112.767 13.2298 112.455 13.1398 112.227 12.9598C111.999 12.7678 111.885 12.5158 111.885 12.2038C111.885 12.0718 111.915 11.9038 111.975 11.6998C112.035 11.5198 112.107 11.3638 112.191 11.2318C112.287 11.0998 112.419 10.9498 112.587 10.7818C113.079 10.3258 113.487 9.80982 113.811 9.23382C114.135 8.64582 114.381 8.00982 114.549 7.32582C114.729 6.64182 114.819 5.95182 114.819 5.25582C114.819 5.00382 114.813 4.81782 114.801 4.69782H111.669C111.681 5.08182 111.675 5.62182 111.651 6.31782C111.639 6.48582 111.633 6.69582 111.633 6.94782L111.615 7.86582C111.615 8.98182 111.621 9.86982 111.633 10.5298L111.651 13.2118V13.8238C111.651 14.8078 111.681 15.6058 111.741 16.2178C111.801 16.8298 111.945 17.2978 112.173 17.6218C112.281 17.7538 112.059 17.8798 111.507 17.9998C110.955 18.1078 110.415 18.1618 109.887 18.1618L109.581 18.1438C109.365 18.1318 109.257 17.6398 109.257 16.6678C109.257 16.1518 109.275 15.6778 109.311 15.2458L109.329 14.7418C109.341 13.8298 109.353 12.6658 109.365 11.2498C109.389 9.82182 109.401 8.56782 109.401 7.48782C109.401 6.65982 109.353 5.98782 109.257 5.47182C109.173 4.94382 109.011 4.51182 108.771 4.17582C108.675 4.04382 108.903 3.91782 109.455 3.79782C110.019 3.67782 110.559 3.62382 111.075 3.63582H117.087C117.363 3.63582 117.501 3.71382 117.501 3.86982C117.501 5.26182 117.273 6.38382 116.817 7.23582C116.373 8.08782 115.989 8.68782 115.665 9.03582C115.341 9.38382 115.149 9.58782 115.089 9.64782L114.801 9.91782C114.537 10.1578 114.357 10.3798 114.261 10.5838C114.165 10.7878 114.117 11.0038 114.117 11.2318C114.117 11.5078 114.207 11.7298 114.387 11.8978C114.579 12.0658 114.849 12.1558 115.197 12.1678Z" fill="white"></path><path d="M126.22 12.3838C126.664 12.4678 126.886 12.8038 126.886 13.3918C126.886 13.7158 126.832 14.0278 126.724 14.3278C126.496 15.1078 126.1 15.7438 125.536 16.2358C124.96 16.7398 124.288 17.1718 123.52 17.5318C122.764 17.8918 122.044 18.0778 121.36 18.0898C121.312 18.0898 121.276 18.0838 121.252 18.0718C121.192 18.0718 121.162 18.0658 121.162 18.0538C121.078 17.6698 120.946 17.2858 120.766 16.9018C120.586 16.5178 120.352 16.0798 120.064 15.5878C119.62 14.8318 119.32 14.2378 119.164 13.8058C118.744 12.6418 118.534 11.5078 118.534 10.4038C118.534 9.87582 118.576 9.38382 118.66 8.92782C118.792 8.21982 119.026 7.55382 119.362 6.92982C119.698 6.29382 120.124 5.75982 120.64 5.32782C121.36 4.75182 122.164 4.30782 123.052 3.99582C123.952 3.67182 124.846 3.52782 125.734 3.56382C125.782 3.56382 125.806 3.61782 125.806 3.72582V3.79782C125.794 4.25382 125.662 4.95582 125.41 5.90382C125.158 6.83982 124.966 7.46382 124.834 7.77582C124.762 7.95582 124.666 8.04582 124.546 8.04582C124.474 8.04582 124.414 8.00982 124.366 7.93782C124.318 7.85382 124.288 7.74582 124.276 7.61382C124.204 6.46182 123.91 5.47182 123.394 4.64382C123.082 4.73982 122.764 4.90782 122.44 5.14782C122.116 5.37582 121.834 5.68182 121.594 6.06582C121.306 6.54582 121.09 7.07982 120.946 7.66782C120.814 8.24382 120.748 8.83182 120.748 9.43182C120.748 9.62382 120.754 9.76182 120.766 9.84582L120.874 9.77382C121.282 9.53382 121.762 9.35982 122.314 9.25182C122.866 9.14382 123.418 9.08982 123.97 9.08982C124.438 9.08982 124.834 9.12582 125.158 9.19782C125.494 9.25782 125.662 9.33582 125.662 9.43182C125.662 10.1758 125.272 10.9198 124.492 11.6638C124.324 11.8318 124.198 11.9158 124.114 11.9158C123.994 11.9158 123.916 11.7778 123.88 11.5018C123.772 10.6378 123.196 10.2058 122.152 10.2058C121.72 10.2058 121.27 10.2718 120.802 10.4038C120.922 11.4838 121.24 12.5998 121.756 13.7518L122.332 14.7958C122.86 15.6598 123.196 16.3678 123.34 16.9198C123.496 16.8358 123.706 16.6618 123.97 16.3978C124.306 16.0138 124.528 15.4678 124.636 14.7598C124.648 14.6878 124.654 14.5678 124.654 14.3998C124.654 13.8238 124.48 13.5058 124.132 13.4458C124.024 13.4218 124.078 13.3318 124.294 13.1758C124.522 13.0078 124.69 12.8998 124.798 12.8518C124.858 12.8278 124.984 12.7678 125.176 12.6718C125.38 12.5638 125.572 12.4858 125.752 12.4378C125.932 12.3778 126.088 12.3598 126.22 12.3838Z" fill="white"></path><path d="M137.487 3.63582C137.667 3.63582 137.757 3.67182 137.757 3.74382C137.757 4.35582 137.637 5.12982 137.397 6.06582C137.169 6.98982 136.971 7.66782 136.803 8.09982C136.731 8.26782 136.635 8.35182 136.515 8.35182C136.443 8.35182 136.377 8.31582 136.317 8.24382C136.269 8.17182 136.239 8.06382 136.227 7.91982C136.155 6.77982 135.813 5.69982 135.201 4.67982H134.049C134.061 4.82382 134.067 5.04582 134.067 5.34582C134.067 5.76582 134.049 6.29982 134.013 6.94782C134.001 7.33182 133.983 8.38782 133.959 10.1158C133.935 11.8318 133.923 13.1578 133.923 14.0938C133.923 14.9938 133.953 15.7318 134.013 16.3078C134.073 16.8838 134.217 17.3218 134.445 17.6218C134.541 17.7538 134.313 17.8798 133.761 17.9998C133.221 18.1078 132.687 18.1618 132.159 18.1618L131.853 18.1438C131.637 18.1318 131.529 17.6098 131.529 16.5778C131.529 16.2898 131.547 15.6778 131.583 14.7418L131.619 13.9138C131.631 13.4698 131.661 12.4498 131.709 10.8538C131.769 9.25782 131.799 8.13582 131.799 7.48782C131.799 6.82782 131.769 6.28182 131.709 5.84982C131.661 5.40582 131.565 5.01582 131.421 4.67982H130.287C129.783 5.85582 129.501 6.93582 129.441 7.91982C129.429 8.20782 129.339 8.35182 129.171 8.35182C129.051 8.35182 128.955 8.26782 128.883 8.09982C128.703 7.60782 128.493 6.97182 128.253 6.19182C128.025 5.39982 127.911 4.78782 127.911 4.35582C127.911 4.15182 128.127 3.99582 128.559 3.88782C128.991 3.77982 129.477 3.70782 130.017 3.67182C130.557 3.63582 130.827 3.62382 130.827 3.63582H137.487Z" fill="white"></path><path d="M146.468 12.3838C146.912 12.4678 147.134 12.8038 147.134 13.3918C147.134 13.7158 147.08 14.0278 146.972 14.3278C146.744 15.1078 146.348 15.7438 145.784 16.2358C145.208 16.7398 144.536 17.1718 143.768 17.5318C143.012 17.8918 142.292 18.0778 141.608 18.0898C141.56 18.0898 141.524 18.0838 141.5 18.0718C141.44 18.0718 141.41 18.0658 141.41 18.0538C141.326 17.6698 141.194 17.2858 141.014 16.9018C140.834 16.5178 140.6 16.0798 140.312 15.5878C139.868 14.8318 139.568 14.2378 139.412 13.8058C138.992 12.6418 138.782 11.5078 138.782 10.4038C138.782 9.87582 138.824 9.38382 138.908 8.92782C139.04 8.21982 139.274 7.55382 139.61 6.92982C139.946 6.29382 140.372 5.75982 140.888 5.32782C141.608 4.75182 142.412 4.30782 143.3 3.99582C144.2 3.67182 145.094 3.52782 145.982 3.56382C146.03 3.56382 146.054 3.61782 146.054 3.72582V3.79782C146.042 4.25382 145.91 4.95582 145.658 5.90382C145.406 6.83982 145.214 7.46382 145.082 7.77582C145.01 7.95582 144.914 8.04582 144.794 8.04582C144.722 8.04582 144.662 8.00982 144.614 7.93782C144.566 7.85382 144.536 7.74582 144.524 7.61382C144.452 6.46182 144.158 5.47182 143.642 4.64382C143.33 4.73982 143.012 4.90782 142.688 5.14782C142.364 5.37582 142.082 5.68182 141.842 6.06582C141.554 6.54582 141.338 7.07982 141.194 7.66782C141.062 8.24382 140.996 8.83182 140.996 9.43182C140.996 9.62382 141.002 9.76182 141.014 9.84582L141.122 9.77382C141.53 9.53382 142.01 9.35982 142.562 9.25182C143.114 9.14382 143.666 9.08982 144.218 9.08982C144.686 9.08982 145.082 9.12582 145.406 9.19782C145.742 9.25782 145.91 9.33582 145.91 9.43182C145.91 10.1758 145.52 10.9198 144.74 11.6638C144.572 11.8318 144.446 11.9158 144.362 11.9158C144.242 11.9158 144.164 11.7778 144.128 11.5018C144.02 10.6378 143.444 10.2058 142.4 10.2058C141.968 10.2058 141.518 10.2718 141.05 10.4038C141.17 11.4838 141.488 12.5998 142.004 13.7518L142.58 14.7958C143.108 15.6598 143.444 16.3678 143.588 16.9198C143.744 16.8358 143.954 16.6618 144.218 16.3978C144.554 16.0138 144.776 15.4678 144.884 14.7598C144.896 14.6878 144.902 14.5678 144.902 14.3998C144.902 13.8238 144.728 13.5058 144.38 13.4458C144.272 13.4218 144.326 13.3318 144.542 13.1758C144.77 13.0078 144.938 12.8998 145.046 12.8518C145.106 12.8278 145.232 12.7678 145.424 12.6718C145.628 12.5638 145.82 12.4858 146 12.4378C146.18 12.3778 146.336 12.3598 146.468 12.3838Z" fill="white"></path><path d="M156.853 17.6218C156.949 17.7538 156.721 17.8798 156.169 17.9998C155.629 18.1078 155.095 18.1618 154.567 18.1618L154.261 18.1438C154.045 18.1318 153.937 17.6278 153.937 16.6318C153.937 16.3438 153.955 15.7138 153.991 14.7418C154.051 13.1578 154.087 12.0058 154.099 11.2858H150.859C150.847 12.1498 150.841 13.0858 150.841 14.0938C150.841 14.9938 150.871 15.7318 150.931 16.3078C150.991 16.8838 151.135 17.3218 151.363 17.6218C151.459 17.7538 151.231 17.8798 150.679 17.9998C150.139 18.1078 149.605 18.1618 149.077 18.1618L148.771 18.1438C148.555 18.1318 148.447 17.6098 148.447 16.5778C148.447 16.2898 148.465 15.6778 148.501 14.7418L148.537 13.9138C148.549 13.4698 148.579 12.4498 148.627 10.8538C148.687 9.25782 148.717 8.13582 148.717 7.48782C148.717 6.63582 148.687 6.04182 148.627 5.70582C148.579 5.35782 148.429 5.01582 148.177 4.67982C148.105 4.57182 148.219 4.42182 148.519 4.22982C148.819 4.03782 149.179 3.86982 149.599 3.72582C150.031 3.56982 150.385 3.50382 150.661 3.52782C150.877 3.53982 150.985 4.07382 150.985 5.12982C150.985 5.38182 150.961 5.98782 150.913 6.94782L150.877 10.2238H154.135L154.189 7.21782C154.189 6.48582 154.159 5.95782 154.099 5.63382C154.051 5.30982 153.907 4.99182 153.667 4.67982C153.595 4.57182 153.703 4.42182 153.991 4.22982C154.291 4.03782 154.651 3.86982 155.071 3.72582C155.503 3.56982 155.857 3.50382 156.133 3.52782C156.349 3.53982 156.457 4.10382 156.457 5.21982C156.457 5.68782 156.439 6.26382 156.403 6.94782L156.313 13.8238C156.313 14.8078 156.343 15.6058 156.403 16.2178C156.463 16.8298 156.613 17.2978 156.853 17.6218Z" fill="white"></path><path d="M166.077 7.72182C166.485 8.71782 166.689 9.75582 166.689 10.8358C166.689 11.0158 166.677 11.2738 166.653 11.6098C166.533 13.0138 166.155 14.1598 165.519 15.0478C164.799 16.0558 163.737 16.8838 162.333 17.5318C162.033 17.7118 161.655 17.8678 161.199 17.9998C160.755 18.1438 160.527 18.1798 160.515 18.1078C160.407 17.7118 160.263 17.3338 160.083 16.9738C159.903 16.6018 159.669 16.1638 159.381 15.6598C158.913 14.8438 158.583 14.1778 158.391 13.6618C158.067 12.8218 157.905 11.9098 157.905 10.9258C157.905 10.5058 157.929 10.1278 157.977 9.79182C158.169 8.25582 158.601 7.05582 159.273 6.19182C159.777 5.54382 160.413 5.00382 161.181 4.57182C161.949 4.13982 162.789 3.80982 163.701 3.58182C163.797 3.55782 163.869 3.54582 163.917 3.54582C164.025 3.54582 164.085 3.55782 164.097 3.58182C164.193 3.96582 164.325 4.33782 164.493 4.69782C164.661 5.04582 164.901 5.48982 165.213 6.02982C165.273 6.13782 165.399 6.36582 165.591 6.71382C165.783 7.06182 165.945 7.39782 166.077 7.72182ZM163.953 14.7238C164.301 13.8238 164.475 12.8578 164.475 11.8258C164.475 10.5418 164.181 9.29982 163.593 8.09982C163.401 7.71582 163.203 7.36182 162.999 7.03782C162.951 6.95382 162.843 6.76182 162.675 6.46182C162.507 6.14982 162.357 5.86182 162.225 5.59782C162.105 5.32182 162.009 5.06382 161.937 4.82382C161.781 4.95582 161.649 5.09382 161.541 5.23782C161.193 5.69382 160.923 6.17382 160.731 6.67782C160.335 7.69782 160.137 8.81382 160.137 10.0258C160.137 11.2138 160.401 12.3538 160.929 13.4458C161.025 13.6378 161.247 14.0458 161.595 14.6698C161.787 15.0058 161.979 15.3598 162.171 15.7318C162.363 16.1038 162.513 16.4518 162.621 16.7758C163.161 16.2838 163.605 15.5998 163.953 14.7238Z" fill="white"></path></svg> 