<?xml version="1.0" encoding="UTF-8"?> <svg xmlns="http://www.w3.org/2000/svg" width="128" height="142" viewBox="0 0 128 142" fill="none"><path d="M24.2872 98.664L24.8452 53.0044C24.9692 45.4409 21.9314 39.0864 15.7319 33.9408C25.3412 28.3612 34.9504 22.7196 44.5597 17.016C54.231 11.3125 63.9333 5.63987 73.6666 -0.00170898C82.6559 3.40804 90.9013 7.34475 98.4027 11.8084C105.904 16.2721 113.096 20.9837 119.977 25.9434C112.91 30.655 105.656 35.6457 98.2168 40.9153C124.937 61.5597 133.306 80.0344 123.325 96.3391C113.406 112.644 92.9471 127.74 61.9494 141.627C53.7661 134.373 44.6527 128.453 34.6095 123.865C24.5662 119.277 13.2521 116.612 0.666992 115.868L24.2872 98.664ZM83.3379 37.0095C74.6585 30.562 65.0802 25.8194 54.603 22.7816L54.417 56.6311L83.3379 37.0095ZM54.324 65.6514L54.138 90.5736L44.7457 96.3391C52.4332 100.183 59.7486 104.306 66.6921 108.707C73.6976 113.047 79.1842 117.201 83.1519 121.168C92.1412 113.295 97.0388 105.235 97.8448 96.9901C98.6507 88.6827 97.0078 81.5222 92.9162 75.5087C88.8865 69.4951 83.2139 65.3414 75.8984 63.0476C68.645 60.7538 61.4535 61.6217 54.324 65.6514Z" fill="#DF2038"></path></svg> 