<?xml version="1.0" encoding="UTF-8"?> <svg xmlns="http://www.w3.org/2000/svg" width="50" height="50" viewBox="0 0 50 50" fill="none"><g clip-path="url(#clip0_3390_46)"><path fill-rule="evenodd" clip-rule="evenodd" d="M40.8469 7.43548L22.0749 7.43748C21.5869 7.43748 21.1909 7.83148 21.1909 8.32048C21.1909 8.80848 21.5869 9.20248 22.0749 9.20248H40.8459L40.1829 9.86748C39.8379 10.2135 39.8399 10.7715 40.1829 11.1175C40.3559 11.2875 40.5829 11.3745 40.8079 11.3745C41.0329 11.3745 41.2599 11.2875 41.4329 11.1145L43.6009 8.94248C43.9469 8.59748 43.9439 8.03848 43.6009 7.69548L41.4309 5.52348C41.0869 5.17948 40.5289 5.17948 40.1829 5.52348C39.8379 5.86948 39.8379 6.42848 40.1829 6.77348L40.8469 7.43548ZM32.0989 14.9305C33.1029 14.5165 34.2519 14.9925 34.6629 15.9895L38.3099 24.8765L38.8559 26.1725C39.6439 28.0125 40.3869 29.7515 40.6019 31.7845C40.7569 33.2395 40.7809 34.8125 40.8029 36.3315C40.8339 38.3405 40.8629 40.2535 41.1679 41.9295L26.3169 48.0845C23.8719 45.7875 22.3749 44.7495 21.1619 43.9055C19.7669 42.9365 18.7599 42.2375 16.9399 40.1295C16.1039 39.1635 15.2459 37.9095 14.4139 36.6965C13.3959 35.2135 12.4349 33.8105 11.4849 32.8485C10.5169 31.8695 9.64188 30.2525 9.92188 29.5535C10.1569 28.9775 11.3379 29.1035 11.8349 29.1825C12.4719 29.2865 13.6999 29.6205 14.7629 30.6765L14.9349 30.8475C15.2329 31.1405 16.0009 31.8835 16.1349 32.2405L16.6739 33.5395C16.8139 33.8795 17.1419 34.0845 17.4869 34.0845C17.6019 34.0845 17.7169 34.0625 17.8249 34.0185C18.2769 33.8315 18.4899 33.3145 18.3039 32.8655L8.06688 8.15648C7.62588 7.08448 8.13588 5.85048 9.20888 5.40648C10.2759 4.96248 11.5189 5.47748 11.9599 6.54548L19.1329 23.8585C19.3199 24.3105 19.8359 24.5215 20.2869 24.3365C20.7369 24.1495 20.9499 23.6355 20.7629 23.1835L18.1549 16.8845C17.9419 16.3685 17.9439 15.7975 18.1589 15.2755C18.3759 14.7535 18.7799 14.3465 19.2939 14.1345C19.8109 13.9215 20.3809 13.9215 20.9039 14.1365C21.4259 14.3535 21.8319 14.7575 22.0469 15.2715L24.9179 22.2055C25.1029 22.6555 25.6229 22.8685 26.0699 22.6815C26.5219 22.4965 26.7349 21.9795 26.5479 21.5305L24.7279 17.1335C24.3139 16.1325 24.7909 14.9835 25.7909 14.5675C26.7879 14.1575 27.9409 14.6335 28.3549 15.6305L30.3859 20.5355C30.5709 20.9855 31.0889 21.2005 31.5399 21.0115C31.9899 20.8265 32.2029 20.3095 32.0159 19.8595L31.0399 17.4975C30.6239 16.4955 31.0989 15.3465 32.0989 14.9305ZM36.2939 15.3165C35.5109 13.4175 33.3199 12.5155 31.4239 13.2995C30.7429 13.5825 30.1959 14.0485 29.8019 14.6135C28.8899 12.9315 26.8869 12.2025 25.1119 12.9375C24.4309 13.2195 23.8849 13.6875 23.4909 14.2515C23.0709 13.4695 22.4149 12.8495 21.5779 12.5035C20.6219 12.1085 19.5679 12.1085 18.6189 12.5025C17.9169 12.7935 17.3319 13.2755 16.9119 13.8905L13.5909 5.87048C12.7769 3.90148 10.5009 2.95648 8.53388 3.77448C6.55988 4.59248 5.61988 6.86048 6.43788 8.83248L14.5059 28.3065C13.7669 27.8845 12.9609 27.5775 12.1209 27.4385C9.46888 27.0045 8.57788 28.1655 8.28488 28.8975C7.55688 30.7125 9.23888 33.0895 10.2299 34.0895C11.0699 34.9395 11.9879 36.2775 12.9589 37.6945C13.8169 38.9465 14.7049 40.2425 15.6049 41.2825C17.5719 43.5595 18.7109 44.3535 20.1539 45.3555C21.4489 46.2565 22.9209 47.2785 25.5189 49.7565C25.6849 49.9165 25.9039 50.0005 26.1269 50.0005C26.2389 50.0005 26.3559 49.9785 26.4649 49.9345L42.5209 43.2815C42.9249 43.1145 43.1459 42.6785 43.0409 42.2565C42.6349 40.6025 42.6029 38.5155 42.5689 36.3075C42.5449 34.7455 42.5209 33.1325 42.3579 31.5975C42.1149 29.3005 41.3209 27.4445 40.4799 25.4785L36.2939 15.3165ZM16.6589 2.43148C16.3149 2.77548 16.3149 3.33648 16.6589 3.67948L18.8289 5.85148C19.1709 6.19548 19.7359 6.19548 20.0789 5.85148C20.4229 5.50848 20.4229 4.94948 20.0789 4.60348L19.4139 3.93848H38.1869C38.6749 3.93848 39.0709 3.54248 39.0709 3.05448C39.0709 2.56848 38.6749 2.17248 38.1869 2.17248H19.4139L20.0789 1.50748C20.4229 1.16348 20.4229 0.605477 20.0789 0.260477C19.7329 -0.0855234 19.1729 -0.0855234 18.8289 0.260477L16.6589 2.43148Z" fill="white"></path></g><defs><clipPath id="clip0_3390_46"><rect width="50" height="50" fill="white"></rect></clipPath></defs></svg> 