<?xml version="1.0" encoding="UTF-8"?> <svg xmlns="http://www.w3.org/2000/svg" width="28" height="28" viewBox="0 0 28 28" fill="none"><g clip-path="url(#clip0_3290_9)"><path d="M14.083 0C6.48909 0 0.333008 6.15608 0.333008 13.75C0.333008 21.3439 6.48909 27.5 14.083 27.5C21.6769 27.5 27.833 21.3439 27.833 13.75C27.833 6.15608 21.6769 0 14.083 0ZM21.2297 8.69773L18.7876 20.3564C18.7581 20.4975 18.6935 20.6288 18.6 20.7384C18.5065 20.8479 18.3869 20.9322 18.2522 20.9835C18.1176 21.0348 17.9722 21.0515 17.8295 21.0319C17.6868 21.0124 17.5512 20.9573 17.4353 20.8717L13.8831 18.2473L11.731 20.2776C11.7028 20.3042 11.6697 20.3249 11.6334 20.3385C11.5971 20.3521 11.5585 20.3584 11.5198 20.3569C11.4811 20.3554 11.4431 20.3462 11.408 20.3299C11.3729 20.3136 11.3414 20.2904 11.3153 20.2618L11.269 20.211L11.643 16.5922L18.3828 10.4342C18.4162 10.4038 18.4369 10.362 18.4409 10.3171C18.445 10.2721 18.432 10.2273 18.4046 10.1915C18.3772 10.1556 18.3374 10.1313 18.293 10.1234C18.2486 10.1155 18.2028 10.1245 18.1647 10.1486L9.54524 15.604L5.83301 14.3573C5.7343 14.3242 5.64827 14.2613 5.58673 14.1773C5.52518 14.0933 5.49113 13.9923 5.48924 13.8882C5.48736 13.7841 5.51774 13.6819 5.57621 13.5958C5.63468 13.5096 5.71838 13.4437 5.81582 13.4069L20.3403 7.93547C20.4524 7.89331 20.5737 7.88202 20.6916 7.90278C20.8095 7.92354 20.9196 7.9756 21.0105 8.0535C21.1014 8.1314 21.1697 8.23229 21.2083 8.34562C21.2468 8.45895 21.2543 8.58056 21.2297 8.69773Z" fill="white"></path></g><defs><clipPath id="clip0_3290_9"><rect width="27.5" height="27.5" fill="white" transform="translate(0.333008)"></rect></clipPath></defs></svg> 