<?xml version="1.0" encoding="UTF-8"?> <svg xmlns="http://www.w3.org/2000/svg" width="29" height="28" viewBox="0 0 29 28" fill="none"><g clip-path="url(#clip0_3290_11)"><path d="M14.416 0C6.8221 0 0.666016 6.15608 0.666016 13.75C0.666016 21.3439 6.8221 27.5 14.416 27.5C22.0099 27.5 28.166 21.3439 28.166 13.75C28.166 6.15608 22.0099 0 14.416 0ZM21.7402 18.4175H19.9954C19.8064 18.4177 19.6198 18.3753 19.4495 18.2935C19.2792 18.2117 19.1295 18.0925 19.0115 17.9448C18.4883 17.2879 17.4575 16.1231 16.3751 15.6227C16.3124 15.5934 16.2434 15.5803 16.1743 15.5847C16.1052 15.5892 16.0384 15.6109 15.9799 15.648C15.9215 15.6851 15.8733 15.7363 15.8399 15.7969C15.8065 15.8576 15.7889 15.9256 15.7888 15.9948V17.7205C15.7888 17.812 15.7708 17.9026 15.7358 17.9872C15.7008 18.0718 15.6495 18.1486 15.5848 18.2133C15.5201 18.278 15.4432 18.3294 15.3587 18.3644C15.2741 18.3995 15.1835 18.4175 15.092 18.4175H14.2852C13.236 18.4175 10.9766 17.7788 9.17625 15.1562C7.64226 12.9218 6.95847 11.1902 6.55972 9.78619C6.53653 9.7039 6.53274 9.61736 6.54863 9.53335C6.56452 9.44935 6.59966 9.37018 6.65129 9.30204C6.70293 9.2339 6.76965 9.17866 6.84623 9.14064C6.9228 9.10263 7.00715 9.08288 7.09264 9.08295H8.85769C9.03378 9.0828 9.20522 9.13949 9.34651 9.24459C9.48779 9.3497 9.59138 9.4976 9.64187 9.6663C9.97009 10.7641 10.8202 13.1323 12.323 14.3115C12.3688 14.3477 12.4238 14.3702 12.4818 14.3765C12.5398 14.3828 12.5984 14.3726 12.6509 14.3472C12.7034 14.3217 12.7477 14.282 12.7787 14.2326C12.8097 14.1832 12.8262 14.126 12.8263 14.0677V11.3034C12.8263 10.7571 12.5895 10.2106 12.22 9.78339C12.1667 9.72213 12.1322 9.64684 12.1206 9.56651C12.109 9.48618 12.1207 9.40419 12.1543 9.33033C12.188 9.25647 12.2422 9.19385 12.3105 9.14994C12.3787 9.10603 12.4582 9.08268 12.5394 9.08268H15.2607C15.4008 9.08268 15.5352 9.13834 15.6343 9.23743C15.7334 9.33651 15.7891 9.4709 15.7891 9.61104V13.3345C15.7891 13.3884 15.8039 13.4413 15.832 13.4873C15.86 13.5334 15.9002 13.5708 15.9481 13.5955C15.996 13.6202 16.0498 13.6313 16.1036 13.6275C16.1573 13.6236 16.209 13.6051 16.2529 13.5739C16.7524 13.2183 17.1802 12.693 17.5737 12.1026C18.0689 11.3599 18.6733 10.1321 18.9764 9.49497C19.0351 9.37153 19.1276 9.26726 19.2431 9.19426C19.3586 9.12126 19.4925 9.08251 19.6292 9.08252H21.5542C21.6346 9.08249 21.7136 9.10298 21.7839 9.14206C21.8541 9.18114 21.9132 9.23751 21.9556 9.30583C21.9979 9.37415 22.0221 9.45216 22.0259 9.53245C22.0297 9.61275 22.0128 9.69267 21.9771 9.76465C21.4913 10.739 20.5452 12.5264 19.6549 13.575C19.5274 13.7258 19.465 13.921 19.4814 14.1178C19.4977 14.3146 19.5915 14.4968 19.742 14.6245C20.3224 15.1204 21.2284 16.0371 22.2052 17.5641C22.2591 17.6476 22.2894 17.7442 22.2931 17.8436C22.2968 17.9429 22.2736 18.0415 22.226 18.1288C22.1784 18.2161 22.1082 18.289 22.0227 18.3398C21.9372 18.3906 21.8396 18.4174 21.7402 18.4175Z" fill="white"></path></g><defs><clipPath id="clip0_3290_11"><rect width="27.5" height="27.5" fill="white" transform="translate(0.666016)"></rect></clipPath></defs></svg> 