<?xml version="1.0" encoding="UTF-8"?> <svg xmlns="http://www.w3.org/2000/svg" width="13" height="10" viewBox="0 0 13 10" fill="none"><path d="M1.05331 0.328526C0.776211 0.561459 0.776211 1.01362 1.05331 0.835498C1.10609 0.794393 1.36999 1.06843 1.63389 1.45209C1.89779 1.82204 2.05613 2.13718 2.00335 2.13718C1.93737 2.13718 1.76584 2.2468 1.6075 2.37012C1.44916 2.50714 1.19845 2.72637 1.02692 2.86339L0.723431 3.11002L1.11928 3.84993C1.3304 4.26099 1.55472 4.60354 1.6075 4.60354C1.67347 4.60354 1.51513 4.93238 1.25123 5.31604C1.00053 5.71339 0.789406 6.11075 0.789406 6.19296C0.789406 6.32998 1.3304 6.82325 1.88459 7.22061C2.05613 7.34393 1.15887 8.5634 0.894966 8.5634C0.525505 8.5771 0.61787 8.81004 1.0797 9.04297C1.40957 9.22109 1.51513 9.2348 1.5943 9.09778C1.66028 9.00186 1.64708 8.89225 1.58111 8.85114C1.51513 8.81004 1.69986 8.46749 1.97696 8.09753C2.26725 7.71388 2.50476 7.34393 2.50476 7.26171C2.50476 7.1795 2.24086 6.91917 1.89779 6.67253C1.56791 6.4259 1.31721 6.17926 1.3436 6.13815C1.36999 6.08335 1.47555 5.87782 1.56791 5.65859C1.80542 5.19272 1.95057 5.19272 2.47837 5.64488C2.97978 6.08335 2.90061 6.37109 2.386 5.97373C2.04293 5.7271 1.84501 5.7271 1.84501 5.97373C1.84501 6.02854 2.04293 6.23407 2.29364 6.4396C2.74227 6.78215 2.75547 6.78215 3.04576 6.53551C3.30966 6.31628 3.37563 6.31628 3.53397 6.467C3.62634 6.57662 3.75829 6.65883 3.82426 6.65883C3.9826 6.65883 4.74792 5.87782 4.74792 5.71339C4.74792 5.46676 4.45763 5.53527 4.12775 5.86412C3.63953 6.34368 3.59995 6.01484 4.08816 5.49416L4.5368 5.01459L4.93265 5.42565L5.3285 5.83671L4.77431 6.4259C4.47082 6.74104 4.22011 7.05619 4.22011 7.1247C4.22011 7.1795 4.54999 7.59056 4.94584 8.02902C5.35489 8.46749 5.65837 8.89225 5.64518 8.98816C5.5792 9.30331 5.88269 9.2759 6.25215 8.91965C6.45008 8.72782 6.6612 8.5771 6.72717 8.5771C6.95149 8.5771 7.91472 7.31652 7.80916 7.1521C7.65082 6.86436 6.63481 5.97373 6.47647 5.97373C6.29174 5.97373 5.61879 6.63142 5.42086 7.02878C5.28891 7.30282 5.3285 7.41244 5.81671 7.96051C6.56883 8.81004 6.31813 8.74153 5.42086 7.8372L4.66875 7.11099L5.23613 6.57662C5.53962 6.27517 5.79032 5.97373 5.79032 5.90522C5.80352 5.82301 5.63198 5.54897 5.40767 5.28863C5.19655 5.0283 5.02501 4.74056 5.02501 4.67205C5.02501 4.58983 5.19655 4.31579 5.40767 4.05546C5.63198 3.79512 5.80352 3.52108 5.80352 3.42517C5.80352 3.34296 5.53962 3.01411 5.22294 2.71267L4.64236 2.16459L5.35489 1.43838C6.1202 0.657373 6.31813 0.629969 5.67157 1.41098C5.46045 1.65762 5.27572 1.95906 5.27572 2.05497C5.27572 2.2605 6.3841 3.37036 6.59522 3.37036C6.81954 3.37036 7.78277 2.39752 7.78277 2.16459C7.78277 2.05497 7.55846 1.67132 7.29456 1.32877C6.75356 0.629969 6.93829 0.753287 7.80916 1.65762L8.37655 2.2468L7.88833 2.76747C7.61124 3.05521 7.38692 3.39776 7.38692 3.52108C7.38692 3.6444 7.55846 3.94584 7.76958 4.20618L8.15224 4.65834L7.7036 5.20642C7.4529 5.50786 7.25497 5.80931 7.25497 5.89152C7.25497 5.97373 7.53207 6.28888 7.84875 6.59032L8.44253 7.1384L7.62443 7.98792C6.83273 8.81004 6.81954 8.85114 7.05705 9.05667C7.40012 9.31701 7.51887 9.31701 7.51887 9.04297C7.51887 8.91965 7.82236 8.48119 8.17863 8.07013C8.75921 7.41244 9.02311 6.80955 8.74601 6.79585C8.68004 6.79585 8.44253 6.60402 8.20502 6.38479L7.76958 5.97373L8.12585 5.48046L8.48211 5.00089L8.95713 5.48046C9.47174 6.01484 9.41896 6.34368 8.90435 5.83671C8.64045 5.59008 8.53489 5.54897 8.41614 5.67229C8.29738 5.79561 8.36336 5.93263 8.70643 6.24777C9.24742 6.71364 9.43215 6.75474 9.61688 6.41219C9.73564 6.19296 9.76203 6.19296 9.93356 6.4396C10.1051 6.67253 10.1711 6.68623 10.5273 6.53551C11.0419 6.31628 11.4114 5.90522 11.2135 5.7682C11.1343 5.71339 10.9232 5.7819 10.7385 5.90522C10.1711 6.28888 10.1315 5.97373 10.6989 5.53527C10.9892 5.31604 11.2531 5.15161 11.2663 5.17902C11.5829 5.67229 11.7413 5.98743 11.7413 6.08335C11.7413 6.13815 11.4774 6.38479 11.1475 6.63142C10.8176 6.86436 10.5537 7.1247 10.5537 7.20691C10.5537 7.28912 10.7649 7.68648 11.0288 8.09753C11.2927 8.49489 11.4642 8.89225 11.4246 8.97446C11.2663 9.22109 11.5961 9.2759 11.9392 9.04297C12.2955 8.79633 12.3746 8.5771 12.1107 8.5634C12.0184 8.5634 11.7281 8.27566 11.4642 7.91941L10.9892 7.27542L11.5829 6.87806C11.8996 6.65883 12.1899 6.39849 12.2295 6.27517C12.3219 6.05594 11.9392 5.23383 11.5961 4.86387C11.385 4.64464 11.3982 4.60354 11.7413 4.16507C12.3878 3.35666 12.3746 3.06892 11.7149 2.53454C11.3982 2.28791 11.1211 2.06867 11.0947 2.05497C11.0024 1.98646 11.9392 0.904008 12.0976 0.904008C12.401 0.904008 12.4142 0.616267 12.1239 0.342228C11.7413 -0.000320748 11.4378 -0.000320748 11.5434 0.342228C11.5961 0.506652 11.4642 0.780691 11.1475 1.17805C10.5669 1.90425 10.5933 2.20569 11.2927 2.75377C11.8205 3.17853 11.8336 3.19223 11.5961 3.47998C11.4774 3.6444 11.3454 3.86363 11.3058 3.95954C11.2795 4.06916 11.0815 4.00065 10.6989 3.74031C10.3954 3.53478 10.1843 3.30185 10.2239 3.21964C10.3162 3.08262 10.4746 3.15113 10.8176 3.45257C10.9496 3.56219 11.0947 3.58959 11.2135 3.50738C11.3586 3.41147 11.3322 3.34296 11.0683 3.11002C10.4614 2.56194 10.3162 2.52084 10.0391 2.80858C9.81481 3.04151 9.76203 3.05521 9.61688 2.87709C9.37937 2.58935 9.19464 2.64416 8.71962 3.15113C8.21821 3.6855 8.38975 4.01435 8.90435 3.50738C9.07589 3.34296 9.28701 3.24704 9.36618 3.30185C9.45854 3.37036 9.33979 3.56219 9.00991 3.86363L8.5085 4.3295L8.15224 3.89103L7.79597 3.43887L8.32377 2.9182C8.60087 2.63045 8.83838 2.32901 8.83838 2.2331C8.83838 2.13718 8.5085 1.72613 8.11265 1.31507C7.59804 0.794393 7.41331 0.49295 7.46609 0.328526C7.57165 -0.0277247 7.29456 0.0270832 6.9119 0.42444C6.72717 0.616267 6.55564 0.766989 6.50286 0.766989C6.46327 0.766989 6.31813 0.616267 6.17298 0.42444C5.8563 -0.000320748 5.69796 -0.0140227 5.53962 0.383334C5.47364 0.561459 5.14377 0.999922 4.81389 1.36987C4.48402 1.75353 4.22011 2.12348 4.22011 2.2194C4.22011 2.30161 4.45763 2.60305 4.74792 2.87709C5.03821 3.15113 5.27572 3.41147 5.27572 3.46627C5.27572 3.53478 5.11738 3.75401 4.94584 3.95954L4.61597 4.3432L4.12775 3.86363C3.56036 3.31555 3.61314 3.05521 4.20692 3.49368C4.66875 3.83623 4.90626 3.6444 4.5368 3.20594C4.10136 2.72637 3.82426 2.63045 3.54717 2.90449C3.30966 3.13743 3.28327 3.13743 3.11173 2.87709C2.927 2.61675 2.91381 2.61675 2.43879 2.89079C1.95057 3.15113 1.73945 3.43887 1.89779 3.60329C1.95057 3.6581 2.16169 3.58959 2.35961 3.46627C2.79505 3.20594 2.90061 3.17853 2.90061 3.35666C2.90061 3.41147 2.6631 3.6307 2.386 3.82252L1.8714 4.17878L1.58111 3.6855C1.42277 3.41147 1.35679 3.15113 1.42277 3.11002C2.17488 2.60305 2.50476 2.30161 2.50476 2.12348C2.50476 2.01387 2.30683 1.61651 2.05613 1.26026C1.77903 0.862902 1.63389 0.506652 1.67347 0.342228C1.76584 -0.000320748 1.44916 -0.000320748 1.05331 0.328526ZM10.5405 5.11051C10.1579 5.35714 9.80161 5.56267 9.76203 5.56267C9.72244 5.56267 9.48493 5.38455 9.23423 5.15161L8.7724 4.75426L9.28701 4.20618L9.80161 3.6718L10.5141 4.16507L11.2267 4.65834L10.5405 5.11051ZM3.82426 4.17878L4.28609 4.58983L3.81107 5.0831C3.27007 5.65859 3.09854 5.64488 2.37281 5.0283L1.92418 4.63094L2.57074 4.20618C2.927 3.97325 3.25688 3.78142 3.29646 3.78142C3.33605 3.78142 3.57356 3.95954 3.82426 4.17878Z" fill="#D92038"></path></svg> 