<?xml version="1.0" encoding="UTF-8"?> <svg xmlns="http://www.w3.org/2000/svg" width="2029" height="187" viewBox="0 0 2029 187" fill="none"><path fill-rule="evenodd" clip-rule="evenodd" d="M1903.52 1.97136C1902.59 3.47036 1907.26 4.23436 1910.29 3.08036C1911.78 2.51336 1913 1.81336 1913 1.52536C1913 0.566359 1904.13 0.983358 1903.52 1.97136ZM1910.81 5.68336C1911.53 5.97236 1912.4 5.93635 1912.73 5.60435C1913.06 5.27235 1912.47 5.03636 1911.42 5.07936C1910.25 5.12736 1910.02 5.36436 1910.81 5.68336ZM1876 7.00036C1876 8.25336 1877.06 8.25336 1879 7.00036C1880.21 6.21636 1880.07 6.02836 1878.25 6.01536C1877.01 6.00736 1876 6.45036 1876 7.00036ZM890.813 7.68336C891.534 7.97236 892.397 7.93635 892.729 7.60435C893.061 7.27235 892.471 7.03636 891.417 7.07936C890.252 7.12736 890.015 7.36436 890.813 7.68336ZM1441 8.00036C1441 8.55036 1441.68 9.00036 1442.5 9.00036C1443.33 9.00036 1444 8.55036 1444 8.00036C1444 7.45036 1443.33 7.00036 1442.5 7.00036C1441.68 7.00036 1441 7.45036 1441 8.00036ZM1546 9.00036C1546 9.58336 1549.33 10.0004 1554 10.0004C1558.67 10.0004 1562 9.58336 1562 9.00036C1562 8.41736 1558.67 8.00036 1554 8.00036C1549.33 8.00036 1546 8.41736 1546 9.00036ZM840 9.88336C840 10.8064 843.418 11.9864 846 11.9554C847.139 11.9414 847.032 11.5834 845.559 10.4684C843.422 8.85236 840 8.49236 840 9.88336ZM860.5 9.67536C859.4 9.91836 857.825 10.3644 857 10.6664C854.578 11.5524 858.772 12.8614 864 12.8514C866.475 12.8464 867.825 12.5874 867 12.2744C866.175 11.9624 865.14 11.0984 864.7 10.3534C864.26 9.60935 863.585 9.05235 863.2 9.11635C862.815 9.18035 861.6 9.43136 860.5 9.67536ZM880.813 9.68336C881.534 9.97236 882.397 9.93635 882.729 9.60435C883.061 9.27235 882.471 9.03636 881.417 9.07936C880.252 9.12736 880.015 9.36436 880.813 9.68336ZM940.25 11.5844C936.749 13.1164 935.905 15.0204 938.75 14.9694C939.713 14.9514 941.309 13.8264 942.297 12.4694C943.285 11.1114 943.96 10.0374 943.797 10.0824C943.634 10.1264 942.037 10.8034 940.25 11.5844ZM1711.5 11.5944L1707.5 12.8464L1711.19 12.9234C1713.22 12.9654 1715.18 12.5204 1715.54 11.9334C1716.55 10.2964 1715.84 10.2364 1711.5 11.5944ZM1269.81 11.6834C1270.53 11.9724 1271.4 11.9364 1271.73 11.6044C1272.06 11.2724 1271.47 11.0364 1270.42 11.0794C1269.25 11.1274 1269.02 11.3644 1269.81 11.6834ZM1572 11.5714C1572 13.4984 1575.28 15.0974 1578.01 14.4994C1581.29 13.7784 1581.89 12.5544 1579.42 11.6074C1577.42 10.8384 1572 10.8124 1572 11.5714ZM828.5 14.0004L824.5 14.7164L828.75 14.8584C831.087 14.9364 833 15.4504 833 16.0004C833 17.3064 837.732 17.3044 838.167 15.9984C838.381 15.3584 839.623 15.3184 841.606 15.8874C843.314 16.3774 846.014 16.5194 847.606 16.2024C850.125 15.7014 849.722 15.4624 844.5 14.3574C837.971 12.9754 834.638 12.9014 828.5 14.0004ZM886.578 13.8734C886.235 14.4294 884.052 14.7004 881.727 14.4774C878.669 14.1834 878.053 14.3184 879.5 14.9654C882.256 16.1984 890.744 16.2234 891.5 15.0004C891.84 14.4504 891.678 14.0004 891.141 14.0004C890.603 14.0004 889.497 13.7444 888.683 13.4324C887.869 13.1194 886.921 13.3184 886.578 13.8734ZM1090.5 14.0004C1088.92 14.6814 1089.33 14.8834 1092.5 14.9744C1094.7 15.0364 1098.3 15.7364 1100.5 16.5294C1102.7 17.3214 1106.08 17.9534 1108 17.9334L1111.5 17.8974L1108 16.5924C1097.91 12.8334 1094.42 12.3154 1090.5 14.0004ZM1258.49 14.4304C1256.62 15.8474 1256.76 15.9384 1260.83 15.9684C1263.86 15.9904 1265.04 15.6244 1264.76 14.7504C1264.14 12.8894 1260.76 12.7174 1258.49 14.4304ZM1586 14.5004C1584.43 16.3894 1585.02 16.3904 1588.64 14.5064C1591.12 13.2114 1591.22 13.0124 1589.37 13.0064C1588.2 13.0034 1586.69 13.6754 1586 14.5004ZM1788.56 15.3914C1789.25 18.1204 1787.24 20.0044 1785.92 17.8784C1785.23 16.7734 1784.76 16.9184 1783.57 18.6124C1782.75 19.7744 1780.71 21.2914 1779.04 21.9844C1774.56 23.8414 1775.33 25.0004 1781.07 25.0004C1784.85 25.0004 1786.94 24.3964 1789.32 22.6164C1791.07 21.3044 1793.61 20.2924 1794.97 20.3664C1796.55 20.4524 1797.56 19.8974 1797.78 18.8284C1798.04 17.5334 1797.6 17.2854 1795.81 17.7264C1794.54 18.0394 1793.8 17.9664 1794.17 17.5644C1795.06 16.5814 1791.39 13.0004 1789.48 13.0004C1788.38 13.0004 1788.13 13.6564 1788.56 15.3914ZM1569.75 14.6624C1570.44 14.9404 1571.56 14.9404 1572.25 14.6624C1572.94 14.3854 1572.38 14.1584 1571 14.1584C1569.63 14.1584 1569.06 14.3854 1569.75 14.6624ZM869.5 16.0004C868.362 17.8414 870.085 19.0014 873.809 18.9004C877.052 18.8134 877.197 18.7114 875 18.0624C873.625 17.6554 872.612 16.8004 872.75 16.1614C873.055 14.7424 870.36 14.6084 869.5 16.0004ZM1218.75 16.6624C1219.44 16.9404 1220.56 16.9404 1221.25 16.6624C1221.94 16.3854 1221.38 16.1584 1220 16.1584C1218.63 16.1584 1218.06 16.3854 1218.75 16.6624ZM1600.25 16.6894C1601.21 16.9414 1602.79 16.9414 1603.75 16.6894C1604.71 16.4384 1603.93 16.2324 1602 16.2324C1600.08 16.2324 1599.29 16.4384 1600.25 16.6894ZM803.75 17.7164C798.489 18.5134 801.399 21.9434 807.372 21.9864C808.918 21.9984 809.029 21.7404 808.008 20.5104C806.986 19.2784 807.181 18.8564 809.136 18.0734L811.5 17.1274L809 17.2134C807.625 17.2614 805.263 17.4874 803.75 17.7164ZM824 17.8734C824 19.1094 828.766 20.5674 829.713 19.6204C830.582 18.7514 829.915 18.2684 826.748 17.4734C825.01 17.0374 824 17.1844 824 17.8734ZM858.269 17.6934C859.242 17.9474 860.592 17.9304 861.269 17.6564C861.946 17.3824 861.15 17.1754 859.5 17.1954C857.85 17.2154 857.296 17.4394 858.269 17.6934ZM1036.22 18.1664C1036.74 19.7164 1039.88 19.9764 1040.25 18.5004C1040.39 17.9504 1039.44 17.3504 1038.14 17.1664C1036.52 16.9374 1035.92 17.2514 1036.22 18.1664ZM1086.5 18.0004C1086.13 18.5944 1087.23 18.9714 1089.19 18.9304C1091.95 18.8714 1092.17 18.7164 1090.5 18.0004C1087.79 16.8344 1087.22 16.8344 1086.5 18.0004ZM1145 18.0004C1145 18.5504 1145.42 19.0004 1145.94 19.0004C1146.46 19.0004 1147.16 18.5504 1147.5 18.0004C1147.84 17.4504 1147.42 17.0004 1146.56 17.0004C1145.7 17.0004 1145 17.4504 1145 18.0004ZM1209.44 18.4504C1207.57 19.8514 1207.58 19.8814 1209.75 19.3344C1210.99 19.0224 1212 18.3694 1212 17.8834C1212 16.6934 1211.71 16.7594 1209.44 18.4504ZM1343 18.0004C1343 18.5504 1343.42 19.0004 1343.94 19.0004C1344.46 19.0004 1345.16 18.5504 1345.5 18.0004C1345.84 17.4504 1345.42 17.0004 1344.56 17.0004C1343.7 17.0004 1343 17.4504 1343 18.0004ZM1465 17.8064C1462.53 17.9824 1460.09 18.5304 1459.59 19.0234C1459.05 19.5554 1459.85 19.8354 1461.57 19.7104C1463.21 19.5914 1464.46 20.0034 1464.48 20.6674C1464.52 22.7054 1465.67 23.1004 1466.98 21.5244C1467.68 20.6864 1468.87 20.0004 1469.62 20.0004C1471.07 20.0004 1471.54 18.3464 1470.25 17.8024C1469.84 17.6284 1467.48 17.6304 1465 17.8064ZM789 18.3874C789 18.5994 790.35 18.9714 792 19.2134C793.65 19.4554 795 19.2824 795 18.8274C795 18.3724 793.65 18.0004 792 18.0004C790.35 18.0004 789 18.1744 789 18.3874ZM1624 19.0004C1622.88 19.7274 1623.38 19.9694 1626 19.9694C1628.63 19.9694 1629.13 19.7274 1628 19.0004C1627.18 18.4674 1626.28 18.0314 1626 18.0314C1625.73 18.0314 1624.83 18.4674 1624 19.0004ZM1807 18.9344C1807 19.5204 1805.88 20.0004 1804.5 20.0004C1800.63 20.0004 1801.55 21.6734 1805.75 22.2704C1807.81 22.5634 1810.32 23.1344 1811.33 23.5394C1812.89 24.1654 1813.11 23.8434 1812.83 21.3884C1812.57 19.0814 1811.95 18.4364 1809.75 18.1844C1808.24 18.0104 1807 18.3474 1807 18.9344ZM623.5 20.0004C623.84 20.5504 626.566 21.0004 629.559 21.0004C632.552 21.0004 635 20.5504 635 20.0004C635 19.4434 632.314 19.0004 628.941 19.0004C625.156 19.0004 623.114 19.3754 623.5 20.0004ZM895.5 20.0004C895.16 20.5504 895.752 21.0004 896.816 21.0004C897.88 21.0004 900.156 21.2814 901.875 21.6254C904.349 22.1204 905 21.9124 905 20.6254C905 19.3694 903.992 19.0004 900.559 19.0004C898.116 19.0004 895.84 19.4504 895.5 20.0004ZM1183 20.0004C1183 21.1984 1186.71 21.1984 1189.5 20.0004C1191.05 19.3344 1190.54 19.1254 1187.25 19.0704C1184.91 19.0324 1183 19.4504 1183 20.0004ZM1247.26 19.7184C1248.78 19.9474 1251.03 19.9414 1252.26 19.7044C1253.49 19.4674 1252.25 19.2794 1249.5 19.2864C1246.75 19.2944 1245.74 19.4884 1247.26 19.7184ZM1444.67 19.6674C1443.55 20.7884 1443.92 22.0004 1445.39 22.0004C1446.16 22.0004 1447.05 21.3254 1447.36 20.5004C1447.94 18.9964 1445.95 18.3824 1444.67 19.6674ZM1644.24 19.6644C1642.67 20.3004 1643.63 22.0004 1645.56 22.0004C1646.35 22.0004 1647 21.3254 1647 20.5004C1647 18.9584 1646.43 18.7844 1644.24 19.6644ZM1747 20.0004C1747 20.5504 1747.93 21.0004 1749.06 21.0004C1750.19 21.0004 1750.84 20.5504 1750.5 20.0004C1750.16 19.4504 1749.23 19.0004 1748.44 19.0004C1747.65 19.0004 1747 19.4504 1747 20.0004ZM1138.44 20.9064C1138.75 21.4044 1139.9 21.5774 1141 21.2894C1143.75 20.5704 1143.51 20.0004 1140.44 20.0004C1139.03 20.0004 1138.13 20.4084 1138.44 20.9064ZM1406.75 20.6624C1407.44 20.9404 1408.56 20.9404 1409.25 20.6624C1409.94 20.3854 1409.38 20.1584 1408 20.1584C1406.63 20.1584 1406.06 20.3854 1406.75 20.6624ZM1730.5 21.0004C1730.84 21.5504 1731.77 22.0004 1732.56 22.0004C1733.35 22.0004 1734 21.5504 1734 21.0004C1734 20.4504 1733.07 20.0004 1731.94 20.0004C1730.81 20.0004 1730.16 20.4504 1730.5 21.0004ZM858.75 22.2204C859.987 22.8174 861 23.6394 861 24.0464C861 25.1804 863.819 26.0074 865.494 25.3644C866.316 25.0484 866.74 24.3884 866.435 23.8954C866.131 23.4034 866.584 23.0004 867.441 23.0004C868.298 23.0004 869 22.5504 869 22.0004C869 21.4334 866.295 21.0294 862.75 21.0684C857.513 21.1244 856.865 21.3114 858.75 22.2204ZM1575.5 22.0004C1575.16 22.5504 1575.84 23.0004 1577 23.0004C1578.17 23.0004 1578.84 22.5504 1578.5 22.0004C1578.16 21.4504 1577.49 21.0004 1577 21.0004C1576.52 21.0004 1575.84 21.4504 1575.5 22.0004ZM1706 22.5004C1705.32 23.3254 1704.92 24.0284 1705.13 24.0624C1705.86 24.1824 1718.52 24.1694 1719.5 24.0474C1720.05 23.9784 1718.99 23.2644 1717.14 22.4614C1712.79 20.5754 1707.58 20.5934 1706 22.5004ZM1071.27 22.6933C1072.24 22.9473 1073.59 22.9304 1074.27 22.6564C1074.95 22.3824 1074.15 22.1754 1072.5 22.1954C1070.85 22.2154 1070.3 22.4393 1071.27 22.6933ZM1232 23.0004C1230.71 23.8354 1230.73 23.9714 1232.19 23.9854C1233.12 23.9934 1234.16 23.5504 1234.5 23.0004C1235.28 21.7344 1233.96 21.7344 1232 23.0004ZM1083.76 23.9984C1080.61 24.4024 1077.27 25.3564 1076.35 26.1174C1074.87 27.3404 1075.3 27.5634 1080.04 28.0474C1086.16 28.6704 1091.21 28.1554 1090.49 26.9814C1090.22 26.5444 1090.83 26.4034 1091.84 26.6684C1093.6 27.1284 1105 24.3224 1105 23.4294C1105 22.7734 1090.23 23.1694 1083.76 23.9984ZM1121.74 23.5924C1120.31 25.0284 1122.28 26.0004 1126.64 26.0004C1129.81 26.0004 1131.04 25.6264 1130.76 24.7504C1130.31 23.4084 1122.88 22.4534 1121.74 23.5924ZM1455 24.0004C1453.72 24.8284 1453.75 24.9724 1455.25 24.9854C1456.21 24.9934 1457 24.5504 1457 24.0004C1457 22.7804 1456.89 22.7804 1455 24.0004ZM1596.6 25.1614C1595.77 26.3494 1592.93 28.5914 1590.29 30.1444L1585.5 32.9664L1590.03 32.9834C1594.02 32.9984 1594.78 32.6374 1596.34 30.0004C1597.57 27.9144 1598.89 27.0004 1600.66 27.0004C1602.52 27.0004 1603.06 27.4084 1602.64 28.5004C1602 30.1654 1604.99 30.4564 1608.5 29.0714C1610.26 28.3774 1610.12 28.2004 1607.35 27.5854C1605.62 27.2014 1603.42 26.0123 1602.45 24.9433C1600.17 22.4233 1598.47 22.4864 1596.6 25.1614ZM1160.44 25.4684C1159.37 26.2764 1157.6 26.9643 1156.5 26.9993C1154.59 27.0583 1154.59 27.1114 1156.35 28.1344C1157.67 28.9034 1158.51 28.8954 1159.3 28.1044C1159.9 27.4974 1163.01 27.0004 1166.2 27.0004C1172.73 27.0004 1173.96 25.5854 1168.25 24.6424C1163.01 23.7764 1162.63 23.8174 1160.44 25.4684ZM1180.08 24.3654C1180.31 24.5654 1182.98 24.9994 1186 25.3294C1189.59 25.7214 1190.81 25.6194 1189.5 25.0354C1187.61 24.1884 1179.2 23.5904 1180.08 24.3654ZM1672.75 24.6624C1673.44 24.9404 1674.56 24.9404 1675.25 24.6624C1675.94 24.3854 1675.38 24.1584 1674 24.1584C1672.63 24.1584 1672.06 24.3854 1672.75 24.6624ZM944.5 26.0004C943.239 26.5424 943.055 26.8594 944 26.8594C944.825 26.8594 946.4 26.4734 947.5 26.0004C948.761 25.4584 948.945 25.1414 948 25.1414C947.175 25.1414 945.6 25.5274 944.5 26.0004ZM1203.27 25.6933C1204.24 25.9473 1205.59 25.9304 1206.27 25.6564C1206.95 25.3824 1206.15 25.1754 1204.5 25.1954C1202.85 25.2154 1202.3 25.4393 1203.27 25.6933ZM1725.25 25.7234C1722.04 26.1224 1720.6 28.0004 1723.5 28.0004C1724.33 28.0004 1725 28.4504 1725 29.0004C1725 29.5504 1725.68 30.0004 1726.5 30.0004C1727.33 30.0004 1728 29.5824 1728 29.0714C1728 28.5614 1728.71 27.4364 1729.57 26.5714C1730.71 25.4304 1730.78 25.0444 1729.82 25.1604C1729.1 25.2484 1727.04 25.5024 1725.25 25.7234ZM1551.5 27.0004C1550.72 28.2664 1552.04 28.2664 1554 27.0004C1555.29 26.1654 1555.27 26.0294 1553.81 26.0154C1552.88 26.0074 1551.84 26.4504 1551.5 27.0004ZM1571 27.0004C1571 27.5504 1572.38 28.0004 1574.06 28.0004C1575.84 28.0004 1576.86 27.5834 1576.5 27.0004C1576.16 26.4504 1574.78 26.0004 1573.44 26.0004C1572.1 26.0004 1571 26.4504 1571 27.0004ZM1690 28.0004L1692.5 29.9564L1688.4 29.9784C1684.58 29.9984 1684.31 30.1864 1684.4 32.7374C1684.52 35.9374 1687.77 37.1644 1689.23 34.5594C1689.84 33.4734 1690.83 33.1304 1692.16 33.5514C1693.46 33.9644 1694.93 33.4914 1696.34 32.2094C1697.53 31.1214 1699.51 29.9234 1700.75 29.5484C1701.99 29.1724 1703 28.5074 1703 28.0694C1703 27.2054 1695.62 25.9864 1690.61 26.0224L1687.5 26.0444L1690 28.0004ZM1765.39 26.7654C1764.77 27.1694 1763.95 28.5124 1763.57 29.7504C1762.95 31.7234 1763.22 32.0004 1765.73 32.0004C1769.01 32.0004 1771 30.4144 1771 27.8004C1771 25.9344 1767.6 25.3074 1765.39 26.7654ZM797.5 28.0004C795.978 28.6544 796.575 28.8734 800 28.9144C803.256 28.9544 804.085 28.7014 803 28.0004C801.22 26.8504 800.177 26.8504 797.5 28.0004ZM934.442 28.0944C934.134 28.5924 935.034 29.0004 936.441 29.0004C939.505 29.0004 939.753 28.4304 937.001 27.7114C935.902 27.4234 934.75 27.5964 934.442 28.0944ZM626 29.0004C626 29.5504 627.013 29.9934 628.25 29.9854C630.069 29.9724 630.213 29.7844 629 29.0004C627.061 27.7474 626 27.7474 626 29.0004ZM818 29.0004C819.957 30.2644 822 30.2644 822 29.0004C822 28.4504 820.763 28.0074 819.25 28.0154C817.107 28.0274 816.831 28.2454 818 29.0004ZM894.269 28.6933C895.242 28.9473 896.592 28.9304 897.269 28.6564C897.946 28.3824 897.15 28.1754 895.5 28.1954C893.85 28.2154 893.296 28.4393 894.269 28.6933ZM1124.5 29.0004C1125.29 30.2804 1137.02 30.2804 1139 29.0004C1140.04 28.3314 1137.93 28.0264 1132.19 28.0154C1126.9 28.0064 1124.11 28.3644 1124.5 29.0004ZM1175.24 29.6844C1173.76 30.7124 1171.04 31.2184 1167.41 31.1344C1162.62 31.0244 1161.9 31.2484 1162.19 32.7534C1162.55 34.6324 1161.84 34.5724 1179.5 34.2004C1190.21 33.9754 1192.9 32.0004 1182.5 32.0004C1178.89 32.0004 1176 31.5614 1176 31.0124C1176 30.4684 1176.79 30.0904 1177.75 30.1704C1181.49 30.4844 1184.09 29.9554 1183.5 29.0004C1182.57 27.4994 1177.8 27.8934 1175.24 29.6844ZM1428.57 29.2204C1427.67 29.7234 1426.16 29.9654 1425.22 29.7584C1424.27 29.5514 1421.25 30.6033 1418.5 32.0963C1415.75 33.5883 1411.98 35.1274 1410.12 35.5144C1405.73 36.4264 1407.87 37.9634 1413.55 37.9854C1415.78 37.9934 1418.14 38.5404 1418.8 39.2004C1419.73 40.1334 1420.28 40.1184 1421.25 39.1334C1422.25 38.1174 1422.13 37.5914 1420.63 36.4834C1418.84 35.1604 1418.86 35.0794 1421.13 34.6244C1422.43 34.3634 1426.65 33.7784 1430.5 33.3244C1434.54 32.8494 1437.31 32.0774 1437.04 31.5004C1436.27 29.8064 1430.36 28.2174 1428.57 29.2204ZM152 30.0004C155.543 31.1354 165.141 31.1354 162.5 30.0004C161.4 29.5274 158.025 29.1544 155 29.1704C150.803 29.1924 150.092 29.3894 152 30.0004ZM826.75 29.6624C827.438 29.9404 828.563 29.9404 829.25 29.6624C829.938 29.3854 829.375 29.1584 828 29.1584C826.625 29.1584 826.063 29.3854 826.75 29.6624ZM913.762 29.7074C915.006 29.9464 916.806 29.9374 917.762 29.6874C918.718 29.4374 917.7 29.2414 915.5 29.2524C913.3 29.2634 912.518 29.4684 913.762 29.7074ZM1578.5 30.4254C1576.09 31.4994 1575.82 31.8954 1577.15 32.4474C1579.15 33.2834 1587 31.3024 1587 29.9614C1587 28.5854 1582.03 28.8574 1578.5 30.4254ZM1880.6 30.6494C1878.23 31.9354 1875.83 32.0914 1867.35 31.5134C1858.47 30.9084 1857 31.0223 1857 32.3183C1857 33.4683 1858.77 33.9954 1864.39 34.5224C1875.21 35.5364 1886 33.4674 1886 30.3794C1886 28.5994 1884.23 28.6884 1880.6 30.6494ZM599.5 30.4344C598.95 30.6124 596.587 31.3344 594.25 32.0394C586.859 34.2674 589.463 36.2214 598.571 35.2804C602.58 34.8674 604.108 35.0164 603.639 35.7754C602.553 37.5324 604.468 38.0354 609.578 37.3344C613.482 36.7994 613.964 36.5314 612.198 35.8784C610.889 35.3934 610.249 34.5154 610.579 33.6554C610.964 32.6534 610.148 32.0823 607.812 31.7213C605.99 31.4393 603.6 30.9624 602.5 30.6604C601.4 30.3584 600.05 30.2574 599.5 30.4344ZM1734.81 30.6834C1735.53 30.9724 1736.4 30.9364 1736.73 30.6044C1737.06 30.2724 1736.47 30.0364 1735.42 30.0794C1734.25 30.1274 1734.02 30.3644 1734.81 30.6834ZM1743.22 31.5574C1742 32.4134 1741 33.9764 1741 35.0314C1741 36.8864 1738.02 38.9714 1733.26 40.4394C1731.59 40.9534 1731.15 40.7794 1731.54 39.7664C1731.95 38.6994 1730.54 38.3784 1725.1 38.2944C1719.68 38.2104 1718.25 38.4824 1718.65 39.5174C1718.93 40.2484 1718.22 41.3474 1717.08 41.9584C1713.52 43.8624 1714.77 44.7254 1720.91 44.6114C1727.4 44.4894 1728.92 45.1854 1727.06 47.4284C1726.39 48.2404 1726.03 49.7134 1726.28 50.7024C1726.62 52.0854 1727 51.7654 1727.93 49.3194C1729.05 46.4034 1730.14 45.7884 1741.11 41.9224C1754.74 37.1154 1757.11 35.3814 1748.6 36.4454L1742.91 37.1554L1744.4 33.5784C1745.23 31.6104 1745.8 30.0004 1745.67 30.0004C1745.55 30.0004 1744.45 30.7014 1743.22 31.5574ZM636.582 31.8674C636.219 32.4544 634.702 32.7124 633.211 32.4404C630.27 31.9044 627.063 33.3944 628.359 34.6964C628.8 35.1384 635.011 35.6494 642.161 35.8314C653.185 36.1124 655.339 35.9194 656.332 34.5604C657.621 32.7984 660.905 32.5054 668.5 33.4774C672.817 34.0304 673.227 33.9414 671.5 32.8254C668.897 31.1434 637.561 30.2834 636.582 31.8674ZM839 32.7824C837.075 33.6914 835.315 34.5604 835.089 34.7114C834.864 34.8634 835.496 35.8904 836.494 36.9944C837.753 38.3844 839.576 39.0004 842.432 39.0004C844.7 39.0004 847.466 39.6384 848.579 40.4174C849.692 41.1974 852.272 42.1484 854.312 42.5314C856.353 42.9144 858.269 43.6264 858.57 44.1134C858.871 44.6014 860.441 45.0004 862.059 45.0004H865L863 43.0004C861.9 41.9004 861 40.5814 861 40.0704C861 39.5584 859.987 38.9444 858.75 38.7064C857.513 38.4674 860.325 38.1974 865 38.1044C870.702 37.9924 874.139 37.4534 875.441 36.4684C877.363 35.0154 877.363 34.9994 875.441 34.8814C874.374 34.8164 869.12 34.8604 863.767 34.9784C853.84 35.1984 842.876 33.3324 845.248 31.8264C847.634 30.3114 842.599 31.0814 839 32.7824ZM894.55 31.9204C896.351 33.6634 910 33.7344 910 32.0004C910 31.4154 906.6 31.0004 901.8 31.0004C896.788 31.0004 893.969 31.3584 894.55 31.9204ZM959 31.3834C959 32.2324 964.085 32.6714 964.583 31.8664C964.877 31.3904 963.741 31.0004 962.059 31.0004C960.377 31.0004 959 31.1734 959 31.3834ZM1112.5 31.8404C1110.86 32.0274 1109.22 32.6494 1108.86 33.2224C1108.51 33.7954 1105.81 34.6454 1102.86 35.1114C1099.92 35.5774 1097.05 36.5514 1096.5 37.2764C1095.06 39.1704 1089.3 41.3304 1087.52 40.6454C1086.68 40.3254 1086 40.4904 1086 41.0124C1086 41.5354 1087.13 42.2444 1088.5 42.5894C1089.88 42.9344 1091 43.5824 1091 44.0294C1091 45.5784 1085.15 46.1164 1080.86 44.9614C1078.48 44.3224 1075.1 43.8004 1073.34 43.8004C1071.1 43.8004 1070.29 43.4054 1070.65 42.4774C1071.31 40.7484 1074.37 39.5944 1074.8 40.9074C1075.03 41.5774 1075.77 41.5364 1076.97 40.7864C1077.98 40.1584 1078.57 39.0494 1078.29 38.3224C1078 37.5644 1078.47 37.0004 1079.39 37.0004C1080.28 37.0004 1081 36.5504 1081 36.0004C1081 35.4364 1078.17 35.0004 1074.5 35.0004C1070.83 35.0004 1068 35.4364 1068 36.0004C1068 36.5504 1067.21 37.0034 1066.25 37.0074C1064.98 37.0114 1065.3 37.5424 1067.41 38.9314L1070.32 40.8494L1066.65 41.5384C1061.86 42.4364 1060.97 43.9824 1065.19 44.0634C1068.43 44.1254 1068.45 44.1484 1066 45.1674L1063.5 46.2074L1065.75 47.2564C1066.99 47.8334 1068 48.7014 1068 49.1844C1068 50.6864 1065.25 51.2054 1063.18 50.0954C1061.63 49.2674 1061.07 49.3774 1060.6 50.6004C1059.67 53.0214 1059.89 56.8154 1061 57.5004C1061.55 57.8404 1062 57.4684 1062 56.6734C1062 53.8264 1078.05 52.6224 1082.72 55.1174C1084.21 55.9154 1085.35 55.9764 1086.22 55.3064C1086.92 54.7584 1089.66 53.7274 1092.29 53.0134C1094.93 52.3004 1097.73 50.7934 1098.52 49.6644C1099.79 47.8574 1099.76 47.3914 1098.27 45.7504C1096.9 44.2264 1096.81 43.5354 1097.8 41.9444C1098.72 40.4774 1098.73 40.0004 1097.84 40.0004C1096.67 40.0004 1097.56 38.5764 1098.83 38.4164C1099.2 38.3704 1100.65 37.8534 1102.05 37.2674C1103.45 36.6814 1105.79 36.4284 1107.24 36.7054C1108.69 36.9824 1111.32 36.4874 1113.09 35.6054C1114.86 34.7224 1117.36 34.0004 1118.65 34.0004C1119.94 34.0004 1121 33.6014 1121 33.1134C1121 32.0374 1116.59 31.3764 1112.5 31.8404ZM1158.81 31.6834C1159.53 31.9724 1160.4 31.9364 1160.73 31.6044C1161.06 31.2724 1160.47 31.0364 1159.42 31.0794C1158.25 31.1274 1158.02 31.3644 1158.81 31.6834ZM1560.5 32.2304C1559.4 32.8774 1557.25 33.2804 1555.73 33.1254L1552.96 32.8454L1556.23 36.3714C1559.24 39.6114 1559.92 39.8804 1564.68 39.6904C1571.26 39.4274 1572.03 38.6074 1567.84 36.3244L1564.5 34.5004L1568.25 34.1904C1572.94 33.8014 1573.21 32.0004 1568.58 32.0004C1566.7 32.0004 1564.56 31.7873 1563.83 31.5273C1563.1 31.2673 1561.6 31.5834 1560.5 32.2304ZM1642 31.9694C1642 32.5014 1642.68 32.6784 1643.5 32.3624C1644.33 32.0454 1645 31.6094 1645 31.3934C1645 31.1774 1644.33 31.0004 1643.5 31.0004C1642.68 31.0004 1642 31.4364 1642 31.9694ZM537.5 33.0004C537.16 33.5504 537.809 34.0004 538.941 34.0004C540.073 34.0004 541 33.5504 541 33.0004C541 32.4504 540.352 32.0004 539.559 32.0004C538.766 32.0004 537.84 32.4504 537.5 33.0004ZM621 33.0004C619.884 33.7214 620.461 33.9734 623.25 33.9854C625.313 33.9934 627 33.5504 627 33.0004C627 31.7264 622.971 31.7264 621 33.0004ZM681.185 32.7924C680.311 33.3944 682.158 33.9154 686.685 34.3424C696.541 35.2734 699.585 35.1854 698.405 34.0054C697.058 32.6584 682.833 31.6564 681.185 32.7924ZM814.728 32.6054C813.639 33.6944 814.955 35.0004 817.142 35.0004C818.317 35.0004 818.992 34.4754 818.75 33.7504C818.275 32.3224 815.735 31.5994 814.728 32.6054ZM922.5 33.0004C921.181 33.5674 921.011 33.8784 922 33.9144C922.825 33.9454 924.175 33.5334 925 33.0004C926.828 31.8194 925.249 31.8194 922.5 33.0004ZM1296.75 33.1624C1295.24 33.7154 1294 34.6094 1294 35.1514C1294 36.2504 1297.16 35.4674 1301 33.4154C1303.17 32.2564 1303.24 32.0854 1301.5 32.1194C1300.4 32.1404 1298.26 32.6104 1296.75 33.1624ZM1315.5 33.0004C1315.84 33.5504 1316.79 34.0004 1317.62 34.0004C1318.44 34.0004 1318.84 33.5504 1318.5 33.0004C1318.16 32.4504 1317.21 32.0004 1316.38 32.0004C1315.56 32.0004 1315.16 32.4504 1315.5 33.0004ZM1604.5 33.0004C1604.84 33.5504 1605.79 34.0004 1606.62 34.0004C1607.44 34.0004 1607.84 33.5504 1607.5 33.0004C1607.16 32.4504 1606.21 32.0004 1605.38 32.0004C1604.56 32.0004 1604.16 32.4504 1604.5 33.0004ZM1749 33.5004C1749 34.5304 1749.66 35.0204 1750.75 34.8104C1752.86 34.4044 1752.73 32.6294 1750.55 32.1774C1749.65 31.9884 1749 32.5394 1749 33.5004ZM114.5 34.0004C114.132 34.5954 115.323 35.0004 117.441 35.0004C119.398 35.0004 121 34.5504 121 34.0004C121 33.4504 119.677 33.0004 118.059 33.0004C116.441 33.0004 114.84 33.4504 114.5 34.0004ZM185.917 33.4154C185.142 34.1874 173.535 35.2734 168.5 35.0444C156.203 34.4864 153.659 34.5624 153.34 35.5004C152.979 36.5624 156.651 36.8544 174.5 37.1834C181.983 37.3214 186.263 36.9704 187.885 36.0854C189.767 35.0594 189.978 34.6004 188.885 33.9084C187.342 32.9314 186.537 32.7974 185.917 33.4154ZM209.813 33.6834C210.534 33.9724 211.397 33.9364 211.729 33.6044C212.061 33.2724 211.471 33.0364 210.417 33.0794C209.252 33.1274 209.015 33.3644 209.813 33.6834ZM391.813 33.6834C392.534 33.9724 393.397 33.9364 393.729 33.6044C394.061 33.2724 393.471 33.0364 392.417 33.0794C391.252 33.1274 391.015 33.3644 391.813 33.6834ZM547.174 34.6034C548.198 35.6264 549.54 35.9634 550.888 35.5354C554.26 34.4654 553.333 33.0004 549.286 33.0004C545.878 33.0004 545.704 33.1324 547.174 34.6034ZM977.188 34.0634C977.428 34.7844 978.216 35.5724 978.938 35.8134C979.688 36.0634 980.063 35.6884 979.813 34.9384C979.572 34.2164 978.784 33.4284 978.063 33.1884C977.313 32.9384 976.938 33.3134 977.188 34.0634ZM1776.46 34.0674C1776.1 34.6534 1776.01 35.3484 1776.28 35.6104C1776.54 35.8724 1777.02 35.3924 1777.35 34.5434C1778.02 32.7814 1777.45 32.4714 1776.46 34.0674ZM1792.14 35.0334C1790.28 36.5824 1788.26 37.0024 1782.64 37.0114C1774.61 37.0234 1766.13 39.1884 1764.25 41.7044C1763.15 43.1874 1762.44 43.2354 1758.1 42.1234C1752.99 40.8114 1745 41.9784 1745 44.0394C1745 46.1464 1780.37 45.5174 1783.8 43.3494C1786.78 41.4554 1796.61 40.2004 1795.6 41.8424C1794.75 43.2194 1797.17 43.4184 1798.55 42.0854C1799.07 41.5814 1800.63 41.0084 1802 40.8114C1803.38 40.6144 1804.39 39.9014 1804.25 39.2264C1804.11 38.5524 1804.86 38.0004 1805.92 38.0004C1808.65 38.0004 1811 36.9604 1811 35.7504C1811 35.0764 1808.19 34.9074 1802.95 35.2664C1796.11 35.7354 1795.08 35.6074 1796.08 34.4094C1797.9 32.2064 1794.98 32.6704 1792.14 35.0334ZM988.5 35.0004C988.14 35.5824 989.266 36.0554 991.191 36.1314C993.959 36.2414 993.662 36.4244 989.371 37.2524C984.351 38.2204 984.281 38.2814 986.121 40.1214C988.193 42.1934 990.638 42.5874 991.187 40.9384C991.383 40.3524 994.629 39.7924 998.438 39.6884C1002.93 39.5664 1005.48 39.0634 1005.75 38.2504C1006.27 36.6804 1003.57 36.6264 1001.12 38.1584C999.124 39.4044 996 38.7174 996 37.0314C996 36.4644 996.787 35.9934 997.75 35.9854C999.246 35.9724 999.282 35.8284 998 35.0004C996.026 33.7244 989.288 33.7244 988.5 35.0004ZM1233 35.0004L1229.5 35.7374L1233.82 35.8684C1237.65 35.9854 1238.06 36.2234 1237.5 38.0004C1236.98 39.6554 1237.32 40.0004 1239.5 40.0004C1241.64 40.0004 1242.02 40.3584 1241.53 41.9194C1240.76 44.3224 1243.68 45.4544 1247.11 44.0854C1248.84 43.3904 1249.02 43.1094 1247.75 43.0634C1244.96 42.9624 1245.71 41.5074 1249.5 39.7014C1251.43 38.7834 1253 37.6684 1253 37.2244C1253 36.0284 1244.54 33.9804 1240.24 34.1324C1238.18 34.2044 1234.93 34.5954 1233 35.0004ZM568 36.0004C566.915 36.7014 567.815 36.9744 571.25 36.9854C573.862 36.9934 576 36.5504 576 36.0004C576 34.7224 569.977 34.7224 568 36.0004ZM913 36.0004C913 36.5504 910.975 37.0004 908.5 37.0004C906.025 37.0004 904 37.4504 904 38.0004C904 38.5504 904.563 39.0054 905.25 39.0114C905.938 39.0174 908.188 39.3014 910.25 39.6424C913.264 40.1404 914 39.9514 914 38.6814C914 37.8114 914.787 36.6414 915.75 36.0804C917.313 35.1704 917.259 35.0584 915.25 35.0304C914.013 35.0144 913 35.4504 913 36.0004ZM1018 35.9814C1018 37.0904 1022.8 38.5384 1023.65 37.6874C1023.95 37.3824 1023.9 36.6534 1023.54 36.0674C1022.71 34.7274 1018 34.6554 1018 35.9814ZM1051 35.8874C1051 36.5344 1049.18 37.0004 1046.64 37.0004C1044.24 37.0004 1039.85 37.4784 1036.89 38.0614C1033.92 38.6454 1029.93 39.1544 1028 39.1934C1026.08 39.2324 1025.18 39.4964 1026 39.7824C1026.83 40.0674 1027.73 40.6514 1028.02 41.0804C1028.3 41.5094 1032.28 41.9604 1036.86 42.0814C1043.11 42.2464 1045.41 41.9514 1046.06 40.9014C1046.7 39.8844 1048.74 39.5684 1053.53 39.7504C1057.29 39.8924 1061.07 39.4804 1062.32 38.7954C1064.68 37.4924 1065.18 37.6954 1053.75 35.3404C1052.06 34.9914 1051 35.2014 1051 35.8874ZM1092.81 35.6834C1093.53 35.9724 1094.4 35.9364 1094.73 35.6044C1095.06 35.2724 1094.47 35.0364 1093.42 35.0794C1092.25 35.1274 1092.02 35.3644 1092.81 35.6834ZM1187.14 35.8904C1185.08 37.1954 1187.33 38.0854 1190.88 37.3744C1192.58 37.0344 1193.72 36.3614 1193.43 35.8784C1192.73 34.7604 1188.92 34.7674 1187.14 35.8904ZM1218.88 35.7504C1218.82 36.1624 1218.82 36.8384 1218.88 37.2504C1218.95 37.6624 1216.86 38.0074 1214.25 38.0154C1208.74 38.0334 1205.76 39.3094 1208.64 40.4154C1210.18 41.0084 1210.23 41.2534 1208.97 42.1194C1207.84 42.8984 1208 42.9914 1209.66 42.5254C1211.83 41.9204 1217.73 41.1804 1221.5 41.0424C1224.67 40.9274 1225.98 39.6224 1225.35 37.2144C1224.92 35.5744 1224.02 35.0004 1221.88 35.0004C1220.3 35.0004 1218.95 35.3384 1218.88 35.7504ZM1574.52 35.9754C1574.17 36.5394 1574.13 37.4034 1574.44 37.8954C1574.74 38.3884 1574.29 39.0594 1573.43 39.3884C1571.3 40.2064 1572.78 42.2924 1575.06 41.6944C1577.04 41.1774 1583.41 45.2614 1582.32 46.3474C1581.96 46.7064 1583.15 47.0004 1584.97 47.0004C1586.78 47.0004 1589.77 47.9324 1591.62 49.0724C1595.82 51.6684 1599.39 51.3104 1599.82 48.2504C1600.16 45.8614 1604 44.9434 1604 47.2504C1604.01 48.1314 1606.05 48.4944 1610.94 48.4814C1618.54 48.4604 1620.32 47.6894 1617.52 45.6414C1616.52 44.9054 1615.97 43.8564 1616.31 43.3094C1616.69 42.6864 1614.54 42.3494 1610.55 42.4074C1604.63 42.4934 1600.86 41.3134 1603.75 40.2804C1606.76 39.2064 1604.61 38.0924 1600.6 38.6424C1597.83 39.0214 1594.2 38.6634 1590.85 37.6794C1583.62 35.5604 1575.31 34.6934 1574.52 35.9754ZM1139 37.0004C1139 37.5504 1139.93 38.0004 1141.06 38.0004C1142.19 38.0004 1142.84 37.5504 1142.5 37.0004C1142.16 36.4504 1141.23 36.0004 1140.44 36.0004C1139.65 36.0004 1139 36.4504 1139 37.0004ZM1307.5 37.0004C1305.56 37.8334 1305.56 37.8624 1307.44 37.9304C1309.36 37.9994 1309.36 38.0154 1307.44 39.5184C1305.61 40.9514 1305.69 41.0204 1308.89 40.7684C1311.36 40.5734 1312.51 39.8874 1313.11 38.2504C1313.81 36.3364 1313.6 36.0114 1311.72 36.0704C1310.5 36.1094 1308.6 36.5274 1307.5 37.0004ZM1756.75 36.6624C1757.44 36.9404 1758.56 36.9404 1759.25 36.6624C1759.94 36.3854 1759.38 36.1584 1758 36.1584C1756.63 36.1584 1756.06 36.3854 1756.75 36.6624ZM539.75 37.6624C540.438 37.9404 541.563 37.9404 542.25 37.6624C542.938 37.3854 542.375 37.1584 541 37.1584C539.625 37.1584 539.063 37.3854 539.75 37.6624ZM585.762 37.7074C587.006 37.9464 588.806 37.9374 589.762 37.6874C590.718 37.4374 589.7 37.2414 587.5 37.2524C585.3 37.2634 584.518 37.4684 585.762 37.7074ZM712.55 37.9194C711.841 39.0664 717.542 40.4014 719.082 39.4494C719.89 38.9504 719.826 38.5044 718.857 37.8904C717.056 36.7494 713.262 36.7664 712.55 37.9194ZM885.27 38.2504C885.744 39.6034 888.913 39.3994 890.45 37.9164C891.033 37.3544 890.13 37.0004 888.117 37.0004C885.924 37.0004 884.978 37.4154 885.27 38.2504ZM1012.81 37.6834C1013.53 37.9724 1014.4 37.9364 1014.73 37.6044C1015.06 37.2724 1014.47 37.0364 1013.42 37.0794C1012.25 37.1274 1012.02 37.3644 1012.81 37.6834ZM1125.25 38.6624C1124.5 38.9674 1124.23 40.0854 1124.59 41.5024C1125.06 43.3814 1124.74 43.9034 1122.92 44.1694C1119.4 44.6844 1119.4 46.9304 1122.91 47.6334C1124.61 47.9724 1126 48.6444 1126 49.1254C1126 49.6064 1127.46 49.9634 1129.25 49.9194L1132.5 49.8384L1129.5 48.4644C1127.6 47.5954 1127.14 47.0744 1128.25 47.0454C1129.44 47.0144 1130 46.1964 1130 44.4694C1130 43.0684 1130.72 41.6624 1131.6 41.3224C1132.82 40.8564 1132.43 40.3794 1129.99 39.3534C1128.22 38.6094 1126.71 38.0364 1126.64 38.0794C1126.56 38.1224 1125.94 38.3854 1125.25 38.6624ZM1146.44 39.4684C1144.65 40.8264 1144.86 40.9394 1149.25 40.9684C1154.21 41.0014 1155.63 39.6704 1151.75 38.6304C1148.67 37.8044 1148.63 37.8104 1146.44 39.4684ZM1189.54 38.9294C1189.23 39.4394 1189.99 40.0534 1191.24 40.2924C1192.48 40.5324 1190.8 40.8154 1187.5 40.9214C1184.2 41.0284 1179.7 41.5144 1177.5 42.0024C1173.9 42.8014 1174.19 42.8804 1180.5 42.8014C1192.51 42.6514 1196.15 42.9424 1195.5 44.0004C1194.76 45.1954 1202.54 45.2434 1205.5 44.0624C1207.2 43.3844 1206.86 43.0704 1203.26 41.9764C1199.88 40.9514 1199.24 40.4134 1200.13 39.3444C1201.04 38.2464 1200.23 38.0004 1195.68 38.0004C1192.62 38.0004 1189.86 38.4184 1189.54 38.9294ZM1706.1 39.7364C1705.4 40.4844 1702.9 40.9814 1700.2 40.9104C1697.61 40.8434 1693.45 41.2674 1690.95 41.8534C1688.45 42.4394 1685.41 42.6594 1684.2 42.3424C1681.27 41.5744 1681.31 43.8074 1684.25 44.8374C1686.43 45.6024 1697.54 44.9374 1707.29 43.4584C1713.47 42.5194 1715.71 39.4194 1710.64 38.8264C1708.73 38.6034 1706.8 38.9914 1706.1 39.7364ZM1809 39.0004L1805.5 39.7374L1808.69 39.8684C1810.45 39.9414 1812.16 39.5504 1812.5 39.0004C1812.84 38.4504 1812.98 38.0594 1812.81 38.1324C1812.64 38.2044 1810.93 38.5954 1809 39.0004ZM190.51 40.0164C190.856 40.5754 191.557 40.7744 192.069 40.4574C193.456 39.6004 193.198 39.0004 191.441 39.0004C190.584 39.0004 190.165 39.4574 190.51 40.0164ZM332.5 40.0004C332.111 40.6304 334.216 40.9634 338.191 40.9004C342.866 40.8264 343.853 40.5934 342 40.0004C338.377 38.8404 333.217 38.8404 332.5 40.0004ZM373.5 40.0004L370.5 40.7634L373.691 40.8824C375.446 40.9474 377.16 40.5504 377.5 40.0004C378.184 38.8934 377.849 38.8934 373.5 40.0004ZM756.047 39.7304C755.211 40.0594 756.697 40.8554 759.547 41.6024C764.593 42.9274 771 41.9874 771 39.9224C771 38.9354 758.474 38.7744 756.047 39.7304ZM1682.5 40.0004C1682.16 40.5504 1682.78 41.0004 1683.88 41.0004C1684.98 41.0004 1686.16 40.5504 1686.5 40.0004C1686.84 39.4504 1686.22 39.0004 1685.12 39.0004C1684.02 39.0004 1682.84 39.4504 1682.5 40.0004ZM104.192 41.5674C102.163 42.6004 102.093 42.8224 103.61 43.4044C105.438 44.1054 107.471 42.7804 106.863 41.2834C106.663 40.7934 105.462 40.9214 104.192 41.5674ZM147.441 41.5324C149.923 43.4094 151.633 43.3984 152.362 41.5004C152.811 40.3294 152.121 40.0074 149.219 40.0324C145.732 40.0624 145.621 40.1554 147.441 41.5324ZM402.75 40.6624C403.438 40.9404 404.563 40.9404 405.25 40.6624C405.938 40.3854 405.375 40.1584 404 40.1584C402.625 40.1584 402.063 40.3854 402.75 40.6624ZM507.543 40.9314C506.803 42.1284 508.684 43.3134 510.016 42.4904C511.135 41.7994 510.4 40.0004 509 40.0004C508.515 40.0004 507.859 40.4194 507.543 40.9314ZM532 40.8334C532 42.2414 533.126 42.8894 534.592 42.3264C535.36 42.0324 535.74 41.3884 535.435 40.8954C534.737 39.7664 532 39.7174 532 40.8334ZM938 40.8834C938 41.3694 938.9 42.0024 940 42.2904C941.1 42.5774 942 43.5304 942 44.4064C942 45.5184 942.927 46.0004 945.067 46.0004C947.68 46.0004 948.041 45.7034 947.5 44.0004C947.088 42.7034 947.328 41.9754 948.183 41.9304C948.907 41.8914 948.6 41.4734 947.5 41.0004C944.833 39.8544 938 39.7704 938 40.8834ZM959.813 40.6834C960.534 40.9724 961.397 40.9364 961.729 40.6044C962.061 40.2724 961.471 40.0364 960.417 40.0794C959.252 40.1274 959.015 40.3644 959.813 40.6834ZM1397 41.0004C1397 41.5504 1397.73 42.0004 1398.63 42.0004C1399.53 42.0004 1401.77 42.9314 1403.61 44.0684C1407.15 46.2544 1412.07 46.3524 1412.76 44.2504C1413.02 43.4334 1412.11 43.0004 1410.12 43.0004C1407.81 43.0004 1407.2 42.6314 1407.64 41.5004C1408.11 40.2774 1407.18 40.0004 1402.61 40.0004C1399.52 40.0004 1397 40.4504 1397 41.0004ZM543.5 42.0004C543.84 42.5504 545.19 43.0004 546.5 43.0004C547.81 43.0004 549.16 42.5504 549.5 42.0004C549.869 41.4044 548.657 41.0004 546.5 41.0004C544.343 41.0004 543.131 41.4044 543.5 42.0004ZM723 42.0004C720.727 42.7284 720.818 42.8034 724 42.8304C725.925 42.8464 728.4 42.4734 729.5 42.0004C731.198 41.2704 731.047 41.1454 728.5 41.1704C726.85 41.1864 724.375 41.5604 723 42.0004ZM775 42.0004C776.957 43.2644 779 43.2644 779 42.0004C779 41.4504 777.763 41.0074 776.25 41.0154C774.107 41.0274 773.831 41.2454 775 42.0004ZM902 42.0004C902 42.5504 902.423 43.0004 902.941 43.0004C903.459 43.0004 904.16 42.5504 904.5 42.0004C904.84 41.4504 904.416 41.0004 903.559 41.0004C902.702 41.0004 902 41.4504 902 42.0004ZM1007.25 41.6624C1005.2 42.4884 1005.83 43.8564 1008 43.2904C1009.1 43.0024 1010 42.3694 1010 41.8834C1010 40.9304 1009.22 40.8674 1007.25 41.6624ZM1162.75 41.6624C1163.44 41.9404 1164.56 41.9404 1165.25 41.6624C1165.94 41.3854 1165.38 41.1584 1164 41.1584C1162.63 41.1584 1162.06 41.3854 1162.75 41.6624ZM1546 42.0594C1546 42.6414 1546.45 42.8404 1547 42.5004C1547.55 42.1604 1548 41.6844 1548 41.4414C1548 41.1984 1547.55 41.0004 1547 41.0004C1546.45 41.0004 1546 41.4774 1546 42.0594ZM1620.75 41.6624C1621.44 41.9404 1622.56 41.9404 1623.25 41.6624C1623.94 41.3854 1623.38 41.1584 1622 41.1584C1620.63 41.1584 1620.06 41.3854 1620.75 41.6624ZM1632 42.0004C1632 42.5504 1632.68 43.0004 1633.5 43.0004C1634.33 43.0004 1635 42.5504 1635 42.0004C1635 41.4504 1634.33 41.0004 1633.5 41.0004C1632.68 41.0004 1632 41.4504 1632 42.0004ZM277 43.0004C277 43.5504 277.675 44.0004 278.5 44.0004C279.325 44.0004 280 43.5504 280 43.0004C280 42.4504 279.325 42.0004 278.5 42.0004C277.675 42.0004 277 42.4504 277 43.0004ZM324 43.0004C324 43.5504 324.423 44.0004 324.941 44.0004C325.459 44.0004 326.16 43.5504 326.5 43.0004C326.84 42.4504 326.416 42.0004 325.559 42.0004C324.702 42.0004 324 42.4504 324 43.0004ZM356 43.4654C356 44.2704 356.937 45.4314 358.082 46.0444C359.775 46.9504 360.415 46.8164 361.508 45.3294C362.659 43.7614 362.612 43.4034 361.176 42.8204C358.298 41.6534 356 41.9394 356 43.4654ZM415 42.6854C410.279 43.4654 409.33 44.2804 412.41 44.9074C414.38 45.3084 415.834 46.5434 416.91 48.7274C417.99 50.9194 419.222 51.9624 420.75 51.9774C422.025 51.9904 422.892 51.4584 422.75 50.7504C422.6 50.0024 423.804 49.3744 425.75 49.1874C427.538 49.0144 429 48.5224 429 48.0924C429 46.5654 425.309 44.0004 423.112 44.0004C421.88 44.0004 421.159 43.5524 421.5 43.0004C422.118 42.0004 419.82 41.8894 415 42.6854ZM971.226 43.1794C972.319 46.4564 978 46.7524 978 43.5314C978 42.4414 976.968 42.0004 974.417 42.0004C972.11 42.0004 970.973 42.4204 971.226 43.1794ZM1049.81 42.6834C1050.53 42.9724 1051.4 42.9364 1051.73 42.6044C1052.06 42.2724 1051.47 42.0364 1050.42 42.0794C1049.25 42.1274 1049.02 42.3644 1049.81 42.6834ZM1234.02 43.4764C1233.23 44.4264 1233.16 45.0004 1233.82 45.0004C1235.03 45.0004 1236.44 43.1034 1235.74 42.4094C1235.49 42.1584 1234.72 42.6384 1234.02 43.4764ZM1331 43.0004C1329.81 43.7674 1330.02 43.9694 1332 43.9694C1333.38 43.9694 1335.18 43.5334 1336 43.0004C1337.19 42.2334 1336.98 42.0314 1335 42.0314C1333.63 42.0314 1331.83 42.4674 1331 43.0004ZM1549.5 43.0004C1548.72 44.2664 1550.04 44.2664 1552 43.0004C1553.29 42.1654 1553.27 42.0294 1551.81 42.0154C1550.88 42.0074 1549.84 42.4504 1549.5 43.0004ZM1564 43.3194L1561.5 44.3764L1564.37 44.7664C1565.95 44.9814 1567.67 44.7314 1568.19 44.2114C1569.67 42.7264 1566.84 42.1214 1564 43.3194ZM219.166 43.8764C218.103 44.5504 218.172 44.8524 219.506 45.3644C221.486 46.1244 223.276 45.2554 222.457 43.9314C221.751 42.7894 220.904 42.7744 219.166 43.8764ZM233.695 43.7604C231.3 44.3014 232.083 46.4164 234.828 46.8204C236.24 47.0274 237 46.6104 237 45.6294C237 43.7674 236.047 43.2284 233.695 43.7604ZM384.5 44.0004C384.84 44.5504 385.568 45.0004 386.118 45.0004C386.668 45.0004 386.84 44.5504 386.5 44.0004C386.16 43.4504 385.432 43.0004 384.882 43.0004C384.332 43.0004 384.16 43.4504 384.5 44.0004ZM669.543 44.0704C670.226 45.1744 676.002 45.3354 675.996 44.2504C675.993 43.8384 674.411 43.4194 672.48 43.3204C670.527 43.2204 669.224 43.5534 669.543 44.0704ZM792 44.5004C792 45.3334 792.889 46.0004 794 46.0004C795.1 46.0004 796.337 46.0244 796.75 46.0534C797.163 46.0824 797.645 45.4074 797.823 44.5534C798.06 43.4164 797.324 43.0004 795.073 43.0004C793.008 43.0004 792 43.4924 792 44.5004ZM1261.51 43.9894C1261.16 44.5554 1261.56 44.7234 1262.45 44.3824C1264.18 43.7174 1264.5 43.0004 1263.06 43.0004C1262.54 43.0004 1261.84 43.4454 1261.51 43.9894ZM1302.5 44.0004C1301.03 44.6314 1301.89 44.8784 1305.75 44.9304C1308.64 44.9684 1311 44.5504 1311 44.0004C1311 42.7974 1305.3 42.7974 1302.5 44.0004ZM130.75 44.6624C131.438 44.9404 132.563 44.9404 133.25 44.6624C133.938 44.3854 133.375 44.1584 132 44.1584C130.625 44.1584 130.063 44.3854 130.75 44.6624ZM769.158 46.0004C769.158 47.3754 769.385 47.9384 769.662 47.2504C769.94 46.5634 769.94 45.4384 769.662 44.7504C769.385 44.0634 769.158 44.6254 769.158 46.0004ZM1028.84 48.5144C1028.54 52.2774 1028.73 52.9014 1029.99 52.2644C1030.82 51.8444 1037.2 51.5004 1044.16 51.5004C1055.95 51.5004 1060.56 50.7704 1056.64 49.5244C1055.74 49.2364 1054.3 48.7784 1053.44 48.5074C1051.2 47.8034 1052.57 46.1864 1056.3 45.1064C1058.63 44.4314 1055.4 44.1564 1044.35 44.0904L1029.2 44.0004L1028.84 48.5144ZM1140 45.0004C1140 45.5504 1141.15 46.0004 1142.56 46.0004C1144.01 46.0004 1144.85 45.5674 1144.5 45.0004C1144.16 44.4504 1143.01 44.0004 1141.94 44.0004C1140.87 44.0004 1140 44.4504 1140 45.0004ZM1224.5 45.0004C1223.76 46.1944 1225.72 46.1944 1228.5 45.0004C1230.29 44.2334 1230.21 44.1334 1227.81 44.0704C1226.33 44.0324 1224.84 44.4504 1224.5 45.0004ZM776.573 45.8954C774.785 46.5964 774.773 46.6994 776.405 47.3254C778.921 48.2914 784.784 48.1594 785.425 47.1224C785.723 46.6394 784.569 45.9644 782.859 45.6224C779.236 44.8974 779.107 44.9034 776.573 45.8954ZM985.269 45.6934C986.242 45.9474 987.592 45.9304 988.269 45.6564C988.946 45.3824 988.15 45.1754 986.5 45.1954C984.85 45.2154 984.296 45.4394 985.269 45.6934ZM1641.25 46.3414C1636.71 47.4564 1635.95 48.3844 1638.72 49.4474C1639.77 49.8474 1640.9 49.4934 1641.58 48.5544C1642.21 47.6994 1643.21 47.0004 1643.8 47.0004C1644.4 47.0004 1645.16 46.5504 1645.5 46.0004C1645.84 45.4504 1645.98 45.0674 1645.81 45.1494C1645.64 45.2314 1643.59 45.7684 1641.25 46.3414ZM104 47.0004C102.849 47.7444 103.198 47.9694 105.5 47.9694C107.15 47.9694 109.175 47.5334 110 47.0004C111.151 46.2564 110.802 46.0314 108.5 46.0314C106.85 46.0314 104.825 46.4674 104 47.0004ZM200.5 47.0004C200.84 47.5504 201.991 48.0004 203.059 48.0004C204.127 48.0004 205 47.5504 205 47.0004C205 46.4504 203.848 46.0004 202.441 46.0004C200.99 46.0004 200.149 46.4334 200.5 47.0004ZM296.5 48.0004C298.577 50.2954 302 50.6724 302 48.6074C302 47.0514 299.889 46.0004 296.763 46.0004C294.753 46.0004 294.745 46.0614 296.5 48.0004ZM487.5 46.9234C484.014 47.4804 483.789 47.6634 485.75 48.3484C488.254 49.2244 492 48.3754 492 46.9334C492 46.4204 491.888 46.0644 491.75 46.1424C491.612 46.2204 489.7 46.5714 487.5 46.9234ZM1060.03 46.9614C1059.22 47.4734 1058.82 48.1514 1059.14 48.4694C1059.92 49.2574 1063 48.0024 1063 46.8934C1063 45.7534 1061.9 45.7784 1060.03 46.9614ZM97.5001 48.0004C95.5721 48.8294 95.5791 48.8624 97.6911 48.9304C98.8961 48.9684 100.16 48.5504 100.5 48.0004C101.231 46.8174 100.252 46.8174 97.5001 48.0004ZM213.565 47.8954C213.26 48.3884 213.571 49.0014 214.256 49.2574C216.322 50.0334 227.007 48.8214 226.424 47.8784C225.711 46.7234 214.279 46.7394 213.565 47.8954ZM336.5 48.0004C336.151 48.5654 336.97 49.0004 338.382 49.0004C339.757 49.0004 341.16 48.5504 341.5 48.0004C341.849 47.4354 341.03 47.0004 339.618 47.0004C338.243 47.0004 336.84 47.4504 336.5 48.0004ZM581 47.9414C581 48.4594 581.457 49.1654 582.016 49.5104C583.598 50.4884 582.335 51.6834 579.021 52.3464C574.951 53.1604 575.117 55.2144 579.22 54.8144C581.57 54.5854 582.53 54.9444 582.773 56.1414C583.049 57.5074 581.794 57.8994 575.3 58.4734C571.008 58.8534 566.372 59.7814 564.998 60.5344C562.559 61.8714 562.583 61.8904 566.036 61.3564C570.443 60.6734 577.503 62.5034 579.966 64.9664C581.554 66.5544 582.457 66.6854 586.129 65.8604C589.271 65.1544 591.064 65.2324 592.777 66.1484C594.614 67.1314 595.541 67.1434 597.048 66.2024C599.713 64.5384 604.504 64.6974 606 66.5004C606.685 67.3254 607.865 68.0004 608.622 68.0004C609.38 68.0004 610 67.3254 610 66.5004C610 65.6754 609.15 65.0004 608.111 65.0004C606.941 65.0004 606.275 64.3494 606.361 63.2884C606.441 62.3054 605.649 61.4134 604.5 61.1914C599.183 60.1674 601.936 59.2444 612.163 58.6234C623.045 57.9624 626.261 56.8614 623.979 54.5794C623.394 53.9944 622.118 54.1344 620.596 54.9494C618.445 56.1004 617.695 55.9754 614.351 53.9084C611.006 51.8414 609.032 51.5124 597.862 51.1644C586.458 50.8094 585.123 50.5784 584.68 48.8844C584.186 46.9934 581 46.1774 581 47.9414ZM687 48.0004C685.781 48.7884 685.91 48.9724 687.691 48.9854C688.896 48.9934 690.16 48.5504 690.5 48.0004C691.287 46.7274 688.97 46.7274 687 48.0004ZM820 48.0004C820 48.5504 822.025 49.0004 824.5 49.0004C826.975 49.0004 829 48.5504 829 48.0004C829 47.4504 826.975 47.0004 824.5 47.0004C822.025 47.0004 820 47.4504 820 48.0004ZM1089 48.5004C1089 49.3334 1089.89 50.0004 1091 50.0004C1093.38 50.0004 1093.65 48.4644 1091.42 47.6074C1089.18 46.7494 1089 46.8174 1089 48.5004ZM1104.36 48.5004C1103.54 50.6334 1104.66 53.0004 1106.49 53.0004C1107.89 53.0004 1107.89 52.7654 1106.52 50.6704C1105.68 49.3894 1105.3 48.0394 1105.66 47.6704C1106.03 47.3024 1106.02 47.0004 1105.64 47.0004C1105.25 47.0004 1104.68 47.6754 1104.36 48.5004ZM1382.5 48.0004C1382.12 48.6174 1383.84 49.0004 1387 49.0004C1390.16 49.0004 1391.88 48.6174 1391.5 48.0004C1391.16 47.4504 1389.14 47.0004 1387 47.0004C1384.87 47.0004 1382.84 47.4504 1382.5 48.0004ZM1503 48.0004C1503 48.5504 1503.68 49.0004 1504.5 49.0004C1505.33 49.0004 1506 48.5504 1506 48.0004C1506 47.4504 1505.33 47.0004 1504.5 47.0004C1503.68 47.0004 1503 47.4504 1503 48.0004ZM1553.24 48.7694C1557.97 50.3404 1559.8 50.0974 1558.54 48.0674C1558.18 47.4804 1555.77 47.0434 1553.19 47.0964L1548.5 47.1914L1553.24 48.7694ZM132.269 48.6934C133.242 48.9474 134.592 48.9304 135.269 48.6564C135.946 48.3824 135.15 48.1754 133.5 48.1954C131.85 48.2154 131.296 48.4394 132.269 48.6934ZM1134 49.0004C1132.78 49.7884 1132.91 49.9724 1134.69 49.9854C1135.9 49.9934 1137.16 49.5504 1137.5 49.0004C1138.29 47.7274 1135.97 47.7274 1134 49.0004ZM1296.5 49.2164C1294.85 49.7904 1290.84 50.5394 1287.58 50.8804C1284.22 51.2324 1281.48 52.0404 1281.25 52.7504C1280.93 53.6934 1283.26 54.0004 1290.72 54.0004C1300.91 54.0004 1303 53.2864 1303 49.8004C1303 47.7844 1301.11 47.6144 1296.5 49.2164ZM1318.22 49.5574C1314.74 51.9974 1315.39 55.3054 1318.92 53.0734C1319.71 52.5684 1321.31 52.5464 1322.56 53.0234C1325.03 53.9614 1329 53.2594 1329 51.8834C1329 51.3984 1327.88 51.0004 1326.5 51.0004C1324.94 51.0004 1324 50.4334 1324 49.5004C1324 47.5514 1321.04 47.5804 1318.22 49.5574ZM1333.5 49.0004C1333.16 49.5504 1333.82 50.0004 1334.96 50.0004C1336.09 50.0004 1337.9 50.5454 1338.97 51.2124C1341.25 52.6364 1342.31 51.9584 1341.42 49.6434C1340.71 47.8104 1334.55 47.3094 1333.5 49.0004ZM1470 48.8854C1470 49.3724 1471.13 50.5074 1472.5 51.4084C1473.88 52.3094 1475 52.6164 1475 52.0904C1475 51.5654 1476.01 50.8134 1477.25 50.4194C1479.43 49.7274 1479.44 49.6794 1477.5 48.9224C1474.73 47.8384 1470 47.8154 1470 48.8854ZM1790 49.0834C1784.12 50.2124 1771.76 54.0664 1770.55 55.1504C1768.93 56.5984 1771.63 56.1174 1777 54.0004C1779.79 52.9004 1784.31 52.0004 1787.04 52.0004C1789.77 52.0004 1792 51.5504 1792 51.0004C1792 50.4504 1792.68 50.0004 1793.5 50.0004C1794.33 50.0004 1795 49.5504 1795 49.0004C1795 48.4504 1794.89 48.0494 1794.75 48.1104C1794.61 48.1704 1792.48 48.6084 1790 49.0834ZM1835 49.5254C1832.64 50.4174 1832.15 50.8754 1833.5 50.9334C1834.6 50.9794 1837.98 51.2944 1841 51.6334C1845.89 52.1804 1846.33 52.0824 1845 50.7484C1842.76 48.5084 1838.93 48.0404 1835 49.5254ZM381.25 49.6894C382.212 49.9414 383.788 49.9414 384.75 49.6894C385.712 49.4384 384.925 49.2324 383 49.2324C381.075 49.2324 380.288 49.4384 381.25 49.6894ZM530.25 49.6894C531.212 49.9414 532.788 49.9414 533.75 49.6894C534.712 49.4384 533.925 49.2324 532 49.2324C530.075 49.2324 529.288 49.4384 530.25 49.6894ZM709.5 50.0004C709.16 50.5504 709.332 51.0004 709.882 51.0004C710.432 51.0004 711.16 50.5504 711.5 50.0004C711.84 49.4504 711.668 49.0004 711.118 49.0004C710.568 49.0004 709.84 49.4504 709.5 50.0004ZM1516.5 50.0004C1514.71 50.7674 1514.79 50.8674 1517.19 50.9304C1518.67 50.9684 1520.16 50.5504 1520.5 50.0004C1521.24 48.8064 1519.28 48.8064 1516.5 50.0004ZM1528.5 50.0004C1528.16 50.5504 1528.36 51.0004 1528.94 51.0004C1529.52 51.0004 1530 50.5504 1530 50.0004C1530 49.4504 1529.8 49.0004 1529.56 49.0004C1529.32 49.0004 1528.84 49.4504 1528.5 50.0004ZM1573 50.5004C1572.25 51.4084 1572.17 52.0004 1572.8 52.0004C1574.63 52.0004 1577 50.8144 1577 49.8934C1577 48.4624 1574.36 48.8634 1573 50.5004ZM1661.57 49.8954C1659.79 50.5964 1659.77 50.6994 1661.41 51.3254C1663.9 52.2824 1667 52.1614 1667 51.1074C1667 50.3944 1664.36 48.7814 1663.67 49.0704C1663.58 49.1094 1662.63 49.4804 1661.57 49.8954ZM1690.5 49.6814C1685.64 50.7734 1682 52.2274 1682 53.0784C1682 54.5024 1688.66 54.1694 1692.53 52.5514C1698.13 50.2104 1696.76 48.2754 1690.5 49.6814ZM1739.75 49.7164C1737.53 50.0524 1737 50.6524 1737.02 52.8164C1737.05 57.9644 1738.37 58.7084 1743.2 56.2854C1745.56 55.0964 1746.71 54.0964 1745.75 54.0624C1743.31 53.9764 1743.56 51.9294 1746.09 51.2684C1747.67 50.8534 1747.85 50.5204 1746.84 49.8774C1745.47 49.0114 1744.55 48.9904 1739.75 49.7164ZM1759.5 50.0004C1759.16 50.5504 1759.33 51.0004 1759.88 51.0004C1760.43 51.0004 1761.16 50.5504 1761.5 50.0004C1761.84 49.4504 1761.67 49.0004 1761.12 49.0004C1760.57 49.0004 1759.84 49.4504 1759.5 50.0004ZM1859 49.8814C1859 50.6814 1866.39 53.0004 1868.94 53.0004C1871.19 53.0004 1869.85 51.1434 1866.85 50.0984C1863.06 48.7774 1859 48.6654 1859 49.8814ZM1919 49.7574C1919 50.7964 1922.35 51.4144 1934.25 52.5754C1938.71 53.0104 1941 52.8774 1941 52.1844C1941 50.6914 1938.74 50.2024 1928.25 49.4264C1922.21 48.9794 1919 49.0944 1919 49.7574ZM701 51.0274C700.175 51.5754 697.587 52.5214 695.25 53.1304C689.85 54.5374 689.777 56.0004 695.107 56.0004C698.347 56.0004 699.092 55.6834 698.638 54.5004C698.322 53.6754 698.413 53.0004 698.84 53.0004C699.691 53.0004 703.813 50.0744 703 50.0474C702.725 50.0384 701.825 50.4794 701 51.0274ZM950.5 51.0004C950.16 51.5504 950.557 52.0004 951.382 52.0004C952.207 52.0004 953.16 51.5504 953.5 51.0004C953.84 50.4504 953.443 50.0004 952.618 50.0004C951.793 50.0004 950.84 50.4504 950.5 51.0004ZM1226.32 51.4434C1228.05 52.7574 1228.04 52.8534 1225.97 53.5094C1224.78 53.8884 1221.82 53.9004 1219.4 53.5374C1215.35 52.9304 1215 53.0494 1215 55.0484C1215 57.0124 1215.36 57.1534 1218.75 56.5334C1220.81 56.1554 1224.3 55.7194 1226.5 55.5634C1228.7 55.4064 1231.29 55.2164 1232.25 55.1394C1235.45 54.8854 1234.1 52.1204 1230.25 51.0534C1225.25 49.6644 1224.12 49.7774 1226.32 51.4434ZM1796.5 51.0004C1796.13 51.6044 1797.39 51.9724 1799.69 51.9304C1802.73 51.8744 1803.1 51.6864 1801.5 51.0004C1798.75 49.8194 1797.23 49.8194 1796.5 51.0004ZM480 52.0004C480 52.5504 480.477 53.0004 481.059 53.0004C481.641 53.0004 481.84 52.5504 481.5 52.0004C481.16 51.4504 480.684 51.0004 480.441 51.0004C480.198 51.0004 480 51.4504 480 52.0004ZM1181.5 52.3704L1178.5 53.6494L1181.74 54.2974C1185.57 55.0644 1188 54.3264 1188 52.3934C1188 50.6824 1185.48 50.6734 1181.5 52.3704ZM1212 52.0004C1210.71 52.8354 1210.73 52.9714 1212.19 52.9854C1213.12 52.9934 1214.16 52.5504 1214.5 52.0004C1215.28 50.7344 1213.96 50.7344 1212 52.0004ZM2023.01 51.7164C2022.99 53.9564 2026.38 60.0414 2027.44 59.6854C2029.12 59.1274 2028.7 57.7084 2025.76 53.9774C2024.26 52.0654 2023.02 51.0474 2023.01 51.7164ZM548.813 52.6834C549.534 52.9724 550.397 52.9364 550.729 52.6044C551.061 52.2724 550.471 52.0364 549.417 52.0794C548.252 52.1274 548.015 52.3644 548.813 52.6834ZM710.137 52.8944C709.118 53.5404 709.497 54.0004 711.637 54.7164L714.5 55.6734L710.747 56.9154C708.682 57.5984 705.635 57.8594 703.976 57.4954C701.451 56.9404 700.495 57.3294 698.111 59.8814C696.545 61.5584 695.504 63.1714 695.798 63.4654C696.532 64.1984 705.051 64.1404 708.875 63.3754C710.594 63.0314 712 62.1794 712 61.4824C712 59.6824 714.357 59.0004 720.582 59.0004C727.029 59.0004 727.758 57.4934 721.75 56.5844C717.041 55.8724 713.124 54.0434 716.25 54.0154C717.212 54.0074 718 53.5504 718 53.0004C718 51.7784 712.025 51.6984 710.137 52.8944ZM841 53.0004C841 53.5504 843.052 54.0004 845.559 54.0004C848.344 54.0004 849.878 53.6114 849.5 53.0004C849.16 52.4504 847.109 52.0004 844.941 52.0004C842.773 52.0004 841 52.4504 841 53.0004ZM1165.75 53.1624C1163.07 54.1424 1161.95 56.0004 1164.05 56.0004C1165.34 56.0004 1171 53.1294 1171 52.4744C1171 51.7564 1168.82 52.0424 1165.75 53.1624ZM485.75 53.6624C486.438 53.9404 487.563 53.9404 488.25 53.6624C488.938 53.3854 488.375 53.1584 487 53.1584C485.625 53.1584 485.063 53.3854 485.75 53.6624ZM769 54.5514C769 55.7874 770.089 56.0594 774.346 55.8874C777.897 55.7434 780.448 56.2014 781.947 57.2504C784.186 58.8184 784.158 58.8534 778.391 61.6654C775.194 63.2244 772.445 64.9594 772.282 65.5204C771.915 66.7894 787.073 66.2104 788.45 64.9024C789.034 64.3474 788.746 64.0004 787.7 64.0004C786.765 64.0004 786 63.5504 786 63.0004C786 62.0084 788.796 61.6204 796.5 61.5414C799.371 61.5124 800.5 61.0774 800.5 60.0004C800.5 59.0184 799.722 58.6084 798.25 58.8134C795.585 59.1834 795.252 57.5674 797.75 56.3884C800.065 55.2964 786.365 54.2074 783.214 55.2334C781.6 55.7594 780.761 55.5404 780.357 54.4894C779.52 52.3084 769 52.3664 769 54.5514ZM1251.57 53.8954C1249.85 54.5714 1249.82 54.7184 1251.32 55.2944C1253.38 56.0824 1256.2 55.1244 1255.44 53.8954C1254.8 52.8594 1254.22 52.8594 1251.57 53.8954ZM1451.79 54.7504C1449.91 56.8984 1450.53 59.0004 1453.02 59.0004C1455.36 59.0004 1456.67 57.0314 1455.02 56.0094C1454.17 55.4894 1454.7 54.9064 1456.64 54.2004L1459.5 53.1584L1456.41 53.0794C1454.62 53.0334 1452.66 53.7424 1451.79 54.7504ZM1532.27 53.6934C1533.24 53.9474 1534.59 53.9304 1535.27 53.6564C1535.95 53.3824 1535.15 53.1754 1533.5 53.1954C1531.85 53.2154 1531.3 53.4394 1532.27 53.6934ZM272.676 54.8594C271.673 55.2554 270.924 55.9604 271.011 56.4274C271.099 56.8944 270.57 57.6574 269.835 58.1234C268.936 58.6934 269.496 58.9744 271.55 58.9854C274.757 59.0014 277 57.4854 277 55.3004C277 53.8854 275.528 53.7354 272.676 54.8594ZM381 55.0004C381 55.5504 380.663 55.9114 380.25 55.8024C378.718 55.3974 375.166 57.1254 374.624 58.5384C374.285 59.4214 372.726 60.0004 370.686 60.0004C367.289 60.0004 363.29 62.9574 364.735 64.4024C365.142 64.8084 365.48 65.8974 365.487 66.8214C365.497 68.1224 366.367 68.4724 369.354 68.3774C371.474 68.3094 372.673 68.5844 372.019 68.9884C371.233 69.4744 371.571 69.9164 373.016 70.2944C374.228 70.6114 374.907 71.3414 374.542 71.9334C373.533 73.5644 380.298 73.2474 383.636 71.5064C385.29 70.6434 389.171 70.0104 392.821 70.0064C396.96 70.0024 399.636 69.5074 400.571 68.5714C402.504 66.6394 402.382 66.2124 399.75 65.7084C398.513 65.4714 399.3 65.2504 401.5 65.2164C403.7 65.1834 407.462 64.7834 409.861 64.3274C414.09 63.5254 414.164 63.4474 412.297 61.7634C410.467 60.1124 409.688 60.1404 396.436 62.3374C384.667 64.2884 382.546 64.9074 382.794 66.3234C382.955 67.2464 382.449 68.0004 381.669 68.0004C380.888 68.0004 378.731 68.2524 376.875 68.5614C373.553 69.1124 373.538 69.0994 375.923 67.6834L378.346 66.2454L376.173 65.5554C374.978 65.1764 374 64.4674 374 63.9804C374 62.8884 380.498 61.0134 384.305 61.0064C385.848 61.0034 389.223 59.9884 391.805 58.7504L396.5 56.5004L390.5 56.1954C387.2 56.0274 384.072 55.4654 383.55 54.9454C382.308 53.7104 381 53.7384 381 55.0004ZM446.5 55.0004C444.728 55.7624 444.813 55.8674 447.25 55.9304C448.763 55.9684 450 55.5504 450 55.0004C450 53.8264 449.231 53.8264 446.5 55.0004ZM637.5 55.0004C635.824 55.7204 636.026 55.8714 638.75 55.9304C640.538 55.9684 642 55.5504 642 55.0004C642 53.8134 640.263 53.8134 637.5 55.0004ZM873.269 54.6934C874.242 54.9474 875.592 54.9304 876.269 54.6564C876.946 54.3824 876.15 54.1754 874.5 54.1954C872.85 54.2154 872.296 54.4394 873.269 54.6934ZM1265.57 54.8844C1264.58 56.4824 1269.23 57.2704 1273.09 56.1594L1276.5 55.1804L1273.5 55.0774C1271.85 55.0194 1269.54 54.7154 1268.36 54.3994C1267.19 54.0844 1265.93 54.3024 1265.57 54.8844ZM1305.5 55.0004C1305.16 55.5504 1305.58 56.0004 1306.44 56.0004C1307.3 56.0004 1308 55.5504 1308 55.0004C1308 54.4504 1307.58 54.0004 1307.06 54.0004C1306.54 54.0004 1305.84 54.4504 1305.5 55.0004ZM1556.5 55.4674C1558.15 56.2614 1560.63 56.9024 1562 56.8924C1564.26 56.8754 1564.31 56.7954 1562.5 56.0664C1561.4 55.6234 1558.93 54.9824 1557 54.6424L1553.5 54.0254L1556.5 55.4674ZM1659.5 55.0004C1659.16 55.5504 1659.58 56.0004 1660.44 56.0004C1661.3 56.0004 1662 55.5504 1662 55.0004C1662 54.4504 1661.58 54.0004 1661.06 54.0004C1660.54 54.0004 1659.84 54.4504 1659.5 55.0004ZM407.75 55.6694C404.699 56.1844 404.152 57.4614 406.582 58.3934C408.688 59.2014 416.531 59.1454 421.5 58.2874L425.5 57.5964L421.5 56.7914C415.236 55.5324 410.737 55.1654 407.75 55.6694ZM1004 56.5004C1002.4 57.4164 1002.06 57.9424 1003.06 57.9654C1003.92 57.9844 1005.49 57.3394 1006.56 56.5324C1009.05 54.6524 1007.27 54.6304 1004 56.5004ZM1472.5 56.0004C1470.59 56.8204 1470.6 56.8634 1472.75 56.9304C1473.99 56.9684 1475 56.5504 1475 56.0004C1475 55.4504 1474.89 55.0324 1474.75 55.0704C1474.61 55.1094 1473.6 55.5274 1472.5 56.0004ZM673.582 56.8684C671.978 57.2164 670.478 58.0634 670.249 58.7504C669.691 60.4274 671.866 60.3184 675.364 58.4944C676.94 57.6724 679.24 57.0004 680.476 57.0004C682.337 57.0004 682.64 57.4324 682.242 59.5154C681.978 60.8984 681.365 62.2744 680.881 62.5744C680.396 62.8734 680.019 63.8794 680.042 64.8094C680.096 66.9864 683.901 60.1274 683.958 57.7504C683.991 56.3674 683.214 56.0254 680.25 56.1184C678.188 56.1834 675.187 56.5214 673.582 56.8684ZM824.813 56.6834C825.534 56.9724 826.397 56.9364 826.729 56.6044C827.061 56.2724 826.471 56.0364 825.417 56.0794C824.252 56.1274 824.015 56.3644 824.813 56.6834ZM1070.59 56.8564C1070.3 57.3264 1071.17 57.4994 1072.53 57.2394C1073.89 56.9794 1075 56.5944 1075 56.3834C1075 55.6104 1071.1 56.0274 1070.59 56.8564ZM1464.06 57.8934C1463.38 59.1614 1461.95 60.0004 1460.47 60.0004C1458.5 60.0004 1458 60.5104 1458 62.5004C1458 63.8754 1457.55 65.0004 1457 65.0004C1456.45 65.0004 1456 63.8264 1456 62.3924C1456 60.0494 1455.72 59.8524 1453.25 60.4574C1446.7 62.0624 1446.53 66.3234 1452.93 68.4764C1454.74 69.0864 1456.74 70.2714 1457.36 71.1094C1457.99 71.9474 1459.95 73.3514 1461.73 74.2284L1464.96 75.8244L1465.97 72.1624C1466.53 70.1484 1466.99 67.0804 1466.99 65.3444C1467 62.6784 1466.69 62.2694 1465 62.7104C1462.31 63.4144 1462.46 61.6104 1465.25 59.7174C1466.97 58.5514 1467.23 57.9064 1466.34 56.9884C1465.45 56.0584 1464.93 56.2644 1464.06 57.8934ZM92.4051 59.1374L90.5001 61.2744L93.7501 59.6114C97.2201 57.8364 97.8301 57.0004 95.6551 57.0004C94.9151 57.0004 93.4531 57.9624 92.4051 59.1374ZM427.813 57.6834C428.534 57.9724 429.397 57.9364 429.729 57.6044C430.061 57.2724 429.471 57.0364 428.417 57.0794C427.252 57.1274 427.015 57.3644 427.813 57.6834ZM458.5 58.0004C458.16 58.5504 458.584 59.0004 459.441 59.0004C460.298 59.0004 461 58.5504 461 58.0004C461 57.4504 460.577 57.0004 460.059 57.0004C459.541 57.0004 458.84 57.4504 458.5 58.0004ZM978.344 59.4704C977.276 61.8074 977.377 62.0004 979.666 62.0004C981.912 62.0004 985.765 59.4324 984.867 58.5344C984.663 58.3304 983.372 57.8874 981.998 57.5514C979.988 57.0594 979.274 57.4344 978.344 59.4704ZM1228.5 58.0004C1228.16 58.5504 1225.88 59.0004 1223.44 59.0004C1216.93 59.0004 1218.02 60.8464 1224.75 61.2154L1230.5 61.5314L1227.5 62.9434C1224.53 64.3404 1224.58 64.3644 1231.85 65.0844C1238.55 65.7484 1239.49 65.6074 1242.62 63.4824C1245.66 61.4184 1245.83 61.0824 1244.12 60.5384C1243.06 60.2004 1241.93 59.2664 1241.62 58.4624C1240.97 56.7484 1229.52 56.3454 1228.5 58.0004ZM1245.57 57.8954C1245.26 58.3884 1245.57 59.0034 1246.26 59.2634C1248.1 59.9624 1254 58.9134 1254 57.8874C1254 56.7254 1246.28 56.7334 1245.57 57.8954ZM1510 57.7614C1502.96 58.3224 1501.88 58.8304 1503.21 60.9624C1504.19 62.5334 1504.1 63.2364 1502.7 64.7754C1500.48 67.2364 1501.04 67.6454 1505.99 67.1724C1509.73 66.8164 1510.28 66.3844 1512.18 62.3524C1513.32 59.9164 1514.09 57.8244 1513.88 57.7034C1513.67 57.5824 1511.93 57.6084 1510 57.7614ZM1701.5 58.0004C1701.15 58.5654 1701.97 59.0004 1703.38 59.0004C1704.76 59.0004 1706.16 58.5504 1706.5 58.0004C1706.85 57.4354 1706.03 57.0004 1704.62 57.0004C1703.24 57.0004 1701.84 57.4504 1701.5 58.0004ZM1721.42 57.8664C1721.92 58.6714 1727 58.2324 1727 57.3834C1727 57.1734 1725.62 57.0004 1723.94 57.0004C1722.26 57.0004 1721.12 57.3904 1721.42 57.8664ZM843.813 58.6834C844.534 58.9724 845.397 58.9364 845.729 58.6044C846.061 58.2724 845.471 58.0364 844.417 58.0794C843.252 58.1274 843.015 58.3644 843.813 58.6834ZM1262.53 58.9144C1263.1 59.4914 1265.07 60.2644 1266.92 60.6334C1269.54 61.1584 1270.17 61.0004 1269.81 59.9024C1269.54 59.0984 1267.67 58.3654 1265.42 58.1834C1262.7 57.9634 1261.81 58.1864 1262.53 58.9144ZM476.5 60.0004C476.84 60.5504 477.74 61.0004 478.5 61.0004C479.26 61.0004 480.16 60.5504 480.5 60.0004C480.852 59.4314 479.991 59.0004 478.5 59.0004C477.009 59.0004 476.148 59.4314 476.5 60.0004ZM1788 59.7324C1781.97 60.8414 1781.41 64.0014 1787.25 63.9964C1790.97 63.9934 1798 61.0624 1798 59.5154C1798 58.9204 1791.67 59.0574 1788 59.7324ZM1315 61.5004C1315 63.0704 1316.74 63.4214 1319.42 62.3934C1322.03 61.3914 1321.21 60.0004 1318 60.0004C1316 60.0004 1315 60.5004 1315 61.5004ZM1882.22 61.1664C1882.46 61.9004 1883.68 62.6504 1884.94 62.8344C1886.49 63.0614 1887.08 62.7414 1886.78 61.8344C1886.54 61.1004 1885.32 60.3504 1884.06 60.1664C1882.51 59.9394 1881.92 60.2594 1882.22 61.1664ZM156.437 63.4564C154.526 66.3724 155.244 68.0004 158.442 68.0004C160.841 68.0004 161.918 65.9694 161.228 62.7504C160.691 60.2424 158.313 60.5934 156.437 63.4564ZM723.079 62.5834C723.127 63.7484 723.364 63.9854 723.683 63.1884C723.972 62.4664 723.936 61.6034 723.604 61.2714C723.272 60.9394 723.036 61.5294 723.079 62.5834ZM948.166 61.8764C947.102 62.5514 947.169 62.8514 948.498 63.3614C951.258 64.4204 953 64.0874 953 62.5004C953 60.8704 950.302 60.5224 948.166 61.8764ZM1723.78 62.2504C1723.53 62.9384 1723.6 64.4784 1723.92 65.6734C1724.47 67.7184 1724.69 67.7654 1727.75 66.4724C1731.35 64.9514 1732.08 63.0004 1729.06 63.0004C1727.99 63.0004 1726.84 62.5504 1726.5 62.0004C1725.65 60.6234 1724.3 60.7464 1723.78 62.2504ZM273.498 63.6454C272.169 64.9744 272.107 65.4524 273.176 66.1304C273.904 66.5924 274.95 66.9694 275.5 66.9694C276.05 66.9694 275.854 66.5614 275.064 66.0614C273.874 65.3084 273.853 64.8834 274.937 63.5764C276.663 61.4964 275.596 61.5474 273.498 63.6454ZM308.77 62.5634C307.371 63.9624 309.173 65.0004 313 65.0004C315.135 65.0004 317.16 64.5504 317.5 64.0004C317.84 63.4504 317.473 63.0004 316.684 63.0004C315.895 63.0004 313.953 62.7414 312.368 62.4244C310.783 62.1074 309.164 62.1694 308.77 62.5634ZM820 63.0314C820 63.5644 820.675 64.0004 821.5 64.0004C822.325 64.0004 823 63.8234 823 63.6074C823 63.3914 822.325 62.9554 821.5 62.6384C820.675 62.3224 820 62.4994 820 63.0314ZM1061 63.0004C1062.94 64.2534 1064 64.2534 1064 63.0004C1064 62.4504 1062.99 62.0074 1061.75 62.0154C1059.93 62.0284 1059.79 62.2164 1061 63.0004ZM1125 63.0004C1123.85 63.7444 1124.26 64.0084 1126.75 64.1354C1128.54 64.2264 1130.53 64.3454 1131.17 64.4004C1131.81 64.4554 1132.52 63.9384 1132.75 63.2504C1133.26 61.7344 1127.26 61.5414 1125 63.0004ZM1248.5 63.0004C1248.84 63.5504 1250.33 63.9684 1251.81 63.9304C1254.21 63.8674 1254.29 63.7674 1252.5 63.0004C1249.72 61.8064 1247.76 61.8064 1248.5 63.0004ZM1301 62.5564C1300.18 62.7344 1296.46 63.1684 1292.75 63.5194C1289.04 63.8714 1286 64.5464 1286 65.0184C1286 65.9764 1293.86 67.3874 1298.5 67.2624C1300.15 67.2174 1302.85 66.4684 1304.5 65.5964C1306.15 64.7254 1308.18 63.9654 1309 63.9064C1310.82 63.7784 1306.13 62.1934 1304 62.2164C1303.18 62.2254 1301.83 62.3784 1301 62.5564ZM326 64.0464C324.905 64.7874 325.309 64.8804 327.5 64.3904C331.177 63.5674 331.975 62.9954 329.417 63.0154C328.363 63.0244 326.825 63.4874 326 64.0464ZM446.118 63.9064C445.038 64.5904 445.217 64.9344 446.94 65.4814C449.561 66.3134 454 65.3704 454 63.9814C454 62.7684 448.005 62.7114 446.118 63.9064ZM613.872 64.3344C615.373 66.1564 620.619 66.5394 623 65.0004C624.244 64.1964 624.159 64.0264 622.5 64.0044C621.4 63.9904 618.7 63.6834 616.5 63.3234C612.85 62.7254 612.62 62.8134 613.872 64.3344ZM1954 63.8834C1954 65.0544 1958.56 65.8914 1960.02 64.9884C1960.81 64.5034 1960.64 64.0764 1959.5 63.6394C1957.1 62.7164 1954 62.8544 1954 63.8834ZM1109.97 65.5424C1107.86 68.0834 1110.08 69.0814 1114.48 67.5684C1116.65 66.8214 1118.6 65.7134 1118.8 65.1054C1119.38 63.3554 1111.46 63.7474 1109.97 65.5424ZM1514.19 65.4694C1512.18 66.5774 1512.1 66.8264 1513.58 67.3924C1515.16 67.9974 1515.15 68.1794 1513.48 70.0214C1511.97 71.6924 1511.93 72.0004 1513.23 72.0004C1514.07 72.0004 1515 71.1004 1515.29 70.0004C1515.62 68.7334 1516.67 67.9874 1518.16 67.9654C1519.45 67.9454 1521.57 67.3374 1522.87 66.6134L1525.25 65.2984L1522.87 64.6634C1519.5 63.7584 1516.85 64.0044 1514.19 65.4694ZM1528 65.0004C1526.76 65.8034 1526.84 65.9694 1528.5 65.9694C1529.6 65.9694 1531.18 65.5334 1532 65.0004C1533.24 64.1974 1533.16 64.0314 1531.5 64.0314C1530.4 64.0314 1528.83 64.4674 1528 65.0004ZM758.441 66.4684C757.374 67.2764 756.95 67.9364 757.5 67.9364C758.05 67.9364 759.374 67.2764 760.441 66.4684C761.509 65.6614 761.932 65.0004 761.382 65.0004C760.832 65.0004 759.509 65.6614 758.441 66.4684ZM1172.5 66.4644C1170.06 67.5814 1169.88 67.8534 1171.56 67.9194C1172.69 67.9634 1174.49 67.3394 1175.56 66.5324C1177.99 64.6914 1176.45 64.6574 1172.5 66.4644ZM1208 67.0274C1205.53 68.0284 1201.12 69.1614 1198.2 69.5454C1195.29 69.9284 1193.09 70.4264 1193.32 70.6504C1194.27 71.6004 1211.53 72.9924 1214.78 72.3814C1218.02 71.7734 1218.17 71.6004 1216.52 70.3894C1214.83 69.1524 1214.9 68.9904 1217.57 67.9744C1219.85 67.1054 1220.14 66.6984 1218.97 65.9584C1216.82 64.6024 1213.1 64.9644 1208 67.0274ZM1672 66.0004C1671.1 66.5824 1670.98 66.9754 1671.69 66.9854C1672.35 66.9934 1673.16 66.5504 1673.5 66.0004C1674.27 64.7584 1673.92 64.7584 1672 66.0004ZM78.8071 67.7504C76.4901 70.4484 75.7841 72.0004 76.8731 72.0004C77.4181 72.0004 78.8251 70.6504 80.0001 69.0004C82.2761 65.8034 81.3301 64.8124 78.8071 67.7504ZM1058 67.5004C1056.93 68.7944 1057.35 69.0004 1061.07 69.0004C1065.08 69.0004 1065.25 68.8964 1063.44 67.5324C1060.95 65.6454 1059.55 65.6364 1058 67.5004ZM72.3771 69.2504C66.6841 75.7474 66.6851 77.0094 72.3781 71.0004C74.4631 68.8004 75.7591 67.0004 75.2591 67.0004C74.7581 67.0004 73.4611 68.0124 72.3771 69.2504ZM358.5 67.7134C354.233 68.7394 354.512 70.1254 358.922 69.8134C361.355 69.6414 363.53 68.9384 363.756 68.2504C364.17 66.9904 362.3 66.7994 358.5 67.7134ZM807 68.5004C807 69.5004 808 70.0004 810 70.0004C813.206 70.0004 814.03 68.6094 811.418 67.6074C808.738 66.5794 807 66.9304 807 68.5004ZM1087 68.5004C1087.69 69.3254 1088.98 69.9644 1089.87 69.9214C1090.92 69.8704 1091.05 69.6614 1090.24 69.3364C1089.55 69.0574 1089.24 68.4184 1089.55 67.9154C1089.86 67.4124 1089.14 67.0004 1087.94 67.0004C1086.11 67.0004 1085.96 67.2454 1087 68.5004ZM1261.25 67.6894C1262.21 67.9414 1263.79 67.9414 1264.75 67.6894C1265.71 67.4384 1264.93 67.2324 1263 67.2324C1261.08 67.2324 1260.29 67.4384 1261.25 67.6894ZM1412 68.0004C1412 68.5504 1412.68 69.0004 1413.5 69.0004C1414.33 69.0004 1415 68.5504 1415 68.0004C1415 67.4504 1414.33 67.0004 1413.5 67.0004C1412.68 67.0004 1412 67.4504 1412 68.0004ZM235 69.5004C234.315 70.3254 233.06 71.0004 232.211 71.0004C231.362 71.0004 230.936 71.2704 231.266 71.5994C231.596 71.9294 233.689 71.8904 235.919 71.5144C239.413 70.9234 239.777 70.6344 238.557 69.4144C236.789 67.6464 236.533 67.6524 235 69.5004ZM1071.13 69.6264C1069.94 70.9694 1070.04 71.1274 1071.92 70.8354C1073.11 70.6514 1074.1 70.0614 1074.12 69.5254C1074.17 67.9224 1072.59 67.9754 1071.13 69.6264ZM1080.5 69.0004C1080.84 69.5504 1081.54 70.0004 1082.06 70.0004C1082.58 70.0004 1083 69.5504 1083 69.0004C1083 68.4504 1082.3 68.0004 1081.44 68.0004C1080.58 68.0004 1080.16 68.4504 1080.5 69.0004ZM1545.81 68.6834C1546.53 68.9724 1547.4 68.9364 1547.73 68.6044C1548.06 68.2724 1547.47 68.0364 1546.42 68.0794C1545.25 68.1274 1545.02 68.3644 1545.81 68.6834ZM582.305 70.3324C579.606 71.2204 579.141 71.8344 579.305 74.2924C579.497 77.1634 579.567 77.1954 584.658 76.7764C590 76.3364 596.793 73.0284 593.98 72.2374C593.166 72.0084 591.082 71.1864 589.349 70.4104C587.616 69.6354 586.041 69.0634 585.849 69.1414C585.657 69.2184 584.062 69.7544 582.305 70.3324ZM1180 70.5004C1179.32 71.3254 1177.71 72.0004 1176.44 72.0004C1173.39 72.0004 1172.42 73.6804 1174.99 74.4954C1176.09 74.8474 1177 75.7414 1177 76.4824C1177 78.3134 1185.2 77.3834 1186.3 75.4274C1186.74 74.6424 1187.93 74.0004 1188.94 74.0004C1189.96 74.0004 1191.07 73.2664 1191.41 72.3694C1191.96 70.9404 1191.4 70.8224 1186.89 71.4204C1182.49 72.0054 1181.83 71.8804 1182.34 70.5514C1183.1 68.5724 1181.63 68.5404 1180 70.5004ZM1312 69.9874C1312 70.6784 1314.35 72.0004 1315.58 72.0004C1316.95 72.0004 1315.67 70.1464 1314 69.7104C1312.9 69.4234 1312 69.5474 1312 69.9874ZM1478.81 69.6834C1479.53 69.9724 1480.4 69.9364 1480.73 69.6044C1481.06 69.2724 1480.47 69.0364 1479.42 69.0794C1478.25 69.1274 1478.02 69.3644 1478.81 69.6834ZM1662.08 70.0944C1658.74 71.4294 1660.75 73.2414 1665.12 72.8234C1667.37 72.6074 1668.59 71.9204 1668.82 70.7504C1669.19 68.7604 1666.16 68.4644 1662.08 70.0944ZM1794 70.0324C1794 71.1564 1798.19 73.0584 1799 72.3024C1799.56 71.7734 1796.05 69.0004 1794.81 69.0004C1794.36 69.0004 1794 69.4654 1794 70.0324ZM59.0791 71.5834C59.1271 72.7484 59.3641 72.9854 59.6831 72.1884C59.9721 71.4664 59.9361 70.6034 59.6041 70.2714C59.2721 69.9394 59.0361 70.5294 59.0791 71.5834ZM314 71.5004C311.522 72.9164 311.536 72.9294 315.559 72.9654C317.791 72.9844 320.491 72.3394 321.559 71.5324C323.385 70.1514 323.292 70.0644 320 70.0674C318.075 70.0694 315.375 70.7144 314 71.5004ZM65.4591 72.0674C65.0961 72.6534 65.0141 73.3484 65.2761 73.6104C65.5381 73.8724 66.0191 73.3924 66.3451 72.5434C67.0211 70.7814 66.4451 70.4714 65.4591 72.0674ZM402 72.0594C402 72.6414 402.45 72.8404 403 72.5004C403.55 72.1604 404 71.6844 404 71.4414C404 71.1984 403.55 71.0004 403 71.0004C402.45 71.0004 402 71.4774 402 72.0594ZM1240.25 71.6624C1239.56 71.9404 1239 72.5794 1239 73.0834C1239 74.1344 1242.41 74.2654 1245.84 73.3484C1247.58 72.8814 1247.83 72.5084 1246.84 71.8774C1245.39 70.9594 1242.25 70.8574 1240.25 71.6624ZM1486 72.3834C1486 74.0924 1490.11 75.2904 1491.43 73.9674C1492.06 73.3444 1491.77 73.0004 1490.64 73.0004C1489.67 73.0004 1489.16 72.5504 1489.5 72.0004C1489.84 71.4504 1489.19 71.0004 1488.06 71.0004C1486.93 71.0004 1486 71.6234 1486 72.3834ZM283.638 73.5004C283.255 74.5004 283.679 75.0004 284.909 75.0004C285.924 75.0004 287.315 74.3254 288 73.5004C289.05 72.2344 288.852 72.0004 286.729 72.0004C285.346 72.0004 283.955 72.6754 283.638 73.5004ZM354.5 73.0004C352.783 73.7384 352.924 73.8674 355.5 73.9144C357.15 73.9454 359.175 73.5334 360 73.0004C361.182 72.2364 360.97 72.0424 359 72.0864C357.625 72.1164 355.6 72.5274 354.5 73.0004ZM597.269 72.6934C598.242 72.9474 599.592 72.9304 600.269 72.6564C600.946 72.3824 600.15 72.1754 598.5 72.1954C596.85 72.2154 596.296 72.4394 597.269 72.6934ZM1281.25 72.6894C1282.21 72.9414 1283.79 72.9414 1284.75 72.6894C1285.71 72.4384 1284.93 72.2324 1283 72.2324C1281.08 72.2324 1280.29 72.4384 1281.25 72.6894ZM382 73.8834C382 74.3694 382.9 75.0024 384 75.2904C385.3 75.6304 386 75.3204 386 74.4064C386 73.6334 385.1 73.0004 384 73.0004C382.9 73.0004 382 73.3984 382 73.8834ZM1256 74.0004C1255.1 74.5824 1254.98 74.9754 1255.69 74.9854C1256.35 74.9934 1257.16 74.5504 1257.5 74.0004C1258.27 72.7584 1257.92 72.7584 1256 74.0004ZM752.75 74.6624C753.438 74.9404 754.563 74.9404 755.25 74.6624C755.938 74.3854 755.375 74.1584 754 74.1584C752.625 74.1584 752.063 74.3854 752.75 74.6624ZM792.459 75.0674C791.293 76.9534 792.802 77.2524 795.158 75.6024L797.445 74.0004H795.282C794.092 74.0004 792.821 74.4804 792.459 75.0674ZM1229.27 74.6934C1230.24 74.9474 1231.59 74.9304 1232.27 74.6564C1232.95 74.3824 1232.15 74.1754 1230.5 74.1954C1228.85 74.2154 1228.3 74.4394 1229.27 74.6934ZM259.813 75.6834C260.534 75.9724 261.397 75.9364 261.729 75.6044C262.061 75.2724 261.471 75.0364 260.417 75.0794C259.252 75.1274 259.015 75.3644 259.813 75.6834ZM160.269 76.6934C161.242 76.9474 162.592 76.9304 163.269 76.6564C163.946 76.3824 163.15 76.1754 161.5 76.1954C159.85 76.2154 159.296 76.4394 160.269 76.6934ZM1953.5 78.0004C1953.84 78.5504 1955.24 79.0004 1956.62 79.0004C1958.03 79.0004 1958.85 78.5654 1958.5 78.0004C1958.16 77.4504 1956.76 77.0004 1955.38 77.0004C1953.97 77.0004 1953.15 77.4354 1953.5 78.0004ZM474 79.0004C472.9 79.7114 473.566 79.9554 476.5 79.9144C479.643 79.8714 480.071 79.6754 478.5 79.0004C475.869 77.8694 475.75 77.8694 474 79.0004ZM503.813 78.6834C504.534 78.9724 505.397 78.9364 505.729 78.6044C506.061 78.2724 505.471 78.0364 504.417 78.0794C503.252 78.1274 503.015 78.3644 503.813 78.6834ZM1249.81 78.6834C1250.53 78.9724 1251.4 78.9364 1251.73 78.6044C1252.06 78.2724 1251.47 78.0364 1250.42 78.0794C1249.25 78.1274 1249.02 78.3644 1249.81 78.6834ZM282 82.0004C282 82.5504 283.152 83.0004 284.559 83.0004C286.01 83.0004 286.851 82.5674 286.5 82.0004C286.16 81.4504 285.009 81.0004 283.941 81.0004C282.873 81.0004 282 81.4504 282 82.0004ZM301 82.0004C301 82.5504 302.125 83.0004 303.5 83.0004C304.875 83.0004 306 82.5504 306 82.0004C306 81.4504 304.875 81.0004 303.5 81.0004C302.125 81.0004 301 81.4504 301 82.0004ZM1789 82.0004C1789 82.5504 1789.9 83.0004 1791 83.0004C1792.1 83.0004 1793 82.5504 1793 82.0004C1793 81.4504 1792.1 81.0004 1791 81.0004C1789.9 81.0004 1789 81.4504 1789 82.0004ZM292.264 82.7184C293.784 82.9474 296.034 82.9414 297.264 82.7044C298.494 82.4674 297.25 82.2794 294.5 82.2864C291.75 82.2944 290.744 82.4884 292.264 82.7184ZM289.5 85.0004C289.84 85.5504 290.74 86.0004 291.5 86.0004C292.26 86.0004 293.16 85.5504 293.5 85.0004C293.852 84.4314 292.991 84.0004 291.5 84.0004C290.009 84.0004 289.148 84.4314 289.5 85.0004ZM966.75 87.6624C967.438 87.9404 968.563 87.9404 969.25 87.6624C969.938 87.3854 969.375 87.1584 968 87.1584C966.625 87.1584 966.063 87.3854 966.75 87.6624ZM0.574086 182.297C0.126086 183.835 0.0390854 185.372 0.380085 185.713C1.49909 186.833 2.15808 185.235 1.77008 182.341L1.38909 179.5L0.574086 182.297Z" fill="black"></path></svg> 