<?xml version="1.0" encoding="UTF-8"?> <svg xmlns="http://www.w3.org/2000/svg" width="586" height="318" viewBox="0 0 586 318" fill="none"><path d="M88.5585 3.96038L8.31598 51.2125C3.98979 53.76 1.33398 58.406 1.33398 63.4265V301.844C1.33398 309.673 7.68013 316.019 15.5085 316.019H375.138C376.873 316.019 378.594 315.7 380.214 315.079L458.495 285.055C460.115 284.434 461.836 284.115 463.571 284.115H565.49C573.215 284.115 579.518 277.929 579.662 270.206L584.398 16.4389C584.546 8.50848 578.158 2 570.226 2H95.7509C93.2215 2 90.7381 2.67687 88.5585 3.96038Z" fill="white" stroke="url(#paint0_linear_3254_2065)" stroke-width="2.18069"></path><defs><linearGradient id="paint0_linear_3254_2065" x1="303.53" y1="-25.8014" x2="303.53" y2="324.222" gradientUnits="userSpaceOnUse"><stop stop-color="#D3D3D3"></stop><stop offset="0.28125" stop-color="#2B2B2B"></stop><stop offset="0.619792" stop-color="#4E4D4D"></stop><stop offset="1" stop-color="#848282"></stop></linearGradient></defs></svg> 