<?xml version="1.0" encoding="UTF-8"?> <svg xmlns="http://www.w3.org/2000/svg" width="343" height="159" viewBox="0 0 343 159" fill="none"><path d="M222.359 15.2496H11.8333C5.85025 15.2496 1 20.0998 1 26.0829V146.916C1 152.899 5.85024 157.75 11.8333 157.75H221.656C223.054 157.75 224.438 157.479 225.733 156.953L270.204 138.89C271.499 138.364 272.883 138.094 274.281 138.094H331C336.983 138.094 341.833 133.244 341.833 127.261V11.9162C341.833 5.93313 336.983 1.08289 331 1.08289H273.722C272.689 1.08289 271.662 1.23065 270.67 1.5217L225.411 14.8107C224.42 15.1018 223.392 15.2496 222.359 15.2496Z" fill="black" stroke="url(#paint0_linear_3225_976)" stroke-width="1.66667"></path><defs><linearGradient id="paint0_linear_3225_976" x1="177.569" y1="-12.7875" x2="177.569" y2="161.842" gradientUnits="userSpaceOnUse"><stop stop-color="#D3D3D3"></stop><stop offset="0.28125" stop-color="#2B2B2B"></stop><stop offset="0.619792" stop-color="#4E4D4D"></stop><stop offset="1" stop-color="#848282"></stop></linearGradient></defs></svg> 