<?xml version="1.0" encoding="UTF-8"?> <svg xmlns="http://www.w3.org/2000/svg" width="588" height="588" viewBox="0 0 588 588" fill="none"><path fill-rule="evenodd" clip-rule="evenodd" d="M278.168 0.780998C277.903 1.21 278.085 7.39801 278.572 14.531C279.06 21.664 279.475 28.448 279.496 29.607C279.53 31.549 278.819 31.767 270.378 32.404C250.112 33.934 223.765 39.833 202.893 47.513C177.877 56.718 146.847 74.7 126.533 91.764C105.946 109.056 84.3322 133.837 70.5052 156C63.0502 167.949 51.4412 192.028 46.7182 205.337C39.3182 226.19 35.5462 243.875 31.8902 274.867L31.3752 279.235L15.9542 278.512L0.533203 277.789V293.5V309.211L15.9542 308.488L31.3752 307.765L31.8902 312.133C35.5282 342.971 39.8452 363.072 47.0172 382.565C51.7552 395.443 63.7532 420.188 70.5022 431C84.3482 453.181 105.95 477.947 126.533 495.236C146.847 512.3 177.877 530.282 202.893 539.487C223.769 547.169 250.112 553.066 270.386 554.596L279.549 555.288L278.859 567.394C278.479 574.052 278.138 581.075 278.101 583L278.033 586.5L293.878 586.776L309.724 587.052L309.104 577.276C308.763 571.899 308.235 564.688 307.929 561.25L307.374 555H311.402C313.618 555 320.741 554.308 327.232 553.463C402.598 543.646 470.452 501.099 512.681 437.181C536.731 400.777 550.501 360.946 555.043 314.64L555.716 307.78L571.624 308.504L587.533 309.228V293.5V277.772L571.624 278.496L555.716 279.22L555.043 272.36C550.501 226.054 536.731 186.223 512.681 149.819C476.064 94.394 419.852 54.602 356.033 38.928C342.707 35.656 319.651 32.014 312.203 32.005L307.374 32L307.929 25.75C308.235 22.313 308.762 15.113 309.102 9.75L309.72 0H294.185C285.641 0 278.434 0.350998 278.168 0.780998ZM270.033 54.7C260.555 55.561 240.448 59.391 229.154 62.486C199.809 70.529 168.954 86.234 144.036 105.811C132.978 114.499 110.681 137.486 101.907 149.244C75.1222 185.136 57.8172 230.224 54.8902 271.75C54.2682 280.572 54.3312 281 56.2532 281C61.7832 281 258.897 293.031 259.257 293.391C259.487 293.621 255.931 294.094 251.354 294.443C241.22 295.215 59.1962 306 56.2982 306C54.3192 306 54.2642 306.365 54.8902 315.25C58.0132 359.543 77.5082 407.684 107.231 444.5C116.173 455.576 133.257 472.581 144.036 481.134C161.498 494.99 186.068 509.056 207.487 517.458C225.538 524.539 252.019 530.613 273.24 532.54C280.234 533.175 280.46 533.125 280.922 530.847C281.184 529.556 283.953 484.625 287.075 431C290.198 377.375 292.928 333.313 293.143 333.083C293.357 332.854 293.744 332.877 294.001 333.135C294.259 333.392 297.133 378.267 300.389 432.856C303.645 487.445 306.589 532.389 306.932 532.733C307.926 533.726 333.611 530.264 346.377 527.416C416.783 511.708 476.759 464.425 508.63 399.5C522.487 371.273 530.008 343.741 532.875 310.75C533.25 306.428 533.094 306 531.136 306C524.683 306 328.126 293.926 327.703 293.504C327.426 293.227 327.398 293 327.64 293C327.883 293 373.284 290.3 428.533 287C483.782 283.7 529.953 281 531.136 281C533.094 281 533.25 280.572 532.875 276.25C530.008 243.259 522.487 215.727 508.63 187.5C476.759 122.575 416.783 75.292 346.377 59.584C333.611 56.736 307.926 53.274 306.932 54.267C306.589 54.611 303.645 99.555 300.389 154.144C297.133 208.733 294.259 253.608 294.001 253.865C293.744 254.123 293.358 254.146 293.144 253.917C292.93 253.688 290.198 209.625 287.073 156C283.948 102.375 281.19 57.488 280.943 56.25C280.471 53.88 279.916 53.802 270.033 54.7ZM287.068 286.104C284.052 288.751 283.533 289.838 283.533 293.5C283.533 297.162 284.052 298.249 287.068 300.896C291.004 304.352 294.146 304.769 298.661 302.434C305.446 298.925 305.742 288.928 299.18 284.926C294.647 282.162 291.172 282.5 287.068 286.104Z" fill="#E10202"></path></svg> 